<?xml version="1.0" standalone="no"?>
<!DOCTYPE svg PUBLIC "-//W3C//DTD SVG 1.1//EN" "http://www.w3.org/Graphics/SVG/1.1/DTD/svg11.dtd" >
<svg xmlns="http://www.w3.org/2000/svg">
<metadata>
Created by FontPrep 20130207 at Thu May 21 09:21:54 2015
 By Noah Kovacs
Copyright (c) 2012, vernon adams (vern@newtypography.co.uk), with Reserved Font Names "Potano"
</metadata>
<defs>
<font id="05b551fffa46fc9bd980e3bfd15ecf62" horiz-adv-x='1024' >
  <font-face
    font-family="PontanoSans-Regular"
    font-weight="400"
    font-stretch="normal"
    units-per-em="2048"
    panose-1="0 0 0 0 0 0 0 0 0 0"
    ascent="1638"
    descent="-410"
    x-height="1023"
    cap-height="1464"
    bbox="-175 -573 2541 2033"
    underline-thickness="102"
    underline-position="-205"
    unicode-range="U+000D-FB02"
  />
<missing-glyph horiz-adv-x="748"
d="M136 68h408v1229h-408v-1229zM68 0v1365h544v-1365h-544z" />
    <glyph glyph-name="onequarter" unicode="&#x31;&#x2f;&#x34;" horiz-adv-x="1403"
d="M1058 234v351l-237 -351h237zM707 152v68l320 473h146v-459h100v-82h-100v-152h-115v152h-351zM415 1464v-695h-113v596l-117 -58l-21 90l148 67h103zM68 52l1236 1429l77 -66l-1235 -1429z" />
    <glyph glyph-name="onehalf" unicode="&#x31;&#x2f;&#x32;" horiz-adv-x="1361"
d="M1231 0h-475q4 105 85.5 181.5t154 135.5t99 97t26.5 73v3q0 61 -38.5 94t-94.5 33t-103 -33t-60 -92l-19 10q-47 25 -71 35q31 86 101 130.5t160 44.5t161.5 -57t71.5 -165t-65 -167.5t-144.5 -117.5t-118.5 -125h330v-80zM415 1464v-695h-113v596l-117 -58l-21 90
l148 67h103zM86 -14l-78 66l1236 1429l77 -66z" />
    <glyph glyph-name="threequarters" unicode="&#x33;&#x2f;&#x34;" horiz-adv-x="1441"
d="M471 1298q0 45 -26.5 71.5t-74.5 26.5q-106 0 -147 -89l-73 51q21 58 83.5 90.5t146.5 32.5t142.5 -50.5t58.5 -112.5t-32 -107.5t-90 -66.5q148 -43 156 -184q5 -87 -61 -150.5t-166 -63.5t-169 41t-89 123l78 40q36 -116 168 -116q57 0 93.5 36.5t36.5 82.5
q0 142 -188 142v87q153 2 153 116zM1096 234v351l-237 -351h237zM1096 152h-351v68l320 473h146v-459h100v-82h-100v-152h-115v152zM189 -14l-78 66l1236 1429l77 -66z" />
    <glyph glyph-name="uniFB01" unicode="fi" horiz-adv-x="1071"
d="M476 1365q-33 0 -50.5 -6.5t-34 -31t-20.5 -69t-4 -121.5v-114h570v-1023h-142v917h-428v-918h-142v918h-173v106h173v117q0 171 53 251t181 80q81 0 156 -41l-34 -92q-72 27 -105 27zM793 1242v179h141v-179h-141z" />
    <glyph glyph-name="uniFB02" unicode="fl" horiz-adv-x="1072"
d="M476 1365q-33 0 -50.5 -6.5t-34 -31t-20.5 -69t-4 -121.5v-114h428v451h142v-1474h-142v917h-428v-918h-142v918h-173v106h173v117q0 171 53 251t181 80q81 0 156 -41l-34 -92q-72 27 -105 27z" />
    <glyph glyph-name=".notdef" horiz-adv-x="748"
d="M136 68h408v1229h-408v-1229zM68 0v1365h544v-1365h-544z" />
    <glyph glyph-name="glyph1" horiz-adv-x="0"
 />
    <glyph glyph-name="glyph2" horiz-adv-x="682"
 />
    <glyph glyph-name="uni000D" unicode="&#xd;" horiz-adv-x="1069"
 />
    <glyph glyph-name="space" unicode=" " horiz-adv-x="450"
 />
    <glyph glyph-name="exclam" unicode="!" horiz-adv-x="428"
d="M138 197h164v-197h-164v197zM191 305l-53 1159h169l-57 -1159h-59z" />
    <glyph glyph-name="quotedbl" unicode="&#x22;" horiz-adv-x="510"
d="M53 1464h154l-51 -464h-51zM457 1464l-51 -464h-51l-52 464h154z" />
    <glyph glyph-name="numbersign" unicode="#" horiz-adv-x="1221"
d="M463 901l-52 -252h326l51 252h-325zM278 1l-134 -1l111 551h-204l29 98h195l51 252h-206l29 98h197l94 464l139 1l-96 -465h325l94 464l139 1l-96 -465h230l-29 -98h-221l-52 -252h233l-29 -98h-224l-113 -550l-134 -1l111 551h-326z" />
    <glyph glyph-name="dollar" unicode="$" horiz-adv-x="1323"
d="M642 -201v177q-185 8 -298.5 72.5t-170 143t-75.5 181.5l123 53q84 -307 421 -324v621q-76 19 -166.5 59t-191 100.5t-100.5 229.5q0 179 136.5 270t321.5 99v193h89v-194q150 -8 258 -70t189 -186l-104 -76q-47 86 -131.5 146t-211.5 69v-521q7 -2 19.5 -7l47.5 -19
t78 -31t95 -43t110 -67t94 -112.5t36 -169.5q0 -186 -128.5 -295t-351.5 -121v-178h-89zM731 103h3q227 17 275.5 115t48.5 159t-21 118.5t-98.5 104t-207.5 92.5v-589zM337 1122q0 -116 98.5 -166t206.5 -85v491q-137 -8 -221 -66t-84 -174z" />
    <glyph glyph-name="percent" unicode="%" horiz-adv-x="1677"
d="M1325 599q-93 0 -144.5 -74t-51.5 -158t21.5 -141t67 -95t107.5 -38q90 0 141 76t51 160t-20.5 139.5t-65.5 93t-106 37.5zM1524 617q104 -75 104 -272q0 -196 -103 -270.5t-201 -74.5t-201.5 74t-103.5 270q0 137 78.5 242.5t238.5 105.5q84 0 188 -75zM357 1374
q-93 0 -144.5 -74t-51.5 -178t52 -179t143 -75t141.5 75.5t50.5 159.5t-20.5 140t-65 93.5t-105.5 37.5zM356 1466q96 0 200 -75.5t104 -271.5t-103.5 -270.5t-199.5 -74.5q-145 0 -226 102t-81 242q0 197 105 272.5t201 75.5zM268 -14l-78 66l1236 1429l77 -66z" />
    <glyph glyph-name="ampersand" unicode="&#x26;" horiz-adv-x="1430"
d="M316.5 617.5q-72.5 -86.5 -72.5 -208.5t87.5 -223t271.5 -101q109 0 215 50.5t184 147.5l-445 502q-168 -81 -240.5 -167.5zM882 1205q0 86 -60.5 136t-145.5 50t-151 -50t-66 -132q0 -130 150 -292q273 127 273 288zM1010 1218q0 -124 -84.5 -212t-248.5 -170l397 -455
q55 93 73.5 205t33.5 215l130 -19q-35 -292 -142 -497q28 -29 90 -97.5t134 -130.5l-73 -85q-74 62 -145 134.5t-87 88.5q-208 -221 -506 -221q-213 0 -348.5 127t-135.5 298q0 321 386 474q-81 91 -120 170t-39 167q0 129 103.5 204t247.5 75t239 -73.5t95 -197.5z" />
    <glyph glyph-name="quotesingle" unicode="'" horiz-adv-x="280"
d="M173 1000h-51l-52 464h154z" />
    <glyph glyph-name="parenleft" unicode="(" horiz-adv-x="602"
d="M185 702q0 -674 375 -775l-37 -107q-229 55 -359 274t-130 609t130.5 610t358.5 274l37 -105q-375 -106 -375 -780z" />
    <glyph glyph-name="parenright" unicode=")" horiz-adv-x="602"
d="M417 706q0 674 -375 774l37 107q229 -55 359 -274t130 -609t-130.5 -610t-358.5 -274l-37 105q375 107 375 781z" />
    <glyph glyph-name="asterisk" unicode="*" horiz-adv-x="826"
d="M463 762h-100l10 287l-265 -155l-47 88l275 130l-276 130l47 88l266 -155l-10 288h100l-10 -287l265 155l47 -88l-275 -130l276 -130l-47 -88l-266 155z" />
    <glyph glyph-name="plus" unicode="+" horiz-adv-x="860"
d="M72 673v100h304v327h102v-327h300v-100h-300v-323h-102v323h-304z" />
    <glyph glyph-name="comma" unicode="," horiz-adv-x="445"
d="M100 219h200v-85q-5 -153 -19 -212q-27 -114 -118 -176l-49 62q27 21 52.5 74.5t27.5 133.5l-94 13v190z" />
    <glyph glyph-name="hyphen" unicode="-" horiz-adv-x="724"
d="M100 400v111h500v-111h-500z" />
    <glyph glyph-name="period" unicode="." horiz-adv-x="434"
d="M135 215h164v-215h-164v215z" />
    <glyph glyph-name="slash" unicode="/" horiz-adv-x="592"
d="M152 -35l-109 27l415 1542l117 -27z" />
    <glyph glyph-name="zero" unicode="0" horiz-adv-x="1246"
d="M623 1374q-114 0 -234 -125t-120 -519t118.5 -515.5t235.5 -121.5t235.5 121.5t118.5 515.5t-120 519t-234 125zM623 -25q-125 0 -223 55t-192 206.5t-94 489.5q0 337 94.5 493.5t192 214t222.5 57.5t222.5 -57.5t192 -214t94.5 -493.5t-94 -489t-192 -207t-223 -55z" />
    <glyph glyph-name="one" unicode="1" horiz-adv-x="592"
d="M434 1464v-1464h-146v1328l-186 -80l-44 116l247 100h129z" />
    <glyph glyph-name="two" unicode="2" horiz-adv-x="1137"
d="M562 1492q194 0 296.5 -76t142 -161t39.5 -185t-33.5 -183t-89.5 -150.5t-125 -129.5t-145.5 -121t-191.5 -152.5t-175 -212.5h739v-121h-919q6 188 128 311t277 245t265 229.5t110 263.5t-89.5 238.5t-216.5 82.5q-261 0 -389 -281l-129 52q158 351 506 351z" />
    <glyph glyph-name="three" unicode="3" horiz-adv-x="1092"
d="M926 1152q0 -113 -60.5 -204t-181.5 -130q158 -45 235.5 -158t77.5 -267t-85.5 -248t-173 -131.5t-178.5 -37.5q-169 0 -298 80.5t-173 259.5l124 42q84 -264 320 -264q148 0 231.5 90t83.5 212q0 187 -104 271t-303 84v113q267 0 304.5 110.5t37.5 165.5q0 99 -62 170
t-179 71q-195 0 -313 -189l-106 64q151 237 412 237q182 0 286.5 -94t104.5 -247z" />
    <glyph glyph-name="four" unicode="4" horiz-adv-x="1206"
d="M738 467v865l-446 -865h446zM877 1464v-997h255v-110h-254v-357h-140v357h-607v107l542 1000h204z" />
    <glyph glyph-name="five" unicode="5" horiz-adv-x="1163"
d="M600 928q244 0 358 -138.5t114 -328.5q0 -257 -152 -370t-329 -113q-362 0 -492 331l124 50q57 -124 149.5 -194t188.5 -70q181 0 271.5 106.5t90.5 249.5t-82 250t-242 107t-323 -123l-91 59l96 720h701v-127h-570l-69 -481l5 2q126 70 252 70z" />
    <glyph glyph-name="six" unicode="6" horiz-adv-x="1202"
d="M283 606q0 -66 6.5 -126.5t28.5 -148t98 -163.5t205 -76t220 103.5t91 284.5q0 260 -122 303.5t-196 43.5t-163 -35.5t-167 -93.5q-1 -26 -1 -92zM1083 502q0 -94 -29 -206t-144 -216t-287 -104q-374 0 -436.5 277.5t-62.5 454.5q0 364 143.5 573.5t373.5 209.5
q150 0 322 -95l-41 -111q-155 87 -268 87t-227.5 -90.5t-136.5 -453.5q164 118 343 118t277.5 -86t135.5 -175t37 -183z" />
    <glyph glyph-name="seven" unicode="7" horiz-adv-x="948"
d="M874 1464v-113l-557 -1352l-158 2l563 1347h-574l-12 116h738z" />
    <glyph glyph-name="eight" unicode="8" horiz-adv-x="1160"
d="M602 1379q-55 0 -125 -14t-134.5 -80t-64.5 -170q0 -105 48.5 -156t110 -83.5t222.5 -83.5q240 120 240 317t-121 233.5t-176 36.5zM106 351q0 238 292 408q-94 43 -182.5 129.5t-88.5 212.5q0 168 118.5 279.5t353.5 111.5q236 0 343 -116t107 -277q0 -69 -30.5 -131.5
t-99.5 -124.5t-151 -92q208 -100 251 -197t43 -174t-31 -163t-154 -163.5t-321 -77.5t-324 112t-126 263zM264 386q0 -134 84.5 -218.5t221.5 -84.5t211 53.5t103.5 109.5t29.5 112t-12.5 95t-31.5 68.5t-68.5 68.5t-120 66.5t-180.5 59.5q-113 -68 -175 -162t-62 -168z" />
    <glyph glyph-name="nine" unicode="9" horiz-adv-x="1197"
d="M919 864q0 67 -6.5 126.5t-28.5 145.5t-98 162t-206 76t-220 -101.5t-90 -281.5q0 -262 127 -304.5t200 -42.5t159 35t162 94q1 24 1 91zM119 964q0 88 12 148t47 145.5t141.5 160t267.5 74.5q486 0 486 -721q0 -382 -142.5 -586t-375.5 -204q-151 0 -328 94l41 111
q159 -87 282 -87q157 0 251.5 138t110.5 406q-158 -118 -337 -118t-279.5 86t-138.5 175.5t-38 177.5z" />
    <glyph glyph-name="colon" unicode=":" horiz-adv-x="482"
d="M159 1024h173v-216h-173v216zM332 387v-216h-173v216h173z" />
    <glyph glyph-name="semicolon" unicode=";" horiz-adv-x="478"
d="M332 1024v-216h-173v216h173zM150 219h200v-85q-5 -153 -19 -212q-28 -114 -118 -176l-49 62q27 21 52.5 74.5t27.5 133.5l-94 13v190z" />
    <glyph glyph-name="less" unicode="&#x3c;" horiz-adv-x="1051"
d="M998 241v-138l-949 366v126l949 355v-152l-787 -273z" />
    <glyph glyph-name="equal" unicode="=" horiz-adv-x="820"
d="M135 300v100h550v-100h-550zM135 550v100h550v-100h-550z" />
    <glyph glyph-name="greater" unicode="&#x3e;" horiz-adv-x="1051"
d="M53 812v138l949 -366v-126l-949 -355v152l787 273z" />
    <glyph glyph-name="question" unicode="?" horiz-adv-x="1010"
d="M350 0v215h164v-215h-164zM795 1082q0 121 -68.5 209.5t-238.5 88.5q-224 0 -354 -203l-99 73q152 241 462 241q230 0 337 -121.5t107 -273.5t-68 -248t-168.5 -217t-189.5 -273h-149q107 199 241.5 359t161 231t26.5 134z" />
    <glyph glyph-name="at" unicode="@" horiz-adv-x="1704"
d="M896 843q-103 0 -176 -57t-111.5 -153t-38.5 -179q0 -136 51 -213.5t157 -77.5h1q110 0 194 95.5t106 245.5l44 259q-124 80 -227 80zM764 67q-52 0 -98 13.5t-133.5 77t-87.5 267.5q0 196 84.5 309.5t165 158t171.5 44.5q136 0 279 -93l25 73h98l-92 -591
q0 -66 37 -93.5t61 -27.5t44 8t39.5 24.5t67.5 83.5t48 281q0 296 -198.5 422.5t-388.5 126.5q-315 0 -480.5 -226t-165.5 -461q0 -234 130 -390q162 -193 469 -194q186 0 409 90l40 -75q-236 -118 -446 -118q-420 0 -574 235.5t-154 469.5t136 441t313 270t304 63
t284.5 -45.5t298.5 -214t141 -400.5q0 -286 -112 -385t-221 -99q-70 0 -111.5 45t-55.5 95q-97 -147 -186 -166t-141 -19z" />
    <glyph glyph-name="A" unicode="A" horiz-adv-x="1218"
d="M603 1362q-15 -46 -49.5 -158.5t-50.5 -163.5l-169 -532h540l-170 533q-58 180 -101 321zM26 0l486 1464h192l488 -1464h-150l-134 399h-608l-128 -399h-146z" />
    <glyph glyph-name="B" unicode="B" horiz-adv-x="1295"
d="M148 0v1464h439q234 0 350.5 -42t174.5 -119t58 -208q0 -258 -271 -305q157 -31 236 -129.5t79 -234.5t-38 -216t-123 -126.5t-204 -65t-298 -18.5h-403zM294 730v-623h314q195 0 282 31t133 95t46 199q0 134 -58.5 191.5t-120 77t-136.5 24.5t-165 5h-295zM293 1357
v-520h228q190 0 243.5 7t88.5 14t56.5 17t50.5 29t50 69t21 109t-7.5 92.5t-20 58t-34 44t-43 32.5t-81.5 30.5t-251 17.5h-301z" />
    <glyph glyph-name="C" unicode="C" horiz-adv-x="1350"
d="M738 1491q199 0 338.5 -98.5t192.5 -290.5l-134 -31q-36 140 -136 221.5t-266 81.5q-249 0 -357.5 -162t-108.5 -474q0 -403 128 -524t341 -121q311 0 413 284l125 -39q-60 -181 -203.5 -272t-342.5 -91q-310 0 -462 181.5t-152 574.5t163 576.5t461 183.5z" />
    <glyph glyph-name="D" unicode="D" horiz-adv-x="1400"
d="M148 1464h504q316 0 475.5 -163.5t159.5 -562.5q0 -519 -209.5 -628.5t-432.5 -109.5h-497v1464zM653 1350h-359v-1236h303q155 0 259 33.5t168.5 110.5t92 192t27.5 278t-23 271.5t-104.5 229.5t-363.5 121z" />
    <glyph glyph-name="E" unicode="E" horiz-adv-x="1143"
d="M1128 0h-980v1464h969v-112h-823v-514h716v-115h-716v-610h834v-113z" />
    <glyph glyph-name="F" unicode="F" horiz-adv-x="1094"
d="M1117 1352h-823v-522h715v-114h-715v-716h-146v1464h969v-112z" />
    <glyph glyph-name="G" unicode="G" horiz-adv-x="1374"
d="M750 1491q158 0 291 -86.5t195 -254.5l-122 -54q-103 278 -380 278q-245 0 -356 -162t-111 -491q0 -476 163.5 -552t258.5 -76t160.5 21.5t123.5 63t94.5 111t36.5 155.5v220h-372v125h516v-208l-10 -581h-93l-32 191q-57 -95 -167.5 -155t-244.5 -60q-587 0 -587 746
q0 584 239 676.5t397 92.5z" />
    <glyph glyph-name="H" unicode="H" horiz-adv-x="1457"
d="M1164 836v628h145v-1464h-145v720h-870v-720h-146v1464h146v-628h870z" />
    <glyph glyph-name="I" unicode="I" horiz-adv-x="464"
d="M309 0h-146v1464h146v-1464z" />
    <glyph glyph-name="J" unicode="J" horiz-adv-x="954"
d="M673 541v923h145v-920q0 -294 -92.5 -431.5t-320.5 -137.5q-313 0 -384 359l130 35q31 -138 91 -207t177 -69t172.5 66.5t68.5 160t13 221.5z" />
    <glyph glyph-name="K" unicode="K" horiz-adv-x="1252"
d="M294 0h-146v1466h146v-740l709 740h177l-515 -540l579 -926h-167l-515 828l-268 -275v-553z" />
    <glyph glyph-name="L" unicode="L"
d="M1041 0h-893v1464h146v-1351h747v-113z" />
    <glyph glyph-name="M" unicode="M" horiz-adv-x="1645"
d="M148 0v1463h211l467 -1058l480 1057h191v-1462h-134v1275l-475 -1025h-135l-466 1031v-1281h-139z" />
    <glyph glyph-name="N" unicode="N" horiz-adv-x="1491"
d="M148 0v1464h163l903 -1243v1243h129v-1464h-132l-930 1290v-1290h-133z" />
    <glyph glyph-name="O" unicode="O" horiz-adv-x="1449"
d="M267 741q0 -337 104.5 -492.5t352.5 -155.5t352 154t104 513t-127 486.5t-331 127.5q-299 0 -377 -195.5t-78 -437.5zM1174 1316q161 -175 161 -575t-155 -583t-458 -183q-455 0 -531.5 280.5t-76.5 482.5t41.5 347.5t159 275.5t407.5 130q291 0 452 -175z" />
    <glyph glyph-name="P" unicode="P" horiz-adv-x="1253"
d="M304 1350v-602h272q218 0 308 28.5t126 63.5t54.5 87.5t18.5 127.5t-28.5 152.5t-147 110t-351.5 32.5h-252zM148 0v1464h431q358 0 505 -89t147 -299t-98.5 -306.5t-276 -115.5t-336.5 -19h-222v-635h-150z" />
    <glyph glyph-name="Q" unicode="Q" horiz-adv-x="1449"
d="M267 741q0 -337 104.5 -492.5t352.5 -155.5t352 154t104 513t-127 486.5t-331 127.5q-299 0 -377 -195.5t-78 -437.5zM114 740q0 577 232 664t378 87q289 0 450 -175t161 -575q0 -467 -219 -647l258 -357l-108 -82l-250 375q-119 -55 -280 -55t-271 42t-230.5 177.5
t-120.5 545.5z" />
    <glyph glyph-name="R" unicode="R" horiz-adv-x="1286"
d="M293 1356v-570h351q240 0 330.5 72t90.5 215q0 208 -127.5 245.5t-269.5 37.5h-375zM1214 1075q0 -150 -77.5 -243.5t-238.5 -136.5l340 -695h-156l-332 673h-457v-673h-145v1464h529q285 0 411 -94.5t126 -294.5z" />
    <glyph glyph-name="S" unicode="S" horiz-adv-x="1216"
d="M1019 1151q-121 213 -398 213q-139 0 -238 -58t-99 -178q0 -157 139.5 -203t198 -65t108.5 -38t93 -36.5t95 -43.5t110 -67t94 -112.5t36 -169.5q0 -197 -147.5 -307.5t-394.5 -110.5t-393.5 112.5t-177.5 285.5l123 53q89 -325 456 -325q193 0 287 80t94 207
q0 64 -23 111t-59 73t-57 40.5t-126 56.5t-175 62q-178 62 -248 101q-186 103 -186 284q0 91 41 163t145.5 137.5t291.5 65.5q186 0 308.5 -59t209.5 -192z" />
    <glyph glyph-name="T" unicode="T" horiz-adv-x="1119"
d="M9 1352v113h1101v-113h-474v-1352h-153v1352h-474z" />
    <glyph glyph-name="U" unicode="U" horiz-adv-x="1346"
d="M123 574v890h160v-866q0 -191 35 -279t78 -130t113.5 -66.5t166.5 -24.5t196.5 35t147 155t46.5 310v866h157v-883q0 -313 -134.5 -459.5t-414.5 -146.5t-415.5 143.5t-135.5 455.5z" />
    <glyph glyph-name="V" unicode="V" horiz-adv-x="1164"
d="M513 0l-501 1464h155l293 -868q25 -71 126 -380q50 150 130 380l288 868h148l-501 -1464h-138z" />
    <glyph glyph-name="W" unicode="W" horiz-adv-x="1797"
d="M907 1187l-367 -1187h-113l-415 1462h152q199 -719 256.5 -951.5t69.5 -276.5l375 1228h104q51 -189 170 -609t177 -636q48 177 158 600.5t172 643.5l139 1l-415 -1462h-126q-323 1134 -337 1187z" />
    <glyph glyph-name="X" unicode="X" horiz-adv-x="1245"
d="M626 889l403 575h166l-489 -697l533 -767h-173l-446 641l-447 -641h-167l534 763l-489 701h175z" />
    <glyph glyph-name="Y" unicode="Y" horiz-adv-x="1162"
d="M654 0h-146v549l-512 915h158l428 -782l427 782h157l-512 -916v-548z" />
    <glyph glyph-name="Z" unicode="Z" horiz-adv-x="1176"
d="M130 1356v108h1006v-81l-908 -1276h913l-7 -107h-1087v98l898 1258h-815z" />
    <glyph glyph-name="bracketleft" unicode="[" horiz-adv-x="708"
d="M132 -52v1532h458v-106h-313v-1319h313v-107h-458z" />
    <glyph glyph-name="backslash" unicode="\" horiz-adv-x="632"
d="M588 -5h-145l-397 1469h145z" />
    <glyph glyph-name="bracketright" unicode="]" horiz-adv-x="707"
d="M119 1374v106h457v-1532h-457v107h312v1319h-312z" />
    <glyph glyph-name="asciicircum" unicode="^" horiz-adv-x="1053"
d="M241 100h-138l366 899h126l355 -899h-152l-273 737z" />
    <glyph glyph-name="underscore" unicode="_" horiz-adv-x="870"
d="M99 -1h651v-98h-651v98z" />
    <glyph glyph-name="grave" unicode="`" horiz-adv-x="496"
d="M47 1492h195l205 -319l-94 -1z" />
    <glyph glyph-name="a" unicode="a" horiz-adv-x="1019"
d="M504 935q-184 0 -287 -128q0 1 -85 81q123 156 380 156q376 0 376 -371v-673h-117l-17 116q-171 -140 -365 -140q-128 0 -213.5 70.5t-85.5 182.5t45 174t144 102.5t368 80.5l99 15v42q0 167 -55 229.5t-187 62.5zM224 265q0 -192 190 -192q159 0 332 146v286l-98 -15
q-246 -37 -320 -74t-89 -75.5t-15 -75.5z" />
    <glyph glyph-name="b" unicode="b" horiz-adv-x="1078"
d="M125 0v1493h143v-628q43 88 128 133.5t193 45.5q186 0 290.5 -144t104.5 -390t-105.5 -390t-298.5 -144q-111 0 -198.5 48t-124.5 137l-19 -161h-113zM263 522q0 -445 302 -445q128 0 201.5 120.5t73.5 312.5t-76 311t-212 119t-212.5 -116.5t-76.5 -301.5z" />
    <glyph glyph-name="c" unicode="c" horiz-adv-x="981"
d="M92 509q0 328 151 431.5t295 103.5q213 0 283 -112t90 -199l-119 -32q-32 122 -91.5 180.5t-156.5 58.5q-154 0 -230.5 -114.5t-76.5 -313.5q0 -312 109 -371.5t185 -59.5q199 0 268 235l109 -34q-51 -230 -184.5 -268t-195.5 -38q-212 0 -324 145.5t-112 387.5z" />
    <glyph glyph-name="d" unicode="d" horiz-adv-x="1066"
d="M504 81q159 0 226.5 105t67.5 313q0 272 -96.5 356.5t-199.5 84.5q-127 0 -197 -121t-70 -313t72 -308.5t197 -116.5zM90 508q0 245 102 390.5t290 145.5q229 0 310 -181v611h143v-1474h-114l-19 172q-39 -90 -124.5 -143t-191.5 -53q-184 0 -290 143.5t-106 388.5z" />
    <glyph glyph-name="e" unicode="e" horiz-adv-x="1027"
d="M802 597q-2 344 -274 344q-193 0 -237.5 -136t-50.5 -208h562zM537 -24q-113 0 -200.5 44t-166 157t-78.5 343q0 231 116.5 377.5t323.5 146.5q302 0 354.5 -188t52.5 -257t-3 -95h-699q0 -177 71 -300t229 -123q201 0 258 177l110 -24q-23 -85 -106.5 -170.5
t-257.5 -87.5h-4z" />
    <glyph glyph-name="f" unicode="f" horiz-adv-x="623"
d="M468 1365q-33 0 -50.5 -6.5t-34 -31t-20.5 -69t-4 -121.5v-114h200v-106h-200v-918h-142v918h-173v106h173v117q0 171 53 251t181 80q81 0 156 -41l-34 -92q-72 27 -105 27z" />
    <glyph glyph-name="g" unicode="g" horiz-adv-x="1077"
d="M527 -429q-266 0 -363 162l83 79q82 -132 287 -132q143 0 213.5 91t70.5 257v102q-118 -154 -312 -154t-303 151.5t-109 398.5q0 315 138.5 416.5t269.5 101.5q199 0 327 -153l8 132h114v-1003q0 -199 -109.5 -324t-314.5 -125zM818 543q0 268 -107.5 332.5t-186.5 64.5
q-153 0 -220.5 -122.5t-67.5 -312.5t74.5 -307t202.5 -117q305 0 305 428v34z" />
    <glyph glyph-name="h" unicode="h" horiz-adv-x="1101"
d="M602 940q-209 0 -269.5 -149.5t-60.5 -307.5v-483h-142v1473h142v-611q117 182 351 182q331 0 344 -206t13 -255v-583h-142v594q0 171 -52.5 258.5t-183.5 87.5z" />
    <glyph glyph-name="i" unicode="i" horiz-adv-x="410"
d="M137 0v1023h142v-1023h-142zM135 1242v179h141v-179h-141z" />
    <glyph glyph-name="j" unicode="j" horiz-adv-x="482"
d="M216 1242v179h141v-179h-141zM214 -91v1114h142v-1035q0 -160 -30 -217.5t-74 -76.5t-126 -19t-151 41l24 107q84 -31 125 -31q90 0 90 117z" />
    <glyph glyph-name="k" unicode="k" horiz-adv-x="1008"
d="M272 0h-142v1477h141v-966l526 512h162l-381 -372l440 -651h-160l-373 565l-213 -196v-369z" />
    <glyph glyph-name="l" unicode="l" horiz-adv-x="419"
d="M134 0v1474h142v-1474h-142z" />
    <glyph glyph-name="m" unicode="m" horiz-adv-x="1663"
d="M762 607q0 333 -188 333q-98 0 -167 -53.5t-104 -134t-35 -169.5v-583h-142v1023h137l4 -162q107 183 326 183q114 0 186 -56t100 -156q51 107 145 159.5t188 52.5t153.5 -29t118 -105t58.5 -334v-576h-142v607q0 247 -72 290t-143 43t-140 -52t-105 -131.5t-36 -165.5
v-591h-142v607z" />
    <glyph glyph-name="n" unicode="n" horiz-adv-x="1086"
d="M127 0v1023h138v-193q53 154 179 184t182 30t104.5 -11t82.5 -32.5t60 -47t51 -83.5t33 -129t8 -157v-584h-142v603q0 200 -59 263.5t-148 63.5q-90 0 -174.5 -31.5t-128.5 -139t-44 -260.5v-499h-142z" />
    <glyph glyph-name="o" unicode="o" horiz-adv-x="1064"
d="M524 940q-76 0 -136 -36.5t-105.5 -129t-45.5 -261.5q0 -323 113.5 -377.5t181.5 -54.5t142 35t114 144t40 213t-8.5 163t-29.5 116t-53.5 97.5t-84.5 65.5t-128 25zM532 1044q198 0 319 -135.5t121 -394.5t-118.5 -398.5t-321.5 -139.5t-321.5 138t-118.5 398t121 396
t319 136z" />
    <glyph glyph-name="p" unicode="p" horiz-adv-x="1061"
d="M969 520q0 -327 -130.5 -435.5t-246.5 -108.5q-228 -1 -319 178v-504h-142v1373h122l10 -165q99 186 306 186t303.5 -148.5t96.5 -375.5zM825 511q0 198 -71.5 313.5t-195.5 115.5q-254 0 -271 -174t-17 -247q0 -438 289 -438q124 0 195 116t71 314z" />
    <glyph glyph-name="q" unicode="q" horiz-adv-x="1057"
d="M237 510q0 -196 69.5 -312.5t191.5 -116.5q290 0 290 420q0 252 -75.5 345.5t-204.5 93.5t-200 -117t-71 -313zM222.5 82.5q-130.5 106.5 -130.5 428.5t131 427.5t258 105.5q235 0 316 -182l15 161h117v-1373h-143v505q-88 -179 -307 -179q-126 0 -256.5 106.5z" />
    <glyph glyph-name="r" unicode="r" horiz-adv-x="584"
d="M260 1023v-192q28 69 100 131t206 62v-129q-230 0 -266 -145t-36 -218v-532h-142v1023h138z" />
    <glyph glyph-name="s" unicode="s" horiz-adv-x="929"
d="M488 937q-252 0 -252 -178q0 -120 106.5 -144.5t158.5 -34.5q174 -32 261.5 -99.5t87.5 -206.5t-101 -218.5t-310 -79.5t-281 90.5t-91 158.5l108 44q36 -98 100 -142t183 -44q263 0 263 176q0 96 -60 135.5t-248 78.5t-249.5 107.5t-61.5 191.5q0 124 105 198t257 74
t238 -45t139 -153q-97 -55 -97 -56q-34 78 -95 112.5t-161 34.5z" />
    <glyph glyph-name="t" unicode="t" horiz-adv-x="644"
d="M426 -16q-116 0 -175.5 80.5t-59.5 260.5v599h-153v99h162v327l133 37v-364h224v-99h-224v-663q0 -170 138 -170q46 0 123 34l24 -93q-76 -48 -192 -48z" />
    <glyph glyph-name="u" unicode="u" horiz-adv-x="1118"
d="M813 436v587h142v-1023h-138v192q-40 -106 -142.5 -161t-192.5 -55t-142 15.5t-86.5 40t-70 78t-49 138.5t-13.5 188v587h142v-617q0 -158 49 -238.5t171 -80.5q205 0 267.5 128.5t62.5 220.5z" />
    <glyph glyph-name="v" unicode="v" horiz-adv-x="952"
d="M788 1023h138l-394 -1023h-126l-383 1023h152l301 -872z" />
    <glyph glyph-name="w" unicode="w" horiz-adv-x="1487"
d="M351 0l-330 1023h152l249 -846l278 846h94l262 -845l267 845h140l-348 -1023h-127l-246 800l-264 -800h-127z" />
    <glyph glyph-name="x" unicode="x" horiz-adv-x="966"
d="M405 514l-371 509h154l294 -417l294 417h150l-368 -505l380 -518h-154l-303 420l-300 -420h-150z" />
    <glyph glyph-name="y" unicode="y" horiz-adv-x="985"
d="M176 -320q-60 0 -112 14l15 113q46 -7 88 -7q169 0 236 197l23 67l-392 959h146l57 -147q57 -146 137 -351t124 -314q86 224 317 812h140q-69 -175 -198 -496t-169 -421t-66.5 -156.5t-63.5 -113.5t-75.5 -87.5t-92.5 -49.5t-114 -19z" />
    <glyph glyph-name="z" unicode="z" horiz-adv-x="878"
d="M86 919v104h750v-95l-609 -825h607v-103h-768v94l601 825h-581z" />
    <glyph glyph-name="braceleft" unicode="{" horiz-adv-x="644"
d="M198 942v91q0 208 11 251t25 84.5t58.5 86t120 67t195.5 22.5v-90q-92 0 -122 -10t-48 -15.5t-33 -24.5t-24 -30.5t-15.5 -44t-11.5 -65t-5 -57.5v-174q0 -147 -33.5 -225.5t-125.5 -100.5q92 -22 125.5 -100.5t33.5 -258.5q1 -180 15 -256t70 -104t174 -28v-90
q-210 0 -264.5 46.5t-75 67t-41 81t-25 132t-4.5 143.5v101q0 101 -27.5 142.5t-57.5 57t-78 19.5v94q83 6 113 46t40 83.5t10 58.5z" />
    <glyph glyph-name="bar" unicode="|" horiz-adv-x="416"
d="M281 -197h-146v1699h146v-1699z" />
    <glyph glyph-name="braceright" unicode="}" horiz-adv-x="644"
d="M446 470v-90q0 -208 -11 -251t-25 -84.5t-58.5 -86t-120 -67t-195.5 -22.5v90q118 0 174 28t70 104t15 256q0 180 33.5 258.5t125.5 100.5q-92 22 -125.5 100.5t-33.5 225.5v107q0 107 -11.5 164.5t-20.5 69t-24 30.5t-33 24.5t-48 15.5t-122 10v90q210 0 264.5 -46.5
t75 -67t41 -81t25 -132t4.5 -143.5v-101q0 -100 27.5 -142t57.5 -57.5t78 -19.5v-94q-83 -6 -113 -46t-40 -83.5t-10 -59.5z" />
    <glyph glyph-name="asciitilde" unicode="~" horiz-adv-x="962"
d="M758 700q-84 0 -291 62.5t-243 62.5t-53.5 -21t-31.5 -97h-118q9 145 58.5 190.5t89 47t83.5 1.5t252 -60t232 -60t35.5 5t22 12.5t28.5 102.5h119q-6 -137 -52.5 -191.5t-130.5 -54.5z" />
    <glyph glyph-name="exclamdown" unicode="&#xa1;" horiz-adv-x="426"
d="M139 1268v197h164v-197h-164zM174 1160h76l57 -1160h-185z" />
    <glyph glyph-name="cent" unicode="&#xa2;" horiz-adv-x="993"
d="M237 542q0 -148 25.5 -237t82 -147.5t139.5 -72.5v850q-124 -21 -185.5 -133t-61.5 -260zM577 -208h-93v186q-127 12 -258.5 117t-131.5 412t131.5 414.5t258.5 120.5v211h93v-211q200 -14 258.5 -129.5t73.5 -179.5l-111 -32q-57 217 -221 237v-854q165 24 228 239
l101 -34q-37 -170 -136.5 -235t-192.5 -76v-186z" />
    <glyph glyph-name="sterling" unicode="&#xa3;" horiz-adv-x="1168"
d="M156 60q104 214 104 410q0 88 -18 225h-176v102h167l-18 191q0 501 430 501q166 0 249.5 -85t108.5 -252l-119 -18q-26 160 -93 204.5t-140 44.5q-153 0 -224.5 -91.5t-71.5 -284.5q0 -39 19 -210h399v-102h-392q14 -167 14 -223q0 -142 -25.5 -223t-62.5 -154
q125 44 223.5 58t214.5 14t261 -38l-28 -130q-183 43 -321 43q-139 0 -425 -72z" />
    <glyph glyph-name="currency" unicode="&#xa4;" horiz-adv-x="1068"
d="M549 284q-136 0 -225 66l-134 -153l-64 56l138 157q-81 104 -81 232t53 217l-158 138l56 64l153 -135q95 97 233 97t225 -67l133 152l64 -56l-137 -156q78 -102 78 -229t-52 -218l159 -140l-56 -63l-154 135q-95 -97 -231 -97zM769 658q0 110 -63.5 188.5t-170.5 78.5
t-169.5 -79.5t-62.5 -190.5t62.5 -190.5t168.5 -79.5t170.5 81.5t64.5 191.5z" />
    <glyph glyph-name="yen" unicode="&#xa5;" horiz-adv-x="1358"
d="M348 544v86h211l-465 806h158l428 -754l427 754h157l-465 -806h203v-86h-250v-124h250v-86h-250v-334h-146v334h-258v86h258v124h-258z" />
    <glyph glyph-name="brokenbar" unicode="&#xa6;" horiz-adv-x="416"
d="M281 883h-146v621h146v-621zM135 -198v631h146v-631h-146z" />
    <glyph glyph-name="section" unicode="&#xa7;" horiz-adv-x="1005"
d="M535 1371q-231 0 -235 -182v-3q0 -76 87 -122q28 -14 188 -76t229 -122t69 -156t-90 -239q115 -77 115 -217t-91.5 -213.5t-270.5 -73.5t-283 85t-126 213l102 37q65 -228 311 -228q108 0 169 41.5t61 121.5v6q-2 97 -74 135q-50 26 -220 88t-236 121.5t-66 161.5
t107 235q-57 34 -85.5 81t-28.5 130q0 136 96.5 209.5t247.5 73.5t234.5 -45.5t138.5 -154.5l-91 -57q-46 86 -102 118t-156 32zM301 731q0 -32 66.5 -87t309.5 -120q62 106 62 179q0 38 -15.5 58.5t-26.5 31.5t-33.5 24t-49 26.5t-107.5 43.5t-116 44q-90 -115 -90 -200z
" />
    <glyph glyph-name="dieresis" unicode="&#xa8;" horiz-adv-x="860"
d="M135 1365h166v-174h-166v174zM680 1365v-174h-166v174h166z" />
    <glyph glyph-name="copyright" unicode="&#xa9;" horiz-adv-x="1702"
d="M849 100q182 0 337.5 90.5t246 245t90.5 314.5t-53.5 285.5t-143.5 216.5t-215 145.5t-261 54.5t-261 -54.5t-215.5 -145.5t-144 -216.5t-53.5 -285.5t90.5 -314.5t245.5 -245t337 -90.5zM1579 774q0 -196 -98 -363.5t-266.5 -265.5t-364.5 -98t-363.5 98t-265.5 265.5
t-98 363.5t98 364.5t265.5 266.5t363.5 98t364.5 -98t266.5 -266.5t98 -364.5zM850 344q-333 0 -333 450q0 232 90 342.5t249 110.5q217 0 273 -232l-71 -18q-41 180 -205 180q-255 0 -255 -378q0 -198 58 -291t207 -93t203 169l66 -23q-65 -217 -282 -217z" />
    <glyph glyph-name="ordfeminine" unicode="&#xaa;" horiz-adv-x="946"
d="M393 -20q-101 0 -171 57.5t-70 162.5t54 155.5t126 79t262 60.5l77 12v66q0 102 -49.5 149.5t-119.5 47.5q-136 0 -242 -104q0 1 -78 71q54 59 144 96.5t166 37.5q147 0 224.5 -82.5t77.5 -244.5v-544h-104l-14 97q-132 -117 -283 -117zM269 229q0 -161 127 -161
q136 0 275 124v227l-76 -13q-172 -27 -249 -65t-77 -112z" />
    <glyph glyph-name="guillemotleft" unicode="&#xab;" horiz-adv-x="946"
d="M51 552v197l445 301v-141l-347 -259l347 -257v-142zM894 251l-445 301v197l445 301v-141l-347 -259l347 -257v-142z" />
    <glyph glyph-name="logicalnot" unicode="&#xac;" horiz-adv-x="1024"
d="M803 335v335h-668v86h754v-421h-86z" />
    <glyph glyph-name="registered" unicode="&#xae;" horiz-adv-x="1702"
d="M849 100q182 0 337.5 90.5t246 245.5t90.5 337t-90.5 337.5t-246 246t-337.5 90.5t-337 -90.5t-245.5 -246t-90.5 -337.5t90.5 -337t245.5 -245.5t337 -90.5zM857 1248q322 0 322 -231q0 -168 -179 -224q17 -54 144 -327l42 -87h-87l-183 400h-255v-398h-83v867h279z
M664 1184v-338h185q138 0 190.5 43t52.5 160.5t-102.5 126t-141.5 8.5h-184zM1579 774q0 -196 -98 -363.5t-266.5 -265.5t-364.5 -98t-363.5 98t-265.5 265.5t-98 363.5t98 364.5t265.5 266.5t363.5 98t364.5 -98t266.5 -266.5t98 -364.5z" />
    <glyph glyph-name="macron" unicode="&#xaf;" horiz-adv-x="724"
d="M135 1219v110h454v-110h-454z" />
    <glyph glyph-name="degree" unicode="&#xb0;" horiz-adv-x="483"
d="M379 1268q0 60 -38.5 105t-102.5 45t-102 -45t-38 -105t38 -105.5t104 -45.5t102.5 45.5t36.5 105.5zM483 1268q0 -98 -66.5 -167t-174.5 -69t-175 69t-67 167t67 167t175 69t174.5 -69t66.5 -167z" />
    <glyph glyph-name="plusminus" unicode="&#xb1;" horiz-adv-x="860"
d="M130 673v100h249v250h102v-250h249v-100h-249v-250h-102v250h-249zM129 247v86h601v-86h-601z" />
    <glyph glyph-name="uni00B2" unicode="&#xb2;" horiz-adv-x="1230"
d="M860 859v-80h-475q4 105 85.5 181.5t154 135.5t99 97t26.5 73v3q0 61 -38.5 94t-94.5 33t-103 -33t-60 -92l-19 10q-47 25 -71 35q31 86 100.5 130.5t159.5 44.5t162 -57t72 -165t-65 -167.5t-144.5 -117.5t-118.5 -125h330z" />
    <glyph glyph-name="uni00B3" unicode="&#xb3;" horiz-adv-x="772"
d="M471 1298q0 45 -26.5 71.5t-74.5 26.5q-106 0 -147 -89l-73 51q21 58 83.5 90.5t146.5 32.5t142.5 -50.5t58.5 -112.5t-32 -107.5t-90 -66.5q148 -43 156 -184q5 -87 -61 -150.5t-166 -63.5t-169 41t-89 123l78 40q36 -116 168 -116q57 0 93.5 36.5t36.5 82.5
q0 142 -188 142v87q153 2 153 116z" />
    <glyph glyph-name="acute" unicode="&#xb4;" horiz-adv-x="494"
d="M254 1492h195l-308 -320h-92z" />
    <glyph glyph-name="mu" unicode="&#xb5;" horiz-adv-x="1122"
d="M261 -350h-142v831h2v542h147v-617q0 -157 51 -238t173 -81q203 0 269.5 133t66.5 216v587h142v-1023h-137l-4 159q-117 -183 -362 -183q-63 0 -119 23t-87 58v-407z" />
    <glyph glyph-name="paragraph" unicode="&#xb6;" horiz-adv-x="1038"
d="M465 0v799q-162 0 -270 95t-108 241q0 187 144.5 258t394.5 71h368v-115h-170v-1349h-126v799h-103v-799h-130z" />
    <glyph glyph-name="periodcentered" unicode="&#xb7;" horiz-adv-x="434"
d="M135 758h164v-215h-164v215z" />
    <glyph glyph-name="cedilla" unicode="&#xb8;" horiz-adv-x="435"
d="M150 -174v164h200v-179q0 -80 -34 -140.5t-102 -60.5q-21 0 -42 9v65q30 -8 37 -8q22 0 31 31t9 119h-99z" />
    <glyph glyph-name="uni00B9" unicode="&#xb9;" horiz-adv-x="546"
d="M262 769v596l-117 -58l-21 90l148 67h103v-695h-113z" />
    <glyph glyph-name="ordmasculine" unicode="&#xba;" horiz-adv-x="1000"
d="M747 403q0 115 -24.5 191t-82 127.5t-130.5 51.5q-138 0 -197 -103.5t-59 -242.5q0 -138 60 -243t186 -105q128 0 187.5 104.5t59.5 219.5zM123 427q0 215 105.5 329.5t271.5 114.5t271.5 -113.5t105.5 -328.5t-103.5 -332t-273.5 -117t-273.5 116t-103.5 331z" />
    <glyph glyph-name="guillemotright" unicode="&#xbb;" horiz-adv-x="946"
d="M896 748v-197l-445 -301v141l347 259l-347 257v142zM53 1049l445 -301v-197l-445 -301v141l347 259l-347 257v142z" />
    <glyph glyph-name="questiondown" unicode="&#xbf;" horiz-adv-x="1099"
d="M718 1467v-215h-164v215h164zM273 385q0 -121 68 -209q68 -89 239 -89q224 0 354 203l99 -73q-152 -241 -462 -241q-230 0 -337 122t-107 273q0 153 91 281q45 64 94 122q152 183 241 335h149q-107 -199 -242 -359q-134 -160 -160 -231q-27 -71 -27 -134z" />
    <glyph glyph-name="Agrave" unicode="&#xc0;" horiz-adv-x="1218"
d="M313 1933h195l205 -319l-94 -1zM603 1362q-15 -46 -49 -158t-51 -164l-169 -532h540l-170 533q-58 180 -101 321zM26 0l486 1464h192l488 -1464h-150l-134 399h-608l-128 -399h-146z" />
    <glyph glyph-name="Aacute" unicode="&#xc1;" horiz-adv-x="1218"
d="M710 1933h195l-308 -320h-92zM603 1362q-15 -46 -49 -158t-51 -164l-169 -532h540l-170 533q-58 180 -101 321zM26 0l486 1464h192l488 -1464h-150l-134 399h-608l-128 -399h-146z" />
    <glyph glyph-name="Acircumflex" unicode="&#xc2;" horiz-adv-x="1218"
d="M517 1933h195l175 -320h-92l-181 218l-180 -218h-92zM603 1362q-15 -46 -49 -158t-51 -164l-169 -532h540l-170 533q-58 180 -101 321zM26 0l486 1464h192l488 -1464h-150l-134 399h-608l-128 -399h-146z" />
    <glyph glyph-name="Atilde" unicode="&#xc3;" horiz-adv-x="1218"
d="M432 1641h-96q-2 15 -2 41q0 150 128 150q43 0 153 -46t131 -46q39 0 39 96h97q2 -24 2 -35q0 -82 -41 -120t-94 -38q-53 1 -151 43t-119 42q-19 0 -33 -22t-14 -65zM603 1362q-15 -46 -49 -158t-51 -164l-169 -532h540l-170 533q-58 180 -101 321zM26 0l486 1464h192
l488 -1464h-150l-134 399h-608l-128 -399h-146z" />
    <glyph glyph-name="Adieresis" unicode="&#xc4;" horiz-adv-x="1218"
d="M314 1806h166v-174h-166v174zM859 1806v-174h-166v174h166zM603 1362q-15 -46 -49 -158t-51 -164l-169 -532h540l-170 533q-58 180 -101 321zM26 0l486 1464h192l488 -1464h-150l-134 399h-608l-128 -399h-146z" />
    <glyph glyph-name="Aring" unicode="&#xc5;" horiz-adv-x="1218"
d="M483 1817q1 -53 33 -93t90 -40t90 40t33 93q-1 52 -33 92t-90 40t-90 -40t-33 -92zM608 2033q106 0 166 -64t59 -152q0 -88 -60 -152t-166 -64t-164 63t-58 151q1 88 59 153t164 65zM603 1362q-15 -46 -49 -158t-51 -164l-169 -532h540l-170 533q-58 180 -101 321zM26 0
l486 1464h192l488 -1464h-150l-134 399h-608l-128 -399h-146z" />
    <glyph glyph-name="AE" unicode="&#xc6;" horiz-adv-x="2030"
d="M1118 723v-610h897v-113h-1044v399h-600l-247 -399h-161l907 1464h1135v-112h-887v-514h725l-1 -115h-724zM974 508v898q-3 -12 -62 -110.5t-80 -128.5q-353 -581 -400 -659h542z" />
    <glyph glyph-name="Ccedilla" unicode="&#xc7;" horiz-adv-x="1338"
d="M738 1491q198 -1 338 -99t193 -290l-134 -31q-36 139 -136 221t-266 82q-249 0 -357 -162t-109 -474q1 -404 147 -542q110 -103 322 -103q311 0 413 284l125 -39q-60 -181 -204 -272q-108 -69 -247 -85v-170q0 -81 -34 -141t-102 -60q-21 0 -42 9v65q30 -8 37 -8
q22 0 31 31t9 119h-99v155q-232 25 -357 175q-152 182 -152 575t163 577t461 183z" />
    <glyph glyph-name="Egrave" unicode="&#xc8;" horiz-adv-x="1143"
d="M372 1933h195l205 -319l-94 -1zM1128 0h-980v1464h969v-112h-823v-514h716v-115h-716v-610h834v-113z" />
    <glyph glyph-name="Eacute" unicode="&#xc9;" horiz-adv-x="1143"
d="M686 1933h195l-308 -320h-92zM1128 0h-980v1464h969v-112h-823v-514h716v-115h-716v-610h834v-113z" />
    <glyph glyph-name="Ecircumflex" unicode="&#xca;" horiz-adv-x="1143"
d="M561 1933h195l175 -320h-92l-181 218l-180 -218h-92zM1128 0h-980v1464h969v-112h-823v-514h716v-115h-716v-610h834v-113z" />
    <glyph glyph-name="Edieresis" unicode="&#xcb;" horiz-adv-x="1143"
d="M377 1806h166v-174h-166v174zM922 1806v-174h-166v174h166zM1128 0h-980v1464h969v-112h-823v-514h716v-115h-716v-610h834v-113z" />
    <glyph glyph-name="Igrave" unicode="&#xcc;" horiz-adv-x="464"
d="M-97 1933h195l205 -319l-94 -1zM309 0h-146v1464h146v-1464z" />
    <glyph glyph-name="Iacute" unicode="&#xcd;" horiz-adv-x="464"
d="M358 1933h195l-308 -320h-92zM309 0h-146v1464h146v-1464z" />
    <glyph glyph-name="Icircumflex" unicode="&#xce;" horiz-adv-x="464"
d="M141 1933h195l175 -320h-92l-181 218l-180 -218h-92zM309 0h-146v1464h146v-1464z" />
    <glyph glyph-name="Idieresis" unicode="&#xcf;" horiz-adv-x="464"
d="M-42 1806h166v-174h-166v174zM503 1806v-174h-166v174h166zM309 0h-146v1464h146v-1464z" />
    <glyph glyph-name="Eth" unicode="&#xd0;" horiz-adv-x="1391"
d="M645 1350h-359v-562h264v-86h-264v-588h303q155 0 257.5 33.5t165.5 110.5t89 191.5t26 262.5t-20.5 295t-130 245t-331.5 98zM0 702v86h140v676h504q159 0 272.5 -37.5t233.5 -162.5t120 -524t-150 -569.5t-483 -170.5h-497v702h-140z" />
    <glyph glyph-name="Ntilde" unicode="&#xd1;" horiz-adv-x="1491"
d="M596 1641h-96q-2 15 -2 41q0 150 128 150q43 0 153 -46t131 -46q39 0 39 96h97q2 -24 2 -35q0 -82 -41 -120t-94 -38q-53 1 -151 43t-119 42q-19 0 -33 -22t-14 -65zM148 0v1464h163l903 -1243v1243h129v-1464h-132l-930 1290v-1290h-133z" />
    <glyph glyph-name="Ograve" unicode="&#xd2;" horiz-adv-x="1449"
d="M448 1933h195l205 -319l-94 -1zM267 741q0 -337 104 -493q105 -156 353 -155q248 0 352 154t104 513q0 360 -144 504q-110 110 -314 110q-299 0 -396 -243q-59 -148 -59 -390zM1174 1316q161 -175 161 -575t-155 -583t-458 -183q-456 0 -568 412q-40 149 -40 351t42 348
t121 234q155 172 445 171q291 0 452 -175z" />
    <glyph glyph-name="Oacute" unicode="&#xd3;" horiz-adv-x="1449"
d="M820 1933h195l-308 -320h-92zM267 741q0 -337 104 -493q105 -156 353 -155q248 0 352 154t104 513q0 360 -144 504q-110 110 -314 110q-299 0 -396 -243q-59 -148 -59 -390zM1174 1316q161 -175 161 -575t-155 -583t-458 -183q-456 0 -568 412q-40 149 -40 351t42 348
t121 234q155 172 445 171q291 0 452 -175z" />
    <glyph glyph-name="Ocircumflex" unicode="&#xd4;" horiz-adv-x="1449"
d="M633 1933h195l175 -320h-92l-181 218l-180 -218h-92zM267 741q0 -337 104 -493q105 -156 353 -155q248 0 352 154t104 513q0 360 -144 504q-110 110 -314 110q-299 0 -396 -243q-59 -148 -59 -390zM1174 1316q161 -175 161 -575t-155 -583t-458 -183q-456 0 -568 412
q-40 149 -40 351t42 348t121 234q155 172 445 171q291 0 452 -175z" />
    <glyph glyph-name="Otilde" unicode="&#xd5;" horiz-adv-x="1449"
d="M536 1641h-96q-2 15 -2 41q0 150 128 150q43 0 153 -46t131 -46q39 0 39 96h97q2 -24 2 -35q0 -82 -41 -120t-94 -38q-53 1 -151 43t-119 42q-19 0 -33 -22t-14 -65zM267 741q0 -337 104 -493q105 -156 353 -155q248 0 352 154t104 513q0 360 -144 504q-110 110 -314 110
q-299 0 -396 -243q-59 -148 -59 -390zM1174 1316q161 -175 161 -575t-155 -583t-458 -183q-456 0 -568 412q-40 149 -40 351t42 348t121 234q155 172 445 171q291 0 452 -175z" />
    <glyph glyph-name="Odieresis" unicode="&#xd6;" horiz-adv-x="1449"
d="M430 1806h166v-174h-166v174zM975 1806v-174h-166v174h166zM267 741q0 -337 104 -493q105 -156 353 -155q248 0 352 154t104 513q0 360 -144 504q-110 110 -314 110q-299 0 -396 -243q-59 -148 -59 -390zM1174 1316q161 -175 161 -575t-155 -583t-458 -183
q-456 0 -568 412q-40 149 -40 351t42 348t121 234q155 172 445 171q291 0 452 -175z" />
    <glyph glyph-name="multiply" unicode="&#xd7;" horiz-adv-x="734"
d="M190 203l-70 70l176 176l-177 177l72 72l177 -177l176 176l70 -70l-176 -176l177 -177l-72 -72l-177 177z" />
    <glyph glyph-name="Oslash" unicode="&#xd8;" horiz-adv-x="1463"
d="M1335 741q0 -400 -155 -583t-458 -183q-169 0 -288 55l-114 -234l-85 44l117 238q-238 173 -238 662q0 577 232 664t390 87t280 -57l110 224l84 -44l-112 -228q237 -175 237 -645zM723 93q249 0 353 153.5t104 511.5t-142 504l-549 -1120q94 -49 234 -49zM740 1374
q-122 0 -236.5 -42t-175.5 -195t-61 -396q0 -397 144 -541l550 1121q-99 53 -221 53z" />
    <glyph glyph-name="Ugrave" unicode="&#xd9;" horiz-adv-x="1346"
d="M433 1933h195l205 -319l-94 -1zM123 574v890h160v-866q0 -191 35 -279t78 -130q44 -43 114 -67t166 -24t166 24q131 46 177 166q47 120 47 310v866h157v-883q0 -313 -135 -459q-134 -146 -414 -147t-416 143t-135 456z" />
    <glyph glyph-name="Uacute" unicode="&#xda;" horiz-adv-x="1346"
d="M732 1933h195l-308 -320h-92zM123 574v890h160v-866q0 -191 35 -279t78 -130q44 -43 114 -67t166 -24t166 24q131 46 177 166q47 120 47 310v866h157v-883q0 -313 -135 -459q-134 -146 -414 -147t-416 143t-135 456z" />
    <glyph glyph-name="Ucircumflex" unicode="&#xdb;" horiz-adv-x="1346"
d="M581 1933h195l175 -320h-92l-181 218l-180 -218h-92zM123 574v890h160v-866q0 -191 35 -279t78 -130q44 -43 114 -67t166 -24t166 24q131 46 177 166q47 120 47 310v866h157v-883q0 -313 -135 -459q-134 -146 -414 -147t-416 143t-135 456z" />
    <glyph glyph-name="Udieresis" unicode="&#xdc;" horiz-adv-x="1346"
d="M417 1806h166v-174h-166v174zM962 1806v-174h-166v174h166zM123 574v890h160v-866q0 -191 35 -279t78 -130q44 -43 114 -67t166 -24t166 24q131 46 177 166q47 120 47 310v866h157v-883q0 -313 -135 -459q-134 -146 -414 -147t-416 143t-135 456z" />
    <glyph glyph-name="Yacute" unicode="&#xdd;" horiz-adv-x="1162"
d="M677 1933h195l-308 -320h-92zM654 0h-146v549l-512 915h158l428 -782l427 782h157l-512 -916v-548z" />
    <glyph glyph-name="Thorn" unicode="&#xde;" horiz-adv-x="1261"
d="M296 1080v-631h262q271 1 384 70t113 247t-115.5 246t-401.5 68h-242zM140 0v1464h156v-270h265q454 0 548 -137t94 -284q0 -245 -158.5 -341.5t-542.5 -96.5h-212v-335h-150z" />
    <glyph glyph-name="germandbls" unicode="&#xdf;" horiz-adv-x="1199"
d="M130 0v1151q0 80 37.5 146.5t134 130.5t274.5 64t271 -81t93 -203t-85.5 -196t-177.5 -116t-92 -68v-5q0 -51 77 -87.5t173 -78.5t191 -118t95 -203q0 -74 -21 -156t-161 -131t-458 -49h-40v117q329 0 411.5 43.5t102.5 80t20 88.5t-29.5 93.5t-76.5 71.5t-104 57.5
t-114 54.5t-133.5 74t-76.5 137q0 89 90.5 137t181.5 97.5t91 157.5q0 85 -62 132t-178 47t-202 -66t-86 -182v-1140h-146z" />
    <glyph glyph-name="agrave" unicode="&#xe0;" horiz-adv-x="1025"
d="M253 1492h195l205 -319l-94 -1zM504 935q-184 0 -287 -128q0 1 -85 81q123 156 380 156q376 0 376 -371v-673h-117l-17 116q-171 -140 -365 -140q-127 0 -213 70t-86 183q0 111 55 187q35 48 134 89q99 40 368 81l99 15v42q0 167 -55 229t-187 63zM224 265
q0 -192 190 -192q159 0 332 146v286l-98 -15q-246 -37 -320 -74t-93 -86q-11 -28 -11 -65z" />
    <glyph glyph-name="aacute" unicode="&#xe1;" horiz-adv-x="1025"
d="M582 1492h195l-308 -320h-92zM504 935q-184 0 -287 -128q0 1 -85 81q123 156 380 156q376 0 376 -371v-673h-117l-17 116q-171 -140 -365 -140q-127 0 -213 70t-86 183q0 111 55 187q35 48 134 89q99 40 368 81l99 15v42q0 167 -55 229t-187 63zM224 265q0 -192 190 -192
q159 0 332 146v286l-98 -15q-246 -37 -320 -74t-93 -86q-11 -28 -11 -65z" />
    <glyph glyph-name="acircumflex" unicode="&#xe2;" horiz-adv-x="1025"
d="M416 1492h195l175 -320h-92l-181 218l-180 -218h-92zM504 935q-184 0 -287 -128q0 1 -85 81q123 156 380 156q376 0 376 -371v-673h-117l-17 116q-171 -140 -365 -140q-127 0 -213 70t-86 183q0 111 55 187q35 48 134 89q99 40 368 81l99 15v42q0 167 -55 229t-187 63z
M224 265q0 -192 190 -192q159 0 332 146v286l-98 -15q-246 -37 -320 -74t-93 -86q-11 -28 -11 -65z" />
    <glyph glyph-name="atilde" unicode="&#xe3;" horiz-adv-x="1025"
d="M336 1200h-96q-2 15 -2 41q0 150 128 150q43 0 153 -46t131 -46q39 0 39 96h97q2 -24 2 -35q0 -82 -41 -120t-94 -38t-151 42t-119 44q-19 0 -33 -22t-14 -66zM504 935q-184 0 -287 -128q0 1 -85 81q123 156 380 156q376 0 376 -371v-673h-117l-17 116
q-171 -140 -365 -140q-127 0 -213 70t-86 183q0 111 55 187q35 48 134 89q99 40 368 81l99 15v42q0 167 -55 229t-187 63zM224 265q0 -192 190 -192q159 0 332 146v286l-98 -15q-246 -37 -320 -74t-93 -86q-11 -28 -11 -65z" />
    <glyph glyph-name="adieresis" unicode="&#xe4;" horiz-adv-x="1025"
d="M236 1365h166v-174h-166v174zM781 1365v-174h-166v174h166zM504 935q-184 0 -287 -128q0 1 -85 81q123 156 380 156q376 0 376 -371v-673h-117l-17 116q-171 -140 -365 -140q-127 0 -213 70t-86 183q0 111 55 187q35 48 134 89q99 40 368 81l99 15v42q0 167 -55 229
t-187 63zM224 265q0 -192 190 -192q159 0 332 146v286l-98 -15q-246 -37 -320 -74t-93 -86q-11 -28 -11 -65z" />
    <glyph glyph-name="aring" unicode="&#xe5;" horiz-adv-x="1025"
d="M387 1376q1 -52 33 -92t90 -41q58 1 90 41t33 92q-1 52 -33 92t-90 40t-90 -40t-33 -92zM512 1592q106 0 166 -64t59 -152q0 -88 -60 -152t-166 -64t-164 63t-58 151q1 88 59 153t164 65zM504 935q-184 0 -287 -128q0 1 -85 81q123 156 380 156q376 0 376 -371v-673h-117
l-17 116q-171 -140 -365 -140q-127 0 -213 70t-86 183q0 111 55 187q35 48 134 89q99 40 368 81l99 15v42q0 167 -55 229t-187 63zM224 265q0 -192 190 -192q159 0 332 146v286l-98 -15q-246 -37 -320 -74t-93 -86q-11 -28 -11 -65z" />
    <glyph glyph-name="ae" unicode="&#xe6;" horiz-adv-x="1667"
d="M1191 941q-134 0 -208 -100.5t-82 -248.5l549 14q-1 164 -63 249.5t-196 85.5zM226 264q0 -94 63 -139t139 -45q144 0 243.5 60.5t99.5 177.5l-10 169l-141 -5q-238 -13 -316 -68.5t-78 -149.5zM845 195q-122 -220 -393 -220q-115 0 -190.5 27.5t-126.5 92.5t-51 157
t38.5 157t113 101t165 52.5t223.5 17.5t128 6q0 235 -57.5 294.5t-172.5 59.5t-180.5 -27.5t-138.5 -74.5l-70 89q169 117 385 117q129 0 216.5 -53t107.5 -159q45 99 140 155.5t204 56.5q214 0 307.5 -130t93.5 -342q0 -38 -3 -64l-684 -14q0 -413 291 -413
q124 0 186.5 69.5t77.5 122.5l115 -39q-42 -114 -144 -186t-228 -72t-221.5 56.5t-131.5 162.5z" />
    <glyph glyph-name="ccedilla" unicode="&#xe7;" horiz-adv-x="979"
d="M92 509q0 328 200 465q102 70 246 70q214 0 314 -161q40 -63 59 -150l-119 -32q-32 123 -92 181t-156 58q-154 0 -230 -114t-77 -314q1 -312 161 -400q58 -32 133 -31q199 0 268 235l109 -34q-54 -243 -281 -295v-176q0 -81 -34 -141t-102 -60q-21 0 -42 9v65
q30 -8 37 -8q22 0 31 31t9 119h-99v159q-139 29 -223 137q-112 146 -112 387z" />
    <glyph glyph-name="egrave" unicode="&#xe8;"
d="M267 1492h195l205 -319l-94 -1zM802 597q-2 344 -274 344q-193 0 -262 -211q-20 -61 -26 -133h562zM537 -24q-113 0 -201 44t-140 120q-104 150 -104 380q0 232 116 378t324 146q302 0 383 -290q24 -86 24 -155t-3 -95h-699q0 -177 71 -300t229 -123q201 0 258 177
l110 -24q-23 -84 -81 -144q-109 -111 -283 -114h-4z" />
    <glyph glyph-name="eacute" unicode="&#xe9;"
d="M631 1492h195l-308 -320h-92zM802 597q-2 344 -274 344q-193 0 -262 -211q-20 -61 -26 -133h562zM537 -24q-113 0 -201 44t-140 120q-104 150 -104 380q0 232 116 378t324 146q302 0 383 -290q24 -86 24 -155t-3 -95h-699q0 -177 71 -300t229 -123q201 0 258 177l110 -24
q-23 -84 -81 -144q-109 -111 -283 -114h-4z" />
    <glyph glyph-name="ecircumflex" unicode="&#xea;"
d="M445 1492h195l175 -320h-92l-181 218l-180 -218h-92zM802 597q-2 344 -274 344q-193 0 -262 -211q-20 -61 -26 -133h562zM537 -24q-113 0 -201 44t-140 120q-104 150 -104 380q0 232 116 378t324 146q302 0 383 -290q24 -86 24 -155t-3 -95h-699q0 -177 71 -300t229 -123
q201 0 258 177l110 -24q-23 -84 -81 -144q-109 -111 -283 -114h-4z" />
    <glyph glyph-name="edieresis" unicode="&#xeb;"
d="M802 597q-2 344 -274 344q-193 0 -262 -211q-20 -61 -26 -133h562zM537 -24q-113 0 -201 44t-140 120q-104 150 -104 380q0 232 116 378t324 146q302 0 383 -290q24 -86 24 -155t-3 -95h-699q0 -177 71 -300t229 -123q201 0 258 177l110 -24q-23 -84 -81 -144
q-109 -111 -283 -114h-4zM250 1365h166v-174h-166v174zM795 1365v-174h-166v174h166z" />
    <glyph glyph-name="igrave" unicode="&#xec;" horiz-adv-x="411"
d="M-78 1492h195l205 -319l-94 -1zM140 0v1023h142v-1023h-142z" />
    <glyph glyph-name="iacute" unicode="&#xed;" horiz-adv-x="411"
d="M140 0v1023h142v-1023h-142zM339 1492h195l-308 -320h-92z" />
    <glyph glyph-name="icircumflex" unicode="&#xee;" horiz-adv-x="411"
d="M140 0v1023h142v-1023h-142zM115 1492h195l175 -320h-92l-181 218l-180 -218h-92z" />
    <glyph glyph-name="idieresis" unicode="&#xef;" horiz-adv-x="411"
d="M-63 1365h166v-174h-166v174zM482 1365v-174h-166v174h166zM140 0v1023h142v-1023h-142z" />
    <glyph glyph-name="eth" unicode="&#xf0;" horiz-adv-x="1053"
d="M523 798q-123 0 -205.5 -96.5t-82.5 -261.5t79.5 -260.5t217.5 -95.5t214.5 115.5t76.5 311.5q0 109 -7 139q-135 148 -293 148zM169 1339v93q291 0 479 -149l206 135l53 -75l-192 -125q102 -106 173 -297.5t71 -414.5t-104.5 -377t-336.5 -154q-104 0 -186.5 40
t-160 142.5t-77.5 296.5q0 106 34.5 193.5t123.5 174t258 86.5q170 0 300 -134q-14 104 -72 214.5t-120 166.5l-197 -129l-53 75l191 124q-151 114 -390 114z" />
    <glyph glyph-name="ntilde" unicode="&#xf1;" horiz-adv-x="1085"
d="M396 1200h-96q-2 15 -2 41q0 150 128 150q43 0 153 -46t131 -46q39 0 39 96h97q2 -24 2 -35q0 -82 -41 -120t-94 -38t-151 42t-119 44q-19 0 -33 -22t-14 -66zM127 0v1023h138v-193q53 154 253 202q52 12 108 12t104 -11t83 -33q34 -22 60 -46q26 -26 42 -63
q34 -79 42 -150t8 -157v-584h-142v603q0 200 -59 263q-59 64 -148 64q-90 0 -148 -22q-110 -41 -155 -149q-44 -107 -44 -260v-499h-142z" />
    <glyph glyph-name="ograve" unicode="&#xf2;" horiz-adv-x="1064"
d="M263 1492h195l205 -319l-94 -1zM524 940q-76 0 -136 -36t-92 -101q-60 -121 -59 -290q-1 -323 175 -407q52 -25 120 -25t120 25q95 45 136 154q40 109 40 213t-8 163t-30 116q-22 58 -54 98t-84 65t-128 25zM532 1044q198 0 319 -136t121 -394t-118 -398t-322 -140
t-322 138t-118 398t121 396t319 136z" />
    <glyph glyph-name="oacute" unicode="&#xf3;" horiz-adv-x="1064"
d="M600 1492h195l-308 -320h-92zM524 940q-76 0 -136 -36t-92 -101q-60 -121 -59 -290q-1 -323 175 -407q52 -25 120 -25t120 25q95 45 136 154q40 109 40 213t-8 163t-30 116q-22 58 -54 98t-84 65t-128 25zM532 1044q198 0 319 -136t121 -394t-118 -398t-322 -140
t-322 138t-118 398t121 396t319 136z" />
    <glyph glyph-name="ocircumflex" unicode="&#xf4;" horiz-adv-x="1064"
d="M441 1492h195l175 -320h-92l-181 218l-180 -218h-92zM524 940q-76 0 -136 -36t-92 -101q-60 -121 -59 -290q-1 -323 175 -407q52 -25 120 -25t120 25q95 45 136 154q40 109 40 213t-8 163t-30 116q-22 58 -54 98t-84 65t-128 25zM532 1044q198 0 319 -136t121 -394
t-118 -398t-322 -140t-322 138t-118 398t121 396t319 136z" />
    <glyph glyph-name="otilde" unicode="&#xf5;" horiz-adv-x="1064"
d="M336 1200h-96q-2 15 -2 41q0 150 128 150q43 0 153 -46t131 -46q39 0 39 96h97q2 -24 2 -35q0 -82 -41 -120t-94 -38t-151 42t-119 44q-19 0 -33 -22t-14 -66zM524 940q-76 0 -136 -36t-92 -101q-60 -121 -59 -290q-1 -323 175 -407q52 -25 120 -25t120 25q95 45 136 154
q40 109 40 213t-8 163t-30 116q-22 58 -54 98t-84 65t-128 25zM532 1044q198 0 319 -136t121 -394t-118 -398t-322 -140t-322 138t-118 398t121 396t319 136z" />
    <glyph glyph-name="odieresis" unicode="&#xf6;" horiz-adv-x="1064"
d="M260 1365h166v-174h-166v174zM805 1365v-174h-166v174h166zM524 940q-76 0 -136 -36t-92 -101q-60 -121 -59 -290q-1 -323 175 -407q52 -25 120 -25t120 25q95 45 136 154q40 109 40 213t-8 163t-30 116q-22 58 -54 98t-84 65t-128 25zM532 1044q198 0 319 -136t121 -394
t-118 -398t-322 -140t-322 138t-118 398t121 396t319 136z" />
    <glyph glyph-name="divide" unicode="&#xf7;" horiz-adv-x="1024"
d="M850 551h-750v98h750v-98zM392 1024h173v-216h-173v216zM565 385v-214h-173v214h173z" />
    <glyph glyph-name="oslash" unicode="&#xf8;" horiz-adv-x="1064"
d="M972 513q0 -258 -118.5 -397.5t-321.5 -139.5q-100 0 -180 34l-98 -207l-73 38l99 209q-188 137 -188 460q0 262 121 398t320 136q112 0 199 -43l102 215l72 -38l-105 -222q171 -138 171 -443zM528 81q72 0 186 54.5t114 375.5q0 216 -83 327l-345 -726q56 -31 128 -31z
M534 940q-171 0 -234 -129t-63 -298q0 -240 97 -349l349 734q-63 42 -149 42z" />
    <glyph glyph-name="ugrave" unicode="&#xf9;" horiz-adv-x="1127"
d="M233 1492h195l205 -319l-94 -1zM813 436v587h142v-1023h-138v192q-41 -106 -143 -161t-192 -55t-142 16t-86 40t-60 62q-46 69 -60 154q-13 85 -13 188v587h142v-617q0 -158 49 -238t171 -81q205 -1 289 173q40 84 41 176z" />
    <glyph glyph-name="uacute" unicode="&#xfa;" horiz-adv-x="1127"
d="M611 1492h195l-308 -320h-92zM813 436v587h142v-1023h-138v192q-41 -106 -143 -161t-192 -55t-142 16t-86 40t-60 62q-46 69 -60 154q-13 85 -13 188v587h142v-617q0 -158 49 -238t171 -81q205 -1 289 173q40 84 41 176z" />
    <glyph glyph-name="ucircumflex" unicode="&#xfb;" horiz-adv-x="1127"
d="M458 1492h195l175 -320h-92l-181 218l-180 -218h-92zM813 436v587h142v-1023h-138v192q-41 -106 -143 -161t-192 -55t-142 16t-86 40t-60 62q-46 69 -60 154q-13 85 -13 188v587h142v-617q0 -158 49 -238t171 -81q205 -1 289 173q40 84 41 176z" />
    <glyph glyph-name="udieresis" unicode="&#xfc;" horiz-adv-x="1127"
d="M813 436v587h142v-1023h-138v192q-41 -106 -143 -161t-192 -55t-142 16t-86 40t-60 62q-46 69 -60 154q-13 85 -13 188v587h142v-617q0 -158 49 -238t171 -81q205 -1 289 173q40 84 41 176zM266 1365h166v-174h-166v174zM811 1365v-174h-166v174h166z" />
    <glyph glyph-name="yacute" unicode="&#xfd;" horiz-adv-x="985"
d="M541 1492h195l-308 -320h-92zM176 -320q-60 0 -112 14l15 113q46 -7 88 -7q169 0 236 197l23 67l-392 959h146l57 -147q57 -146 137 -351t124 -314q86 224 317 812h140q-69 -175 -199 -496t-168 -421q-40 -100 -66 -156t-64 -114t-76 -88t-92 -49t-114 -19z" />
    <glyph glyph-name="thorn" unicode="&#xfe;" horiz-adv-x="1058"
d="M822 519q0 206 -77 315t-189 109t-197.5 -114.5t-85.5 -309.5q0 -438 286 -438q124 0 193.5 116t69.5 322zM272 1464v-590q99 170 301 170q290 0 342 -206t52 -320q0 -233 -96.5 -386.5t-290.5 -155.5q-104 0 -183.5 46t-123.5 132v-532l-142 -16v1858h141z" />
    <glyph glyph-name="ydieresis" unicode="&#xff;" horiz-adv-x="985"
d="M218 1365h166v-174h-166v174zM763 1365v-174h-166v174h166zM176 -320q-60 0 -112 14l15 113q46 -7 88 -7q169 0 236 197l23 67l-392 959h146l57 -147q57 -146 137 -351t124 -314q86 224 317 812h140q-69 -175 -199 -496t-168 -421q-40 -100 -66 -156t-64 -114t-76 -88
t-92 -49t-114 -19z" />
    <glyph glyph-name="Amacron" unicode="&#x100;" horiz-adv-x="1218"
d="M382 1660v110h454v-110h-454zM603 1362q-15 -46 -49 -158t-51 -164l-169 -532h540l-170 533q-58 180 -101 321zM26 0l486 1464h192l488 -1464h-150l-134 399h-608l-128 -399h-146z" />
    <glyph glyph-name="amacron" unicode="&#x101;" horiz-adv-x="1025"
d="M286 1219v110h454v-110h-454zM504 935q-184 0 -287 -128q0 1 -85 81q123 156 380 156q376 0 376 -371v-673h-117l-17 116q-171 -140 -365 -140q-127 0 -213 70t-86 183q0 111 55 187q35 48 134 89q99 40 368 81l99 15v42q0 167 -55 229t-187 63zM224 265q0 -192 190 -192
q159 0 332 146v286l-98 -15q-246 -37 -320 -74t-93 -86q-11 -28 -11 -65z" />
    <glyph glyph-name="Abreve" unicode="&#x102;" horiz-adv-x="1218"
d="M609 1728q160 0 160 151h116q-3 -121 -84 -188t-192 -67t-192 67t-84 188h116q0 -151 160 -151zM603 1362q-15 -46 -49 -158t-51 -164l-169 -532h540l-170 533q-58 180 -101 321zM26 0l486 1464h192l488 -1464h-150l-134 399h-608l-128 -399h-146z" />
    <glyph glyph-name="abreve" unicode="&#x103;" horiz-adv-x="1025"
d="M513 1287q160 0 160 151h116q-3 -121 -84 -188t-192 -67t-192 67t-84 188h116q0 -151 160 -151zM504 935q-184 0 -287 -128q0 1 -85 81q123 156 380 156q376 0 376 -371v-673h-117l-17 116q-171 -140 -365 -140q-127 0 -213 70t-86 183q0 111 55 187q35 48 134 89
q99 40 368 81l99 15v42q0 167 -55 229t-187 63zM224 265q0 -192 190 -192q159 0 332 146v286l-98 -15q-246 -37 -320 -74t-93 -86q-11 -28 -11 -65z" />
    <glyph glyph-name="Aogonek" unicode="&#x104;" horiz-adv-x="1218"
d="M603 1362q-15 -46 -49 -158t-51 -164l-169 -532h540l-170 533q-58 180 -101 321zM1041 -218q0 -64 73 -65q13 0 35 5v-83q-33 -8 -87 -8t-98 37t-44 95t44 133t83 104h-5l-134 399h-608l-128 -399h-146l486 1464h192l488 -1464h-74q-77 -154 -77 -218z" />
    <glyph glyph-name="aogonek" unicode="&#x105;" horiz-adv-x="1025"
d="M224 265q0 -192 190 -192q159 0 332 146v286l-98 -15q-246 -37 -320 -74t-93 -86q-11 -28 -11 -65zM771 -218q0 -64 73 -65q13 0 35 5v-83q-33 -8 -87 -8t-98 37t-44 95t44 133t83 104h71q-77 -154 -77 -218zM504 935q-184 0 -287 -128q0 1 -85 81q123 156 380 156
q376 0 376 -371v-673h-117l-17 116q-171 -140 -365 -140q-127 0 -213 70t-86 183q0 111 55 187q35 48 134 89q99 40 368 81l99 15v42q0 167 -55 229t-187 63z" />
    <glyph glyph-name="Cacute" unicode="&#x106;" horiz-adv-x="1338"
d="M805 1933h195l-308 -320h-92zM738 1491q198 -1 338 -99t193 -290l-134 -31q-36 139 -136 221t-266 82q-249 0 -357 -162t-109 -474q1 -404 147 -542q110 -103 322 -103q311 0 413 284l125 -39q-60 -181 -204 -272t-342 -91q-310 -1 -462 181t-152 575t163 577t461 183z
" />
    <glyph glyph-name="cacute" unicode="&#x107;" horiz-adv-x="979"
d="M92 509q0 328 200 465q102 70 246 70q214 0 314 -161q40 -63 59 -150l-119 -32q-32 123 -92 181t-156 58q-154 0 -230 -114t-77 -314q1 -312 161 -400q58 -32 133 -31q199 0 268 235l109 -34q-51 -230 -260 -290q-58 -16 -120 -16q-212 0 -324 146t-112 387zM635 1492
h195l-308 -320h-92z" />
    <glyph glyph-name="Ccircumflex" unicode="&#x108;" horiz-adv-x="1338"
d="M616 1933h195l175 -320h-92l-181 218l-180 -218h-92zM738 1491q198 -1 338 -99t193 -290l-134 -31q-36 139 -136 221t-266 82q-249 0 -357 -162t-109 -474q1 -404 147 -542q110 -103 322 -103q311 0 413 284l125 -39q-60 -181 -204 -272t-342 -91q-310 -1 -462 181
t-152 575t163 577t461 183z" />
    <glyph glyph-name="ccircumflex" unicode="&#x109;" horiz-adv-x="979"
d="M439 1492h195l175 -320h-92l-181 218l-180 -218h-92zM92 509q0 328 200 465q102 70 246 70q214 0 314 -161q40 -63 59 -150l-119 -32q-32 123 -92 181t-156 58q-154 0 -230 -114t-77 -314q1 -312 161 -400q58 -32 133 -31q199 0 268 235l109 -34q-51 -230 -260 -290
q-58 -16 -120 -16q-212 0 -324 146t-112 387z" />
    <glyph glyph-name="Cdotaccent" unicode="&#x10a;" horiz-adv-x="1338"
d="M732 1593q-48 1 -78 19q-54 35 -54 95q0 61 32 98t90 37t90 -37t32 -87t-32 -88q-32 -37 -80 -37zM738 1491q198 -1 338 -99t193 -290l-134 -31q-36 139 -136 221t-266 82q-249 0 -357 -162t-109 -474q1 -404 147 -542q110 -103 322 -103q311 0 413 284l125 -39
q-60 -181 -204 -272t-342 -91q-310 -1 -462 181t-152 575t163 577t461 183z" />
    <glyph glyph-name="cdotaccent" unicode="&#x10b;" horiz-adv-x="979"
d="M538 1166q-48 0 -78 18q-54 35 -54 96t32 98t90 37t90 -37q32 -38 32 -88t-32 -87t-80 -37zM92 509q0 328 200 465q102 70 246 70q214 0 314 -161q40 -63 59 -150l-119 -32q-32 123 -92 181t-156 58q-154 0 -230 -114t-77 -314q1 -312 161 -400q58 -32 133 -31
q199 0 268 235l109 -34q-51 -230 -260 -290q-58 -16 -120 -16q-212 0 -324 146t-112 387z" />
    <glyph glyph-name="Ccaron" unicode="&#x10c;" horiz-adv-x="1338"
d="M823 1613h-195l-145 320h92l150 -228l151 228h92zM738 1491q198 -1 338 -99t193 -290l-134 -31q-36 139 -136 221t-266 82q-249 0 -357 -162t-109 -474q1 -404 147 -542q110 -103 322 -103q311 0 413 284l125 -39q-60 -181 -204 -272t-342 -91q-310 -1 -462 181t-152 575
t163 577t461 183z" />
    <glyph glyph-name="ccaron" unicode="&#x10d;" horiz-adv-x="979"
d="M630 1172h-195l-145 320h92l150 -228l151 228h92zM92 509q0 328 200 465q102 70 246 70q214 0 314 -161q40 -63 59 -150l-119 -32q-32 123 -92 181t-156 58q-154 0 -230 -114t-77 -314q1 -312 161 -400q58 -32 133 -31q199 0 268 235l109 -34q-51 -230 -260 -290
q-58 -16 -120 -16q-212 0 -324 146t-112 387z" />
    <glyph glyph-name="Dcaron" unicode="&#x10e;" horiz-adv-x="1400"
d="M778 1613h-195l-145 320h92l150 -228l151 228h92zM148 1464h504q316 0 475 -163q160 -163 160 -563q1 -519 -279 -665q-140 -73 -363 -73h-497v1464zM653 1350h-359v-1236h303q155 0 259 34t168 110q64 77 92 192t28 278q0 164 -23 272t-78 190q-108 160 -390 160z" />
    <glyph glyph-name="dcaron" unicode="&#x10f;" horiz-adv-x="1059"
d="M504 81q159 0 226 105q68 105 68 313q0 271 -125 381q-68 60 -171 60q-127 0 -197 -120t-70 -314q0 -192 72 -308t197 -117zM90 508q0 244 102 390t290 146q229 0 310 -181v611h143v-1474h-114l-19 172q-38 -90 -124 -143t-192 -53q-184 0 -290 144t-106 388zM1122 1474
h200v-85q-5 -153 -19 -212q-27 -114 -118 -176l-49 62q26 21 52 75t28 133l-94 13v190z" />
    <glyph glyph-name="Dcroat" unicode="&#x110;" horiz-adv-x="1391"
d="M645 1350h-359v-562h264v-86h-264v-588h303q155 0 257 34t166 110q63 78 89 192t26 262t-13 240q-28 202 -138 300q-109 98 -331 98zM0 702v86h140v676h504q158 0 272 -38t195 -122q159 -166 159 -564q0 -400 -150 -570t-483 -170h-497v702h-140z" />
    <glyph glyph-name="dcroat" unicode="&#x111;" horiz-adv-x="1024"
d="M506 81q159 0 226.5 105t67.5 313q0 323 -106 382t-190 59q-126 0 -194 -118.5t-68 -312.5t70 -311t194 -117zM96 508q0 246 100.5 391t287.5 145q112 0 194 -45.5t116 -135.5v333h-290v86h290v192h143v-192h87v-86h-87v-1196h-114l-19 172q-39 -90 -124.5 -143
t-191.5 -53q-184 0 -288 143t-104 389z" />
    <glyph glyph-name="Emacron" unicode="&#x112;" horiz-adv-x="1143"
d="M415 1660v110h454v-110h-454zM1128 0h-980v1464h969v-112h-823v-514h716v-115h-716v-610h834v-113z" />
    <glyph glyph-name="emacron" unicode="&#x113;"
d="M299 1219v110h454v-110h-454zM802 597q-2 344 -274 344q-193 0 -262 -211q-20 -61 -26 -133h562zM537 -24q-113 0 -201 44t-140 120q-104 150 -104 380q0 232 116 378t324 146q302 0 383 -290q24 -86 24 -155t-3 -95h-699q0 -177 71 -300t229 -123q201 0 258 177l110 -24
q-23 -84 -81 -144q-109 -111 -283 -114h-4z" />
    <glyph glyph-name="Eogonek" unicode="&#x118;" horiz-adv-x="1143"
d="M921 -218q0 -64 73 -65q13 0 35 5v-83q-33 -8 -87 -8t-98 37t-44 95t44 133t83 104h-779v1464h969v-112h-823v-514h716v-115h-716v-610h834v-113h-130q-77 -154 -77 -218z" />
    <glyph glyph-name="eogonek" unicode="&#x119;"
d="M802 597q-2 344 -274 344q-193 0 -262 -211q-20 -61 -26 -133h562zM598 -219q0 -64 73 -64q13 0 35 5v-83q-32 -8 -86 -8t-99 37q-44 37 -44 95t37 122t65 93q-19 -2 -38 -2h-4q-113 0 -201 44t-140 120q-104 150 -104 380q0 232 116 378t324 146q302 0 383 -290
q24 -86 24 -155t-3 -95h-699q0 -177 71 -300t229 -123q201 0 258 177l110 -24q-23 -85 -84 -148t-148 -90q-11 -24 -18 -39t-15 -33t-12 -28t-9 -24q-21 -53 -21 -91z" />
    <glyph glyph-name="Ecaron" unicode="&#x11a;" horiz-adv-x="1143"
d="M743 1613h-195l-145 320h92l150 -228l151 228h92zM1128 0h-980v1464h969v-112h-823v-514h716v-115h-716v-610h834v-113z" />
    <glyph glyph-name="ecaron" unicode="&#x11b;"
d="M625 1172h-195l-145 320h92l150 -228l151 228h92zM802 597q-2 344 -274 344q-193 0 -262 -211q-20 -61 -26 -133h562zM537 -24q-113 0 -201 44t-140 120q-104 150 -104 380q0 232 116 378t324 146q302 0 383 -290q24 -86 24 -155t-3 -95h-699q0 -177 71 -300t229 -123
q201 0 258 177l110 -24q-23 -84 -81 -144q-109 -111 -283 -114h-4z" />
    <glyph glyph-name="Gcircumflex" unicode="&#x11c;" horiz-adv-x="1374"
d="M619 1933h195l175 -320h-92l-181 218l-180 -218h-92zM750 1491q158 -1 291 -87t195 -254l-122 -54q-103 278 -380 278q-245 0 -356 -162t-111 -491q0 -476 239 -587q88 -41 183 -41q95 -1 161 21t123 64q59 42 95 110q36 70 36 156v220h-372v125h516v-208l-10 -581h-93
l-32 191q-57 -95 -167 -155t-245 -60q-587 0 -587 746q0 584 365 726q113 44 271 43z" />
    <glyph glyph-name="gcircumflex" unicode="&#x11d;" horiz-adv-x="1077"
d="M447 1492h195l175 -320h-92l-181 218l-180 -218h-92zM527 -429q-266 0 -363 162l83 79q82 -132 287 -132q144 0 214 91t70 257v102q-118 -154 -312 -154t-303 152t-109 398q0 315 184 450q93 68 224 68q199 0 327 -153l8 132h114v-1003q1 -199 -109 -324t-315 -125z
M818 543q0 267 -146 355q-69 42 -148 42q-153 0 -220 -123q-68 -123 -68 -312q0 -190 74 -307t203 -117q305 0 305 428v34z" />
    <glyph glyph-name="Gbreve" unicode="&#x11e;" horiz-adv-x="1374"
d="M708 1728q160 0 160 151h116q-3 -121 -84 -188t-192 -67t-192 67t-84 188h116q0 -151 160 -151zM750 1491q158 -1 291 -87t195 -254l-122 -54q-103 278 -380 278q-245 0 -356 -162t-111 -491q0 -476 239 -587q88 -41 183 -41q95 -1 161 21t123 64q59 42 95 110
q36 70 36 156v220h-372v125h516v-208l-10 -581h-93l-32 191q-57 -95 -167 -155t-245 -60q-587 0 -587 746q0 584 365 726q113 44 271 43z" />
    <glyph glyph-name="gbreve" unicode="&#x11f;" horiz-adv-x="1077"
d="M527 -429q-266 0 -363 162l83 79q82 -132 287 -132q144 0 214 91t70 257v102q-118 -154 -312 -154t-303 152t-109 398q0 315 184 450q93 68 224 68q199 0 327 -153l8 132h114v-1003q1 -199 -109 -324t-315 -125zM818 543q0 267 -146 355q-69 42 -148 42q-153 0 -220 -123
q-68 -123 -68 -312q0 -190 74 -307t203 -117q305 0 305 428v34zM539 1287q160 0 160 151h116q-3 -121 -84 -188t-192 -67t-192 67t-84 188h116q0 -151 160 -151z" />
    <glyph glyph-name="Gdotaccent" unicode="&#x120;" horiz-adv-x="1374"
d="M728 1593q-48 1 -76 19q-54 35 -55 95q0 61 32 98t90 37t90 -37t32 -87t-32 -88q-33 -37 -81 -37zM750 1491q158 -1 291 -87t195 -254l-122 -54q-103 278 -380 278q-245 0 -356 -162t-111 -491q0 -476 239 -587q88 -41 183 -41q95 -1 161 21t123 64q59 42 95 110
q36 70 36 156v220h-372v125h516v-208l-10 -581h-93l-32 191q-57 -95 -167 -155t-245 -60q-587 0 -587 746q0 584 365 726q113 44 271 43z" />
    <glyph glyph-name="gdotaccent" unicode="&#x121;" horiz-adv-x="1077"
d="M534 1152q-48 0 -78 18q-54 35 -54 96t32 98t90 37t90 -37q32 -38 32 -88t-32 -87t-80 -37zM527 -429q-266 0 -363 162l83 79q82 -132 287 -132q144 0 214 91t70 257v102q-118 -154 -312 -154t-303 152t-109 398q0 315 184 450q93 68 224 68q199 0 327 -153l8 132h114
v-1003q1 -199 -109 -324t-315 -125zM818 543q0 267 -146 355q-69 42 -148 42q-153 0 -220 -123q-68 -123 -68 -312q0 -190 74 -307t203 -117q305 0 305 428v34z" />
    <glyph glyph-name="uni0122" unicode="&#x122;" horiz-adv-x="1374"
d="M598 -100h200v-85q-5 -153 -19 -212q-27 -114 -118 -176l-49 62q26 20 52 79t28 139h-94v193zM750 1491q158 -1 291 -87t195 -254l-122 -54q-103 278 -380 278q-245 0 -356 -162t-111 -491q0 -476 239 -587q88 -41 183 -41q95 -1 161 21t123 64q59 42 95 110
q36 70 36 156v220h-372v125h516v-208l-10 -581h-93l-32 191q-57 -95 -167 -155t-245 -60q-587 0 -587 746q0 584 365 726q113 44 271 43z" />
    <glyph glyph-name="uni0123" unicode="&#x123;" horiz-adv-x="1077"
d="M527 -429q-266 0 -363 162l83 79q82 -132 287 -132q144 0 214 91t70 257v102q-118 -154 -312 -154t-303 152t-109 398q0 315 184 450q93 68 224 68q199 0 327 -153l8 132h114v-1003q1 -199 -109 -324t-315 -125zM818 543q0 267 -146 355q-69 42 -148 42q-153 0 -220 -123
q-68 -123 -68 -312q0 -190 74 -307t203 -117q305 0 305 428v34zM625 1123h-200v85q5 153 19 212q27 114 118 176l49 -62q-26 -20 -52 -79t-28 -139h94v-193z" />
    <glyph glyph-name="hcircumflex" unicode="&#x125;" horiz-adv-x="1106"
d="M602 940q-209 0 -269.5 -149.5t-60.5 -307.5v-483h-142v1473h142v-611q117 182 351 182q331 0 344 -206t13 -255v-583h-142v594q0 171 -52.5 258.5t-183.5 87.5zM557 1823h135l165 -320h-92l-140 228l-151 -228h-92z" />
    <glyph glyph-name="Hbar" unicode="&#x126;" horiz-adv-x="1457"
d="M1164 1144h-870v-308h870v308zM48 1144v86h100v234h146v-234h870v234h145v-234h91v-86h-91v-1144h-145v720h-870v-720h-146v1144h-100z" />
    <glyph glyph-name="hbar" unicode="&#x127;" horiz-adv-x="1117"
d="M-1 1205v94h141v174h143v-174h267v-94h-267v-152q0 -128 -1 -191q117 182 352 182q331 0 344 -206t13 -255v-583h-142v594q0 171 -52.5 258.5t-183.5 87.5q-209 0 -269.5 -149.5t-60.5 -307.5v-483h-143v1205h-141z" />
    <glyph glyph-name="Itilde" unicode="&#x128;" horiz-adv-x="464"
d="M55 1641h-96q-2 15 -2 41q0 150 128 150q43 0 153 -46t131 -46q39 0 39 96h97q2 -24 2 -35q0 -82 -41 -120t-94 -38q-54 1 -152 43t-118 42t-34 -22t-13 -65zM309 0h-146v1464h146v-1464z" />
    <glyph glyph-name="itilde" unicode="&#x129;" horiz-adv-x="411"
d="M29 1200h-96q-2 15 -2 41q0 150 128 150q43 0 153 -46t131 -46q39 0 39 96h97q2 -24 2 -35q0 -82 -41 -120t-94 -38q-54 0 -152 42t-118 44q-20 0 -34 -22t-13 -66zM140 0v1023h142v-1023h-142z" />
    <glyph glyph-name="Imacron" unicode="&#x12a;" horiz-adv-x="464"
d="M5 1660v110h454v-110h-454zM309 0h-146v1464h146v-1464z" />
    <glyph glyph-name="imacron" unicode="&#x12b;" horiz-adv-x="411"
d="M-21 1219v110h454v-110h-454zM140 0v1023h142v-1023h-142z" />
    <glyph glyph-name="Ibreve" unicode="&#x12c;" horiz-adv-x="464"
d="M232 1728q160 0 160 151h116q-3 -121 -84 -188t-192 -67t-192 67t-84 188h116q0 -151 160 -151zM309 0h-146v1464h146v-1464z" />
    <glyph glyph-name="ibreve" unicode="&#x12d;" horiz-adv-x="411"
d="M140 0v1023h142v-1023h-142zM206 1287q160 0 160 151h116q-3 -121 -84 -188t-192 -67t-192 67t-84 188h116q0 -151 160 -151z" />
    <glyph glyph-name="Iogonek" unicode="&#x12e;" horiz-adv-x="464"
d="M187 -218q0 -64 73 -65q13 0 35 5v-83q-33 -8 -87 -8t-98 37t-44 95t44 133t83 104h-30v1464h146v-1464h-45q-77 -154 -77 -218z" />
    <glyph glyph-name="iogonek" unicode="&#x12f;" horiz-adv-x="401"
d="M164 -207q0 -64 73 -64q13 0 35 5v-83q-32 -8 -86 -8t-99 37q-44 37 -44 95t40 126t72 99h-18v1023h142v-1023h-44q-71 -153 -71 -207zM135 1242v179h141v-179h-141z" />
    <glyph glyph-name="Idotaccent" unicode="&#x130;" horiz-adv-x="464"
d="M242 1613q-48 1 -78 19q-54 35 -54 95q0 61 32 98t90 37t90 -37t32 -87t-32 -88q-32 -37 -80 -37zM309 0h-146v1464h146v-1464z" />
    <glyph glyph-name="dotlessi" unicode="&#x131;" horiz-adv-x="411"
d="M140 0v1023h142v-1023h-142z" />
    <glyph glyph-name="IJ" unicode="&#x132;" horiz-adv-x="1418"
d="M1137 541v923h145v-920q0 -294 -92 -432t-321 -137q-313 0 -384 359l130 35q31 -138 91 -207t177 -69t172 67q56 67 69 160t13 221zM309 0h-146v1464h146v-1464z" />
    <glyph glyph-name="ij" unicode="&#x133;" horiz-adv-x="883"
d="M617 1242v179h141v-179h-141zM615 -91v1114h142v-1035q0 -160 -30 -218q-30 -57 -74 -76q-43 -19 -125 -19t-152 41l24 107q84 -31 125 -31q90 0 90 117zM137 0v1023h142v-1023h-142zM135 1242v179h141v-179h-141z" />
    <glyph glyph-name="Jcircumflex" unicode="&#x134;" horiz-adv-x="954"
d="M398 1933h195l175 -320h-92l-181 218l-180 -218h-92zM673 541v923h145v-920q0 -294 -92 -432t-321 -137q-313 0 -384 359l130 35q31 -138 91 -207t177 -69t172 67q56 67 69 160t13 221z" />
    <glyph glyph-name="jcircumflex" unicode="&#x135;" horiz-adv-x="530"
d="M262 -87v1110h142v-1035q0 -160 -30 -218q-30 -57 -74 -76t-118 -19t-149 44l24 90q62 -23 109 -23q96 0 96 127zM233 1466h195l175 -320h-92l-181 218l-180 -218h-92z" />
    <glyph glyph-name="uni0136" unicode="&#x136;" horiz-adv-x="1252"
d="M542 -100h200v-85q-5 -153 -19 -212q-27 -114 -118 -176l-49 62q26 20 52 79t28 139h-94v193zM294 0h-146v1466h146v-740l709 740h177l-515 -540l579 -926h-167l-515 828l-268 -275v-553z" />
    <glyph glyph-name="uni0137" unicode="&#x137;" horiz-adv-x="1008"
d="M272 0h-142v1477h141v-966l526 512h162l-381 -372l440 -651h-160l-373 565l-213 -196v-369zM402 -100h200v-85q-5 -153 -19 -212q-27 -114 -118 -176l-49 62q26 20 52 79t28 139h-94v193z" />
    <glyph glyph-name="kgreenlandic" unicode="&#x138;" horiz-adv-x="1010"
d="M272 0h-142v1024h141v-578l526 577h162l-360 -402l419 -621h-160l-354 544l-232 -245v-299z" />
    <glyph glyph-name="Lacute" unicode="&#x139;"
d="M515 1933h195l-308 -320h-92zM1041 0h-893v1464h146v-1351h747v-113z" />
    <glyph glyph-name="lacute" unicode="&#x13a;" horiz-adv-x="406"
d="M134 0v1474h142v-1474h-142zM363 1874h195l-308 -320h-92z" />
    <glyph glyph-name="uni013B" unicode="&#x13b;"
d="M499 -100h200v-85q-5 -153 -19 -212q-27 -114 -118 -176l-49 62q26 20 52 79t28 139h-94v193zM1041 0h-893v1464h146v-1351h747v-113z" />
    <glyph glyph-name="uni013C" unicode="&#x13c;" horiz-adv-x="406"
d="M134 0v1474h142v-1474h-142zM101 -100h200v-85q-5 -153 -19 -212q-27 -114 -118 -176l-49 62q26 20 52 79t28 139h-94v193z" />
    <glyph glyph-name="Lcaron" unicode="&#x13d;"
d="M769 1491h200v-85q-5 -153 -19 -212q-27 -114 -118 -176l-49 62q27 20 53 74t27 134l-94 13v190zM1041 0h-893v1464h146v-1351h747v-113z" />
    <glyph glyph-name="lcaron" unicode="&#x13e;" horiz-adv-x="406"
d="M417 1474h200v-85q-5 -153 -19 -212q-27 -114 -118 -176l-49 62q27 21 53 75t27 133l-94 13v190zM134 0v1474h142v-1474h-142z" />
    <glyph glyph-name="Ldot" unicode="&#x13f;"
d="M750 853h164v-215h-164v215zM1041 0h-893v1464h146v-1351h747v-113z" />
    <glyph glyph-name="ldot" unicode="&#x140;" horiz-adv-x="406"
d="M548 758h164v-215h-164v215zM134 0v1474h142v-1474h-142z" />
    <glyph glyph-name="Lslash" unicode="&#x141;" horiz-adv-x="1055"
d="M140 1464h146v-551l246 111v-126l-246 -111v-674h747v-113h-893v721l-141 -63v126l141 63v617z" />
    <glyph glyph-name="lslash" unicode="&#x142;" horiz-adv-x="421"
d="M140 1474h143v-525l165 85v-135l-165 -85v-815h-143v745l-166 -92v135l166 92v595z" />
    <glyph glyph-name="Nacute" unicode="&#x143;" horiz-adv-x="1491"
d="M751 1933h195l-308 -320h-92zM148 0v1464h163l903 -1243v1243h129v-1464h-132l-930 1290v-1290h-133z" />
    <glyph glyph-name="nacute" unicode="&#x144;" horiz-adv-x="1085"
d="M670 1492h195l-308 -320h-92zM127 0v1023h138v-193q53 154 253 202q52 12 108 12t104 -11t83 -33q34 -22 60 -46q26 -26 42 -63q34 -79 42 -150t8 -157v-584h-142v603q0 200 -59 263q-59 64 -148 64q-90 0 -148 -22q-110 -41 -155 -149q-44 -107 -44 -260v-499h-142z" />
    <glyph glyph-name="uni0145" unicode="&#x145;" horiz-adv-x="1491"
d="M676 -100h200v-85q-5 -153 -19 -212q-27 -114 -118 -176l-49 62q26 20 52 79t28 139h-94v193zM148 0v1464h163l903 -1243v1243h129v-1464h-132l-930 1290v-1290h-133z" />
    <glyph glyph-name="uni0146" unicode="&#x146;" horiz-adv-x="1085"
d="M452 -100h200v-85q-5 -153 -19 -212q-27 -114 -118 -176l-49 62q26 20 52 79t28 139h-94v193zM127 0v1023h138v-193q53 154 253 202q52 12 108 12t104 -11t83 -33q34 -22 60 -46q26 -26 42 -63q34 -79 42 -150t8 -157v-584h-142v603q0 200 -59 263q-59 64 -148 64
q-90 0 -148 -22q-110 -41 -155 -149q-44 -107 -44 -260v-499h-142z" />
    <glyph glyph-name="Ncaron" unicode="&#x147;" horiz-adv-x="1491"
d="M861 1613h-195l-145 320h92l150 -228l151 228h92zM148 0v1464h163l903 -1243v1243h129v-1464h-132l-930 1290v-1290h-133z" />
    <glyph glyph-name="ncaron" unicode="&#x148;" horiz-adv-x="1085"
d="M703 1172h-195l-145 320h92l150 -228l151 228h92zM127 0v1023h138v-193q53 154 253 202q52 12 108 12t104 -11t83 -33q34 -22 60 -46q26 -26 42 -63q34 -79 42 -150t8 -157v-584h-142v603q0 200 -59 263q-59 64 -148 64q-90 0 -148 -22q-110 -41 -155 -149
q-44 -107 -44 -260v-499h-142z" />
    <glyph glyph-name="Omacron" unicode="&#x14c;" horiz-adv-x="1449"
d="M517 1660v110h454v-110h-454zM267 741q0 -337 104 -493q105 -156 353 -155q248 0 352 154t104 513q0 360 -144 504q-110 110 -314 110q-299 0 -396 -243q-59 -148 -59 -390zM1174 1316q161 -175 161 -575t-155 -583t-458 -183q-456 0 -568 412q-40 149 -40 351t42 348
t121 234q155 172 445 171q291 0 452 -175z" />
    <glyph glyph-name="omacron" unicode="&#x14d;" horiz-adv-x="1064"
d="M305 1219v110h454v-110h-454zM524 940q-76 0 -136 -36t-92 -101q-60 -121 -59 -290q-1 -323 175 -407q52 -25 120 -25t120 25q95 45 136 154q40 109 40 213t-8 163t-30 116q-22 58 -54 98t-84 65t-128 25zM532 1044q198 0 319 -136t121 -394t-118 -398t-322 -140
t-322 138t-118 398t121 396t319 136z" />
    <glyph glyph-name="Obreve" unicode="&#x14e;" horiz-adv-x="1449"
d="M725 1728q160 0 160 151h116q-3 -121 -84 -188t-192 -67t-192 67t-84 188h116q0 -151 160 -151zM267 741q0 -337 104 -493q105 -156 353 -155q248 0 352 154t104 513q0 360 -144 504q-110 110 -314 110q-299 0 -396 -243q-59 -148 -59 -390zM1174 1316q161 -175 161 -575
t-155 -583t-458 -183q-456 0 -568 412q-40 149 -40 351t42 348t121 234q155 172 445 171q291 0 452 -175z" />
    <glyph glyph-name="obreve" unicode="&#x14f;" horiz-adv-x="1064"
d="M532 1287q160 0 160 151h116q-3 -121 -84 -188t-192 -67t-192 67t-84 188h116q0 -151 160 -151zM524 940q-76 0 -136 -36t-92 -101q-60 -121 -59 -290q-1 -323 175 -407q52 -25 120 -25t120 25q95 45 136 154q40 109 40 213t-8 163t-30 116q-22 58 -54 98t-84 65t-128 25
zM532 1044q198 0 319 -136t121 -394t-118 -398t-322 -140t-322 138t-118 398t121 396t319 136z" />
    <glyph glyph-name="Ohungarumlaut" unicode="&#x150;" horiz-adv-x="1449"
d="M957 1933h195l-257 -320h-73zM659 1933h189l-228 -320h-66zM267 741q0 -337 104 -493q105 -156 353 -155q248 0 352 154t104 513q0 360 -144 504q-110 110 -314 110q-299 0 -396 -243q-59 -148 -59 -390zM1174 1316q161 -175 161 -575t-155 -583t-458 -183
q-456 0 -568 412q-40 149 -40 351t42 348t121 234q155 172 445 171q291 0 452 -175z" />
    <glyph glyph-name="ohungarumlaut" unicode="&#x151;" horiz-adv-x="1064"
d="M719 1492h195l-257 -320h-73zM421 1492h189l-228 -320h-66zM524 940q-76 0 -136 -36t-92 -101q-60 -121 -59 -290q-1 -323 175 -407q52 -25 120 -25t120 25q95 45 136 154q40 109 40 213t-8 163t-30 116q-22 58 -54 98t-84 65t-128 25zM532 1044q198 0 319 -136t121 -394
t-118 -398t-322 -140t-322 138t-118 398t121 396t319 136z" />
    <glyph glyph-name="OE" unicode="&#x152;" horiz-adv-x="2171"
d="M112 738q0 402 159 577.5t461 175.5t431 -203q1 64 0 176h947v-112h-800v-514h686v-115h-686v-610h811v-113h-957v180q-130 -205 -444 -205q-455 0 -531.5 280.5t-76.5 482.5zM673 1374q-252 0 -330 -195t-78 -438q0 -337 104 -492.5t354 -155.5t345.5 155.5t95.5 514.5
q0 360 -119.5 485.5t-371.5 125.5z" />
    <glyph glyph-name="oe" unicode="&#x153;" horiz-adv-x="1878"
d="M959 819q110 225 367 225q130 0 265 -96t135 -390q0 -22 -4 -58h-696q0 -316 118 -368t186 -52q104 0 172 67.5t106 169.5l96 -41q-38 -143 -139.5 -220.5t-232.5 -79.5q-265 0 -375 223q-53 -110 -147.5 -166.5t-218.5 -56.5q-201 0 -318 139t-117 399t119.5 395
t317.5 135q121 0 216.5 -57t149.5 -168zM1318 942q-135 0 -208.5 -96.5t-81.5 -253.5h561q-2 165 -69 257.5t-202 92.5zM591 940q-292 0 -292 -438q0 -164 63 -293t230 -129q227 0 259.5 172t32.5 258q0 173 -63.5 301.5t-229.5 128.5z" />
    <glyph glyph-name="Racute" unicode="&#x154;" horiz-adv-x="1295"
d="M653 1933h195l-308 -320h-92zM293 1356v-570h351q240 0 331 72q90 72 90 215q1 209 -171 259q-84 24 -226 24h-375zM1214 1075q0 -149 -78 -243t-238 -137l340 -695h-156l-332 673h-457v-673h-145v1464h529q285 0 411 -94t126 -295z" />
    <glyph glyph-name="racute" unicode="&#x155;" horiz-adv-x="577"
d="M444 1492h195l-308 -320h-92zM260 1023v-192q28 69 81 115q91 78 225 78v-129q-230 0 -286 -228q-16 -62 -16 -135v-532h-142v1023h138z" />
    <glyph glyph-name="uni0156" unicode="&#x156;" horiz-adv-x="1295"
d="M577 -100h200v-85q-5 -153 -19 -212q-27 -114 -118 -176l-49 62q26 20 52 79t28 139h-94v193zM293 1356v-570h351q240 0 331 72q90 72 90 215q1 209 -171 259q-84 24 -226 24h-375zM1214 1075q0 -149 -78 -243t-238 -137l340 -695h-156l-332 673h-457v-673h-145v1464h529
q285 0 411 -94t126 -295z" />
    <glyph glyph-name="uni0157" unicode="&#x157;" horiz-adv-x="577"
d="M118 -100h200v-85q-5 -153 -19 -212q-27 -114 -118 -176l-49 62q26 20 52 79t28 139h-94v193zM260 1023v-192q28 69 81 115q91 78 225 78v-129q-230 0 -286 -228q-16 -62 -16 -135v-532h-142v1023h138z" />
    <glyph glyph-name="Rcaron" unicode="&#x158;" horiz-adv-x="1295"
d="M745 1613h-195l-145 320h92l150 -228l151 228h92zM293 1356v-570h351q240 0 331 72q90 72 90 215q1 209 -171 259q-84 24 -226 24h-375zM1214 1075q0 -149 -78 -243t-238 -137l340 -695h-156l-332 673h-457v-673h-145v1464h529q285 0 411 -94t126 -295z" />
    <glyph glyph-name="rcaron" unicode="&#x159;" horiz-adv-x="577"
d="M412 1172h-195l-145 320h92l150 -228l151 228h92zM260 1023v-192q28 69 81 115q91 78 225 78v-129q-230 0 -286 -228q-16 -62 -16 -135v-532h-142v1023h138z" />
    <glyph glyph-name="Sacute" unicode="&#x15a;" horiz-adv-x="1216"
d="M715 1933h195l-308 -320h-92zM1019 1151q-121 213 -398 213q-139 0 -238 -58t-99 -178q0 -157 240 -236q40 -13 98 -32t108 -38q50 -18 93 -36t95 -44t84 -48q84 -59 120 -131t36 -170q0 -197 -148 -307t-394 -111q-247 0 -411 126q-129 99 -160 272l123 53
q89 -325 456 -325q193 1 299 91q82 70 82 196q0 64 -34 134q-12 24 -48 50t-57 40t-126 57q-105 42 -175 62q-178 62 -248 101q-186 103 -186 284q0 91 41 163q40 71 110 115q140 88 327 88t309 -59t209 -192z" />
    <glyph glyph-name="sacute" unicode="&#x15b;" horiz-adv-x="953"
d="M582 1492h195l-308 -320h-92zM488 937q-252 0 -252 -178q0 -120 178 -161q34 -8 87 -18q173 -32 261 -100t88 -206t-101 -218t-310 -80t-313 130q-40 50 -59 119l108 44q36 -98 100 -142t183 -44q263 0 263 176q0 95 -60 135t-248 79t-250 107q-61 68 -61 192t104 198
t258 74q152 0 238 -45t139 -153q-97 -55 -97 -56q-34 78 -95 112t-161 35z" />
    <glyph glyph-name="Scircumflex" unicode="&#x15c;" horiz-adv-x="1216"
d="M517 1933h195l175 -320h-92l-181 218l-180 -218h-92zM1019 1151q-121 213 -398 213q-139 0 -238 -58t-99 -178q0 -157 240 -236q40 -13 98 -32t108 -38q50 -18 93 -36t95 -44t84 -48q84 -59 120 -131t36 -170q0 -197 -148 -307t-394 -111q-247 0 -411 126
q-129 99 -160 272l123 53q89 -325 456 -325q193 1 299 91q82 70 82 196q0 64 -34 134q-12 24 -48 50t-57 40t-126 57q-105 42 -175 62q-178 62 -248 101q-186 103 -186 284q0 91 41 163q40 71 110 115q140 88 327 88t309 -59t209 -192z" />
    <glyph glyph-name="scircumflex" unicode="&#x15d;" horiz-adv-x="953"
d="M392 1492h195l175 -320h-92l-181 218l-180 -218h-92zM488 937q-252 0 -252 -178q0 -120 178 -161q34 -8 87 -18q173 -32 261 -100t88 -206t-101 -218t-310 -80t-313 130q-40 50 -59 119l108 44q36 -98 100 -142t183 -44q263 0 263 176q0 95 -60 135t-248 79t-250 107
q-61 68 -61 192t104 198t258 74q152 0 238 -45t139 -153q-97 -55 -97 -56q-34 78 -95 112t-161 35z" />
    <glyph glyph-name="Scedilla" unicode="&#x15e;" horiz-adv-x="1216"
d="M1019 1151q-121 213 -398 213q-139 0 -238 -58t-99 -178q0 -157 240 -236q40 -13 98 -32t108 -38q50 -18 93 -36t95 -44t84 -48q84 -59 120 -131t36 -170q0 -197 -148 -307q-115 -86 -292 -106v-169q0 -81 -34 -141t-102 -60q-21 0 -42 9v65q30 -8 37 -8q22 0 31 31
t9 119h-99v155q-290 34 -414 234q-44 70 -59 158l123 53q89 -325 456 -325q193 1 299 91q82 70 82 196q0 64 -34 134q-12 24 -48 50t-57 40t-126 57q-105 42 -175 62q-178 62 -248 101q-186 103 -186 284q0 91 41 163q40 71 110 115q140 88 327 88t309 -59t209 -192z" />
    <glyph glyph-name="scedilla" unicode="&#x15f;" horiz-adv-x="953"
d="M850 286q0 -251 -268 -299v-176q0 -81 -34 -141t-102 -60q-21 0 -42 9v65q30 -8 37 -8q22 0 31 31t9 119h-99v153q-254 29 -315 246l108 44q36 -98 100 -142t183 -44q263 0 263 176q0 95 -60 135t-248 79t-250 107q-61 68 -61 192t104 198t258 74q152 0 238 -45t139 -153
q-97 -55 -97 -56q-34 78 -95 112t-161 35q-252 0 -252 -178q0 -120 178 -161q34 -8 87 -18q173 -32 261 -100t88 -194z" />
    <glyph glyph-name="Scaron" unicode="&#x160;" horiz-adv-x="1216"
d="M705 1613h-195l-145 320h92l150 -228l151 228h92zM1019 1151q-121 213 -398 213q-139 0 -238 -58t-99 -178q0 -157 240 -236q40 -13 98 -32t108 -38q50 -18 93 -36t95 -44t84 -48q84 -59 120 -131t36 -170q0 -197 -148 -307t-394 -111q-247 0 -411 126q-129 99 -160 272
l123 53q89 -325 456 -325q193 1 299 91q82 70 82 196q0 64 -34 134q-12 24 -48 50t-57 40t-126 57q-105 42 -175 62q-178 62 -248 101q-186 103 -186 284q0 91 41 163q40 71 110 115q140 88 327 88t309 -59t209 -192z" />
    <glyph glyph-name="scaron" unicode="&#x161;" horiz-adv-x="953"
d="M570 1172h-195l-145 320h92l150 -228l151 228h92zM488 937q-252 0 -252 -178q0 -120 178 -161q34 -8 87 -18q173 -32 261 -100t88 -206t-101 -218t-310 -80t-313 130q-40 50 -59 119l108 44q36 -98 100 -142t183 -44q263 0 263 176q0 95 -60 135t-248 79t-250 107
q-61 68 -61 192t104 198t258 74q152 0 238 -45t139 -153q-97 -55 -97 -56q-34 78 -95 112t-161 35z" />
    <glyph glyph-name="Tcaron" unicode="&#x164;" horiz-adv-x="1119"
d="M657 1613h-195l-145 320h92l150 -228l151 228h92zM9 1352v113h1101v-113h-474v-1352h-153v1352h-474z" />
    <glyph glyph-name="tcaron" unicode="&#x165;" horiz-adv-x="630"
d="M426 -16q-116 0 -176 80t-59 261v599h-153v99h162v327l133 37v-364h224v-99h-224v-663q0 -170 138 -170q46 0 123 34l24 -93q-76 -48 -192 -48zM617 1387h200v-85q-5 -153 -19 -212q-27 -114 -118 -176l-49 62q27 20 53 74t27 134l-94 13v190z" />
    <glyph glyph-name="Umacron" unicode="&#x16a;" horiz-adv-x="1346"
d="M446 1660v110h454v-110h-454zM123 574v890h160v-866q0 -191 35 -279t78 -130q44 -43 114 -67t166 -24t166 24q131 46 177 166q47 120 47 310v866h157v-883q0 -313 -135 -459q-134 -146 -414 -147t-416 143t-135 456z" />
    <glyph glyph-name="umacron" unicode="&#x16b;" horiz-adv-x="1127"
d="M311 1219v110h454v-110h-454zM813 436v587h142v-1023h-138v192q-41 -106 -143 -161t-192 -55t-142 16t-86 40t-60 62q-46 69 -60 154q-13 85 -13 188v587h142v-617q0 -158 49 -238t171 -81q205 -1 289 173q40 84 41 176z" />
    <glyph glyph-name="Ubreve" unicode="&#x16c;" horiz-adv-x="1346"
d="M673 1728q160 0 160 151h116q-3 -121 -84 -188t-192 -67t-192 67t-84 188h116q0 -151 160 -151zM123 574v890h160v-866q0 -191 35 -279t78 -130q44 -43 114 -67t166 -24t166 24q131 46 177 166q47 120 47 310v866h157v-883q0 -313 -135 -459q-134 -146 -414 -147
t-416 143t-135 456z" />
    <glyph glyph-name="ubreve" unicode="&#x16d;" horiz-adv-x="1127"
d="M813 436v587h142v-1023h-138v192q-41 -106 -143 -161t-192 -55t-142 16t-86 40t-60 62q-46 69 -60 154q-13 85 -13 188v587h142v-617q0 -158 49 -238t171 -81q205 -1 289 173q40 84 41 176zM561 1287q160 0 160 151h116q-3 -121 -84 -188t-192 -67t-192 67t-84 188h116
q0 -151 160 -151z" />
    <glyph glyph-name="Uring" unicode="&#x16e;" horiz-adv-x="1346"
d="M574 1817q0 -53 32 -93t91 -40t91 40t32 93q0 52 -32 92t-91 40t-91 -40t-32 -92zM699 2033q105 0 165 -64t60 -152t-60 -152t-166 -64t-164 63t-58 151t58 153t165 65zM123 574v890h160v-866q0 -191 35 -279t78 -130q44 -43 114 -67t166 -24t166 24q131 46 177 166
q47 120 47 310v866h157v-883q0 -313 -135 -459q-134 -146 -414 -147t-416 143t-135 456z" />
    <glyph glyph-name="uring" unicode="&#x16f;" horiz-adv-x="1127"
d="M435 1376q1 -52 33 -92t90 -41q58 1 90 41t33 92q-1 52 -33 92t-90 40t-90 -40t-33 -92zM560 1592q106 0 166 -64t59 -152q0 -88 -60 -152t-166 -64t-164 63t-58 151q1 88 59 153t164 65zM813 436v587h142v-1023h-138v192q-41 -106 -143 -161t-192 -55t-142 16t-86 40
t-60 62q-46 69 -60 154q-13 85 -13 188v587h142v-617q0 -158 49 -238t171 -81q205 -1 289 173q40 84 41 176z" />
    <glyph glyph-name="Uhungarumlaut" unicode="&#x170;" horiz-adv-x="1346"
d="M864 1933h195l-257 -320h-73zM566 1933h189l-228 -320h-66zM123 574v890h160v-866q0 -191 35 -279t78 -130q44 -43 114 -67t166 -24t166 24q131 46 177 166q47 120 47 310v866h157v-883q0 -313 -135 -459q-134 -146 -414 -147t-416 143t-135 456z" />
    <glyph glyph-name="uhungarumlaut" unicode="&#x171;" horiz-adv-x="1127"
d="M714 1492h195l-257 -320h-73zM416 1492h189l-228 -320h-66zM813 436v587h142v-1023h-138v192q-41 -106 -143 -161t-192 -55t-142 16t-86 40t-60 62q-46 69 -60 154q-13 85 -13 188v587h142v-617q0 -158 49 -238t171 -81q205 -1 289 173q40 84 41 176z" />
    <glyph glyph-name="Uogonek" unicode="&#x172;" horiz-adv-x="1346"
d="M123 574v890h160v-866q0 -191 35 -279t78 -130q44 -43 114 -67t166 -24t166 24q131 46 177 166q47 120 47 310v866h157v-883q0 -313 -129 -453t-376 -152q-8 -19 -12 -27q-4 -7 -12 -25t-12 -28t-9 -24q-21 -52 -21 -91q0 -64 73 -64q13 0 35 5v-83q-32 -8 -86 -8t-99 37
q-44 37 -44 95t36 121t64 92q-247 10 -377 148q-131 138 -131 450z" />
    <glyph glyph-name="uogonek" unicode="&#x173;" horiz-adv-x="1127"
d="M814 -218q0 -64 73 -65q13 0 35 5v-83q-32 -8 -86 -8t-99 37q-44 37 -44 95q-1 58 43 133t84 104h-3v192q-41 -106 -143 -161t-192 -55t-142 16t-86 40t-60 62q-46 69 -60 154q-13 85 -13 188v587h142v-617q0 -158 49 -238t171 -81q205 -1 289 173q40 84 41 176v587h142
v-1023h-64q-77 -154 -77 -218z" />
    <glyph glyph-name="Ydieresis" unicode="&#x178;" horiz-adv-x="1162"
d="M306 1806h166v-174h-166v174zM851 1806v-174h-166v174h166zM654 0h-146v549l-512 915h158l428 -782l427 782h157l-512 -916v-548z" />
    <glyph glyph-name="Zacute" unicode="&#x179;" horiz-adv-x="1176"
d="M709 1933h195l-308 -320h-92zM130 1356v108h1006v-81l-908 -1276h913l-7 -107h-1087v98l898 1258h-815z" />
    <glyph glyph-name="zacute" unicode="&#x17a;" horiz-adv-x="878"
d="M527 1492h195l-308 -320h-92zM86 919v104h750v-95l-609 -825h607v-103h-768v94l601 825h-581z" />
    <glyph glyph-name="Zdotaccent" unicode="&#x17b;" horiz-adv-x="1176"
d="M660 1593q-48 1 -78 19q-54 35 -54 95q0 61 32 98t90 37t90 -37t32 -87t-32 -88q-32 -37 -80 -37zM130 1356v108h1006v-81l-908 -1276h913l-7 -107h-1087v98l898 1258h-815z" />
    <glyph glyph-name="zdotaccent" unicode="&#x17c;" horiz-adv-x="878"
d="M510 1146q-48 0 -78 18q-54 35 -54 96t32 98t90 37t90 -37q32 -38 32 -88t-32 -87t-80 -37zM86 919v104h750v-95l-609 -825h607v-103h-768v94l601 825h-581z" />
    <glyph glyph-name="Zcaron" unicode="&#x17d;" horiz-adv-x="1176"
d="M745 1613h-195l-145 320h92l150 -228l151 228h92zM130 1356v108h1006v-81l-908 -1276h913l-7 -107h-1087v98l898 1258h-815z" />
    <glyph glyph-name="zcaron" unicode="&#x17e;" horiz-adv-x="878"
d="M581 1172h-195l-145 320h92l150 -228l151 228h92zM86 919v104h750v-95l-609 -825h607v-103h-768v94l601 825h-581z" />
    <glyph glyph-name="uni01C4" unicode="&#x1c4;" horiz-adv-x="2576"
d="M2145 1613h-195l-145 320h92l150 -228l151 228h92zM1530 1356v108h1006v-81l-908 -1276h913l-7 -107h-1087v98l898 1258h-815zM148 1464h504q316 0 475 -163q160 -163 160 -563q1 -519 -279 -665q-140 -73 -363 -73h-497v1464zM653 1350h-359v-1236h303q155 0 259 34
t168 110q64 77 92 192t28 278q0 164 -23 272t-78 190q-108 160 -390 160z" />
    <glyph glyph-name="uni01C5" unicode="&#x1c5;" horiz-adv-x="2278"
d="M1981 1172h-195l-145 320h92l150 -228l151 228h92zM1486 919v104h750v-95l-609 -825h607v-103h-768v94l601 825h-581zM148 1464h504q316 0 475 -163q160 -163 160 -563q1 -519 -279 -665q-140 -73 -363 -73h-497v1464zM653 1350h-359v-1236h303q155 0 259 34t168 110
q64 77 92 192t28 278q0 164 -23 272t-78 190q-108 160 -390 160z" />
    <glyph glyph-name="uni01C7" unicode="&#x1c7;" horiz-adv-x="1974"
d="M1693 541v923h145v-920q0 -294 -92 -432t-321 -137q-313 0 -384 359l130 35q31 -138 91 -207t177 -69t172 67q56 67 69 160t13 221zM1041 0h-893v1464h146v-1351h747v-113z" />
    <glyph glyph-name="uni01C8" unicode="&#x1c8;" horiz-adv-x="1502"
d="M1236 1242v179h141v-179h-141zM1234 -91v1114h142v-1035q0 -160 -30 -218q-30 -57 -74 -76t-126 -19t-151 41l24 107q84 -31 125 -31q90 0 90 117zM1041 0h-893v1464h146v-1351h747v-113z" />
    <glyph glyph-name="uni01CA" unicode="&#x1ca;" horiz-adv-x="2445"
d="M2164 541v923h145v-920q-1 -294 -93 -432t-320 -137q-313 0 -384 359l130 35q31 -138 91 -207t177 -69t172 67q56 67 69 160t13 221zM148 0v1464h163l903 -1243v1243h129v-1464h-132l-930 1290v-1290h-133z" />
    <glyph glyph-name="uni01CB" unicode="&#x1cb;" horiz-adv-x="1973"
d="M1707 1242v179h141v-179h-141zM1705 -91v1114h142v-1035q0 -160 -30 -218q-30 -57 -74 -76q-43 -19 -125 -19t-152 41l24 107q84 -31 125 -31q90 0 90 117zM148 0v1464h163l903 -1243v1243h129v-1464h-132l-930 1290v-1290h-133z" />
    <glyph glyph-name="uni01F1" unicode="&#x1f1;" horiz-adv-x="2576"
d="M1530 1356v108h1006v-81l-908 -1276h913l-7 -107h-1087v98l898 1258h-815zM148 1464h504q316 0 475 -163q160 -163 160 -563q1 -519 -279 -665q-140 -73 -363 -73h-497v1464zM653 1350h-359v-1236h303q155 0 259 34t168 110q64 77 92 192t28 278q0 164 -23 272t-78 190
q-108 160 -390 160z" />
    <glyph glyph-name="uni01F2" unicode="&#x1f2;" horiz-adv-x="2278"
d="M1486 919v104h750v-95l-609 -825h607v-103h-768v94l601 825h-581zM148 1464h504q316 0 475 -163q160 -163 160 -563q1 -519 -279 -665q-140 -73 -363 -73h-497v1464zM653 1350h-359v-1236h303q155 0 259 34t168 110q64 77 92 192t28 278q0 164 -23 272t-78 190
q-108 160 -390 160z" />
    <glyph glyph-name="uni01F4" unicode="&#x1f4;" horiz-adv-x="1374"
d="M794 1933h195l-308 -320h-92zM750 1491q158 -1 291 -87t195 -254l-122 -54q-103 278 -380 278q-245 0 -356 -162t-111 -491q0 -476 239 -587q88 -41 183 -41q95 -1 161 21t123 64q59 42 95 110q36 70 36 156v220h-372v125h516v-208l-10 -581h-93l-32 191
q-57 -95 -167 -155t-245 -60q-587 0 -587 746q0 584 365 726q113 44 271 43z" />
    <glyph glyph-name="uni01F5" unicode="&#x1f5;" horiz-adv-x="1077"
d="M630 1492h195l-308 -320h-92zM527 -429q-266 0 -363 162l83 79q82 -132 287 -132q144 0 214 91t70 257v102q-118 -154 -312 -154t-303 152t-109 398q0 315 184 450q93 68 224 68q199 0 327 -153l8 132h114v-1003q1 -199 -109 -324t-315 -125zM818 543q0 267 -146 355
q-69 42 -148 42q-153 0 -220 -123q-68 -123 -68 -312q0 -190 74 -307t203 -117q305 0 305 428v34z" />
    <glyph glyph-name="uni0200" unicode="&#x200;" horiz-adv-x="1218"
d="M511 1913h182l125 -320h-69zM213 1913h182l125 -320h-75zM603 1362q-15 -46 -49 -158t-51 -164l-169 -532h540l-170 533q-58 180 -101 321zM26 0l486 1464h192l488 -1464h-150l-134 399h-608l-128 -399h-146z" />
    <glyph glyph-name="uni0201" unicode="&#x201;" horiz-adv-x="1025"
d="M441 1464h182l125 -320h-69zM143 1464h182l125 -320h-75zM504 935q-184 0 -287 -128q0 1 -85 81q123 156 380 156q376 0 376 -371v-673h-117l-17 116q-171 -140 -365 -140q-127 0 -213 70t-86 183q0 111 55 187q35 48 134 89q99 40 368 81l99 15v42q0 167 -55 229
t-187 63zM224 265q0 -192 190 -192q159 0 332 146v286l-98 -15q-246 -37 -320 -74t-93 -86q-11 -28 -11 -65z" />
    <glyph glyph-name="uni0202" unicode="&#x202;" horiz-adv-x="1218"
d="M600 1866q111 0 192 -67t84 -188h-116q-2 73 -50 111t-110 38t-110 -38t-50 -111h-116q3 121 84 188t192 67zM603 1362q-15 -46 -49 -158t-51 -164l-169 -532h540l-170 533q-58 180 -101 321zM26 0l486 1464h192l488 -1464h-150l-134 399h-608l-128 -399h-146z" />
    <glyph glyph-name="uni0203" unicode="&#x203;" horiz-adv-x="1025"
d="M510 1401q111 0 192 -67t84 -188h-116q-2 72 -50 110t-110 39q-62 -1 -110 -39t-50 -110h-116q3 121 84 188t192 67zM504 935q-184 0 -287 -128q0 1 -85 81q123 156 380 156q376 0 376 -371v-673h-117l-17 116q-171 -140 -365 -140q-127 0 -213 70t-86 183q0 111 55 187
q35 48 134 89q99 40 368 81l99 15v42q0 167 -55 229t-187 63zM224 265q0 -192 190 -192q159 0 332 146v286l-98 -15q-246 -37 -320 -74t-93 -86q-11 -28 -11 -65z" />
    <glyph glyph-name="uni0204" unicode="&#x204;" horiz-adv-x="1143"
d="M570 1913h182l125 -320h-69zM272 1913h182l125 -320h-75zM1128 0h-980v1464h969v-112h-823v-514h716v-115h-716v-610h834v-113z" />
    <glyph glyph-name="uni0205" unicode="&#x205;"
d="M438 1464h182l125 -320h-69zM140 1464h182l125 -320h-75zM802 597q-2 344 -274 344q-193 0 -262 -211q-20 -61 -26 -133h562zM537 -24q-113 0 -201 44t-140 120q-104 150 -104 380q0 232 116 378t324 146q302 0 383 -290q24 -86 24 -155t-3 -95h-699q0 -177 71 -300
t229 -123q201 0 258 177l110 -24q-23 -84 -81 -144q-109 -111 -283 -114h-4z" />
    <glyph glyph-name="uni0206" unicode="&#x206;" horiz-adv-x="1143"
d="M638 1848q111 0 192 -67t84 -188h-116q-2 73 -50 111t-110 38t-110 -38t-50 -111h-116q3 121 84 188t192 67zM1128 0h-980v1464h969v-112h-823v-514h716v-115h-716v-610h834v-113z" />
    <glyph glyph-name="uni0207" unicode="&#x207;"
d="M527 1401q111 0 192 -67t84 -188h-116q-2 72 -50 110t-110 39q-62 -1 -110 -39t-50 -110h-116q3 121 84 188t192 67zM802 597q-2 344 -274 344q-193 0 -262 -211q-20 -61 -26 -133h562zM537 -24q-113 0 -201 44t-140 120q-104 150 -104 380q0 232 116 378t324 146
q302 0 383 -290q24 -86 24 -155t-3 -95h-699q0 -177 71 -300t229 -123q201 0 258 177l110 -24q-23 -84 -81 -144q-109 -111 -283 -114h-4z" />
    <glyph glyph-name="uni0208" unicode="&#x208;" horiz-adv-x="464"
d="M140 1913h182l125 -320h-69zM-158 1913h182l125 -320h-75zM309 0h-146v1464h146v-1464z" />
    <glyph glyph-name="uni0209" unicode="&#x209;" horiz-adv-x="411"
d="M123 1464h182l125 -320h-69zM-175 1464h182l125 -320h-75zM140 0v1023h142v-1023h-142z" />
    <glyph glyph-name="uni020A" unicode="&#x20a;" horiz-adv-x="464"
d="M228 1848q111 0 192 -67t84 -188h-116q-2 73 -50 111t-110 38t-110 -38t-50 -111h-116q3 121 84 188t192 67zM309 0h-146v1464h146v-1464z" />
    <glyph glyph-name="uni020B" unicode="&#x20b;" horiz-adv-x="401"
d="M140 0v1023h142v-1023h-142zM199 1438q111 0 192 -67t84 -188h-116q-2 73 -50 111t-110 38t-110 -38t-50 -111h-116q3 121 84 188t192 67z" />
    <glyph glyph-name="uni020C" unicode="&#x20c;" horiz-adv-x="1449"
d="M635 1913h182l125 -320h-69zM337 1913h182l125 -320h-75zM267 741q0 -337 104 -493q105 -156 353 -155q248 0 352 154t104 513q0 360 -144 504q-110 110 -314 110q-299 0 -396 -243q-59 -148 -59 -390zM1174 1316q161 -175 161 -575t-155 -583t-458 -183q-456 0 -568 412
q-40 149 -40 351t42 348t121 234q155 172 445 171q291 0 452 -175z" />
    <glyph glyph-name="uni020D" unicode="&#x20d;" horiz-adv-x="1064"
d="M456 1464h182l125 -320h-69zM158 1464h182l125 -320h-75zM524 940q-76 0 -136 -36t-92 -101q-60 -121 -59 -290q-1 -323 175 -407q52 -25 120 -25t120 25q95 45 136 154q40 109 40 213t-8 163t-30 116q-22 58 -54 98t-84 65t-128 25zM532 1044q198 0 319 -136t121 -394
t-118 -398t-322 -140t-322 138t-118 398t121 396t319 136z" />
    <glyph glyph-name="uni020E" unicode="&#x20e;" horiz-adv-x="1449"
d="M723 1848q111 0 192 -67t84 -188h-116q-2 73 -50 111t-110 38t-110 -38t-50 -111h-116q3 121 84 188t192 67zM267 741q0 -337 104 -493q105 -156 353 -155q248 0 352 154t104 513q0 360 -144 504q-110 110 -314 110q-299 0 -396 -243q-59 -148 -59 -390zM1174 1316
q161 -175 161 -575t-155 -583t-458 -183q-456 0 -568 412q-40 149 -40 351t42 348t121 234q155 172 445 171q291 0 452 -175z" />
    <glyph glyph-name="uni020F" unicode="&#x20f;" horiz-adv-x="1064"
d="M534 1401q111 0 192 -67t84 -188h-116q-2 72 -50 110t-110 39q-62 -1 -110 -39t-50 -110h-116q3 121 84 188t192 67zM524 940q-76 0 -136 -36t-92 -101q-60 -121 -59 -290q-1 -323 175 -407q52 -25 120 -25t120 25q95 45 136 154q40 109 40 213t-8 163t-30 116
q-22 58 -54 98t-84 65t-128 25zM532 1044q198 0 319 -136t121 -394t-118 -398t-322 -140t-322 138t-118 398t121 396t319 136z" />
    <glyph glyph-name="uni0218" unicode="&#x218;" horiz-adv-x="1216"
d="M537 -100h200v-85q-5 -153 -19 -212q-27 -114 -118 -176l-49 62q26 20 52 79t28 139h-94v193zM1019 1151q-121 213 -398 213q-139 0 -238 -58t-99 -178q0 -157 240 -236q40 -13 98 -32t108 -38q50 -18 93 -36t95 -44t84 -48q84 -59 120 -131t36 -170q0 -197 -148 -307
t-394 -111q-247 0 -411 126q-129 99 -160 272l123 53q89 -325 456 -325q193 1 299 91q82 70 82 196q0 64 -34 134q-12 24 -48 50t-57 40t-126 57q-105 42 -175 62q-178 62 -248 101q-186 103 -186 284q0 91 41 163q40 71 110 115q140 88 327 88t309 -59t209 -192z" />
    <glyph glyph-name="uni0219" unicode="&#x219;" horiz-adv-x="953"
d="M377 -100h200v-85q-5 -153 -19 -212q-27 -114 -118 -176l-49 62q26 20 52 79t28 139h-94v193zM488 937q-252 0 -252 -178q0 -120 178 -161q34 -8 87 -18q173 -32 261 -100t88 -206t-101 -218t-310 -80t-313 130q-40 50 -59 119l108 44q36 -98 100 -142t183 -44
q263 0 263 176q0 95 -60 135t-248 79t-250 107q-61 68 -61 192t104 198t258 74q152 0 238 -45t139 -153q-97 -55 -97 -56q-34 78 -95 112t-161 35z" />
    <glyph glyph-name="uni021A" unicode="&#x21a;" horiz-adv-x="1119"
d="M451 -100h200v-85q-5 -153 -19 -212q-27 -114 -118 -176l-49 62q26 20 52 79t28 139h-94v193zM9 1352v113h1101v-113h-474v-1352h-153v1352h-474z" />
    <glyph glyph-name="uni021B" unicode="&#x21b;" horiz-adv-x="630"
d="M265 -100h200v-85q-5 -153 -19 -212q-27 -114 -118 -176l-49 62q26 20 52 79t28 139h-94v193zM426 -16q-116 0 -176 80t-59 261v599h-153v99h162v327l133 37v-364h224v-99h-224v-663q0 -170 138 -170q46 0 123 34l24 -93q-76 -48 -192 -48z" />
    <glyph glyph-name="uni0237" unicode="&#x237;" horiz-adv-x="530"
d="M262 -87v1110h142v-1035q0 -160 -30 -217.5t-74 -76.5t-118 -19t-149 44l24 90q62 -23 109 -23q96 0 96 127z" />
    <glyph glyph-name="circumflex" unicode="&#x2c6;" horiz-adv-x="838"
d="M327 1492h195l175 -320h-92l-181 218l-180 -218h-92z" />
    <glyph glyph-name="caron" unicode="&#x2c7;" horiz-adv-x="835"
d="M523 1172h-195l-145 320h92l150 -228l151 228h92z" />
    <glyph glyph-name="breve" unicode="&#x2d8;" horiz-adv-x="805"
d="M402 1287q160 0 160 151h116q-3 -121 -84 -188t-192 -67t-192 67t-84 188h116q0 -151 160 -151z" />
    <glyph glyph-name="dotaccent" unicode="&#x2d9;" horiz-adv-x="539"
d="M275 1301q-57 0 -89.5 37.5t-32.5 87.5t32.5 87t89.5 37t89.5 -37t32.5 -87t-32.5 -87.5t-89.5 -37.5z" />
    <glyph glyph-name="ring" unicode="&#x2da;" horiz-adv-x="728"
d="M241 1376q0 -52 32.5 -92.5t90.5 -40.5t90.5 40.5t32.5 92.5t-32.5 92t-90.5 40t-90.5 -40t-32.5 -92zM366 1592q106 0 165.5 -64t59.5 -152t-60 -152t-166 -64t-164 63t-58 151t58.5 153t164.5 65z" />
    <glyph glyph-name="ogonek" unicode="&#x2db;" horiz-adv-x="462"
d="M238 -218q0 -64 73 -65q13 0 35 5v-83q-32 -8 -86 -8t-98.5 37t-44.5 95t43.5 133t83.5 104h71q-77 -154 -77 -218z" />
    <glyph glyph-name="tilde" unicode="&#x2dc;" horiz-adv-x="798"
d="M223 1200h-96q-2 15 -2 41q0 150 128 150q43 0 153 -46t131 -46q39 0 39 96h97q2 -24 2 -35q0 -82 -41 -120t-94 -38t-151.5 43t-118.5 43t-33.5 -22.5t-13.5 -65.5z" />
    <glyph glyph-name="hungarumlaut" unicode="&#x2dd;" horiz-adv-x="745"
d="M490 1492h195l-257 -320h-73zM192 1492h189l-228 -320h-66z" />
    <glyph glyph-name="uni0307" unicode="&#x307;" horiz-adv-x="539"
d="M278 1268q-48 0 -89.5 27t-41.5 87q0 61 32 98t90 37t90 -37t32 -87.5t-32.5 -87.5t-80.5 -37z" />
    <glyph glyph-name="uni030F" unicode="&#x30f;" horiz-adv-x="744"
d="M372 1492h182l125 -320h-69zM74 1492h182l125 -320h-75z" />
    <glyph glyph-name="uni0311" unicode="&#x311;" horiz-adv-x="805"
d="M402 1438q111 0 192 -67t84 -188h-116q-2 72 -50 110.5t-110 38.5t-110 -38.5t-50 -110.5h-116q3 121 84 188t192 67z" />
    <glyph glyph-name="uni0326" unicode="&#x326;" horiz-adv-x="409"
d="M100 -168v168h200v-160q0 -85 -38 -161t-72 -76l-47 22q64 48 67 207h-110z" />
    <glyph glyph-name="uni03BC" unicode="&#x3bc;" horiz-adv-x="1119"
d="M842 1023h142v-1023h-120l-21 159q-106 -186 -319 -186q-141 0 -242 114v-311h-147v1247h147v-587q0 -160 58 -254.5t180 -94.5q75 0 155.5 36t123.5 133.5t43 179.5v587z" />
    <glyph glyph-name="endash" unicode="&#x2013;" horiz-adv-x="1024"
d="M135 334v86h754v-86h-754z" />
    <glyph glyph-name="emdash" unicode="&#x2014;" horiz-adv-x="2048"
d="M135 334v86h1778v-86h-1778z" />
    <glyph glyph-name="quoteleft" unicode="&#x2018;" horiz-adv-x="330"
d="M230 992h-200v156q0 156 36 220.5t79 100.5q0 -1 34 -19.5t35 -18.5q-48 -80 -63 -121t-15 -110l94 -13v-195z" />
    <glyph glyph-name="quoteright" unicode="&#x2019;" horiz-adv-x="330"
d="M100 1464h200q-1 -23 -1 -75.5t-1 -78.5t-9 -128.5t-129 -190.5l-49 63q26 24 51.5 82t27.5 138l-22 4q-23 4 -46 9l-22 5v172z" />
    <glyph glyph-name="quotesinglbase" unicode="&#x201a;" horiz-adv-x="436"
d="M128 -81v174h192q-4 -170 -16 -237q-30 -157 -145 -238l-49 63q26 24 51.5 82t27.5 138q-61 17 -61 18z" />
    <glyph glyph-name="quotedblleft" unicode="&#x201c;" horiz-adv-x="630"
d="M230 995h-200v89q0 188 32 264t103 125l49 -63q-28 -26 -53.5 -79.5t-27.5 -133.5l97 -14v-188zM530 995h-200v89q0 62 2 89t4 60t6 48t10 42t32 70.5t75 79.5l49 -63q-28 -26 -53.5 -79.5t-27.5 -134.5l103 -13v-188z" />
    <glyph glyph-name="quotedblright" unicode="&#x201d;" horiz-adv-x="631"
d="M100 1464h201q0 -241 -14.5 -283t-35 -90.5t-91.5 -99.5l-50 63q26 23 52 81.5t28 138.5l-22 4q-23 4 -46 9l-22 5v172zM401 1464h200q0 -195 -18.5 -270.5t-50 -122.5t-79.5 -80l-51 63q26 22 52 80.5t28 138.5l-81 19v172z" />
    <glyph glyph-name="quotedblbase" unicode="&#x201e;" horiz-adv-x="744"
d="M126 93h194q-4 -170 -16 -237q-30 -157 -145 -238l-49 63q26 24 51.5 82t27.5 138q-2 0 -13.5 3.5t-26.5 7t-23 7.5v174zM434 -81v174h194q-4 -170 -16 -237q-30 -157 -145 -238l-49 63q26 24 51.5 82t27.5 138q-63 17 -63 18z" />
    <glyph glyph-name="guilsinglleft" unicode="&#x2039;" horiz-adv-x="528"
d="M51 552v197l384 301v-141l-286 -259l286 -257v-142z" />
    <glyph glyph-name="guilsinglright" unicode="&#x203a;" horiz-adv-x="528"
d="M435 552l-384 -301v142l286 257l-286 259v141l384 -301v-197z" />
    <glyph glyph-name="uni2074" unicode="&#x2074;" horiz-adv-x="1441"
d="M590 1006v351l-237 -351h237zM590 924h-351v68l320 473h146v-459h100v-82h-100v-152h-115v152z" />
    <glyph glyph-name="Euro" unicode="&#x20ac;" horiz-adv-x="1275"
d="M-13 586v86h128q-1 17 -1 64t1 60h-128v86h134q31 308 175 459.5t386 151.5q286 0 364 -139t103 -250l-134 -31q-45 170 -97 224.5t-112 66.5t-140 12t-217.5 -62t-174.5 -432h367v-86h-373q-1 -13 -1 -60t1 -64h373v-86h-366q27 -247 126.5 -369t287.5 -122
q110 0 159 27.5t88 62t96 194.5l122 -39q-29 -93 -62.5 -155.5t-111 -135t-304.5 -72.5t-374 149.5t-180 459.5h-135z" />
    <glyph glyph-name="trademark" unicode="&#x2122;" horiz-adv-x="1847"
d="M1718 1464v-848h-104v651l-241 -535h-93l-234 538v-654h-108v849h143l250 -589l256 588h131zM116 1370v95h641v-95h-265v-754h-114v754h-262z" />
    <glyph glyph-name="minus" unicode="&#x2212;" horiz-adv-x="1024"
d="M803 670h-668v86h668v-86z" />
    <glyph glyph-name="glyph362" horiz-adv-x="1119"
d="M456 -268v164h200v-179q0 -81 -34 -141t-102 -60q-21 0 -42 9v65q30 -8 37 -8q22 0 31 31t9 119h-99zM9 1352v113h1101v-113h-474v-1352h-153v1352h-474z" />
    <glyph glyph-name="glyph363" horiz-adv-x="444"
d="M100 -100h200v-85q-5 -153 -19 -212q-27 -114 -118 -176l-49 62q26 20 52 79t28 139h-94v193z" />
    <glyph glyph-name="glyph364" horiz-adv-x="630"
d="M290 -263v164h200v-179q0 -80 -34 -140t-102 -61q-21 0 -42 9v65q30 -8 37 -8q22 0 31 31t9 119h-99zM426 -16q-116 0 -176 80t-59 261v599h-153v99h162v327l133 37v-364h224v-99h-224v-663q0 -170 138 -170q46 0 123 34l24 -93q-76 -48 -192 -48z" />
    <glyph glyph-name="glyph365" horiz-adv-x="630"
 />
    </font>
</defs>
</svg>
