<?xml version="1.0" standalone="no"?>
<!DOCTYPE svg PUBLIC "-//W3C//DTD SVG 1.1//EN" "http://www.w3.org/Graphics/SVG/1.1/DTD/svg11.dtd" >
<svg xmlns="http://www.w3.org/2000/svg">
<metadata>
Created by FontPrep 20130207 at Thu May 21 09:21:40 2015
 By Noah Kovacs
Copyright (c) 2012 by Brian J. Bonislawsky DBA Astigmatic (AOETI) (astigma@astigmatic.com), with ReservedFont Name "Stint Ultra Expanded"
</metadata>
<defs>
<font id="6624646a268cc1c23a06a1ba8b139d8e" horiz-adv-x='1024' >
  <font-face
    font-family="StintUltraExpanded-Regular"
    font-weight="400"
    font-stretch="expanded"
    units-per-em="2048"
    panose-1="2 6 5 7 4 6 4 2 2 6"
    ascent="1638"
    descent="-410"
    x-height="952"
    cap-height="1374"
    bbox="-406 -483 2798 1853"
    underline-thickness="102"
    underline-position="-103"
    unicode-range="U+0020-FB02"
  />
<missing-glyph horiz-adv-x="512"
 />
    <glyph glyph-name="fi" unicode="fi" horiz-adv-x="1470"
d="M862 113h225v727h-690v-727h303v-113h-653v113h225v727h-225v112h225v80q0 173 125 268t326 95t377 -78l-49 -109q-80 42 -142 60t-162 18q-172 0 -261 -65t-89 -185v-84h815v-839h226v-113h-576v113z" />
    <glyph glyph-name="fl" unicode="fl" horiz-adv-x="1493"
d="M779 1395q109 0 261 -21h125v-1063q0 -116 40 -153t141 -37h98v-121h-96q-165 0 -237 68q-71 68 -71 247v938q-88 33 -259 33t-277 -67q-107 -67 -107 -183v-84h426v-112h-426v-727h303v-113h-653v113h225v727h-225v112h225v80q0 170 143 266q143 97 364 97z" />
    <glyph glyph-name=".notdef" horiz-adv-x="512"
 />
    <glyph glyph-name=".null" horiz-adv-x="0"
 />
    <glyph glyph-name="nonmarkingreturn" horiz-adv-x="682"
 />
    <glyph glyph-name="space" unicode=" " horiz-adv-x="770"
 />
    <glyph glyph-name="exclam" unicode="!" horiz-adv-x="563"
d="M164 106q0 49 34 84t70 35q61 0 96 -35q35 -36 35 -72q0 -60 -35 -94q-57 -55 -128 -25q-72 29 -72 107zM203 1323q0 29 17 53t59 23q41 1 59 -23t18 -53v-166l-34 -829h-84l-35 829v166z" />
    <glyph glyph-name="quotedbl" unicode="&#x22;" horiz-adv-x="594"
d="M399 969l-20 405h143l-20 -405h-103zM92 969l-20 405h143l-20 -405h-103z" />
    <glyph glyph-name="numbersign" unicode="#" horiz-adv-x="1436"
d="M555 891l-90 -406h416l88 406h-414zM1219 485v-92h-258l-89 -393h-100l88 393h-414l-88 -393h-100l88 393h-244v92h263l90 406h-238v92h258l86 391h101l-87 -391h414l86 391h101l-86 -391h243v-92h-264l-88 -406h238z" />
    <glyph glyph-name="dollar" unicode="$" horiz-adv-x="1591"
d="M252 1032q0 -147 294 -218q86 -21 183 -40v494q-477 -6 -477 -236zM1350 360q0 118 -156 188q-106 47 -358 95v-534q366 3 476 139q38 46 38 112zM102 33v493h113v-141q0 -219 398 -265q60 -7 116 -9v553q-281 52 -413 115q-186 89 -187 255q0 232 320 306q117 27 280 30
v113h107v-117q297 -18 444 -137v117h113v-433h-113v88q0 103 -117 177t-327 88v-512q298 -60 438 -126q202 -94 203 -266q0 -247 -344 -325q-127 -29 -297 -31v-115h-107v117q-181 7 -313 46t-201 96v-117h-113z" />
    <glyph glyph-name="percent" unicode="%" horiz-adv-x="2032"
d="M692 1232q-72 73 -200 73t-199 -73q-72 -73 -72 -183q1 -173 155 -235q50 -20 116 -21q66 1 116 21q52 20 86 54q70 70 70 181q0 110 -72 183zM216 796q-114 98 -114 255t114 252q114 96 276 96t277 -96q114 -96 114 -252q0 -157 -114 -255q-115 -98 -277 -98t-276 98z
M1729 324q0 54 -18 100t-53 81t-86 55t-116 20q-66 0 -116 -20t-84 -55t-52 -81t-18 -100t18 -100t52 -80t84 -56q50 -20 116 -20q65 0 116 20t86 56q35 34 53 80t18 100zM1180 71q-113 98 -113 255t114 253q114 95 275 95q162 0 277 -95q114 -95 114 -253t-114 -256
q-114 -97 -277 -97t-276 98zM494 0h-132l1094 1374h129z" />
    <glyph glyph-name="ampersand" unicode="&#x26;" horiz-adv-x="2073"
d="M845 1294q-353 0 -353 -208q0 -110 137 -295q262 125 332 169q153 96 153 187q0 99 -140 134q-52 13 -129 13zM281 348q0 -111 129 -190q129 -80 351 -80q221 0 390 74q-235 154 -444 370q-66 68 -121 137q-142 -71 -200 -123q-58 -54 -82 -96t-23 -92zM524 739
q-155 215 -155 359t131 222q131 79 319 79t303 -67t115 -177q0 -134 -176 -250q-99 -65 -202 -113q-104 -48 -169 -79q176 -212 424 -399q77 -58 152 -105q257 153 295 391h-293v113h678v-113h-267q-20 -139 -103 -253t-208 -197q126 -64 244 -64q242 0 264 227h115
q-15 -157 -111 -244t-269 -87t-356 104q-228 -113 -485 -113q-256 -1 -424 89q-188 100 -188 288q0 165 226 309q66 42 140 80z" />
    <glyph glyph-name="quotesingle" unicode="'" horiz-adv-x="287"
d="M92 969l-20 405h143l-20 -405h-103z" />
    <glyph glyph-name="parenleft" unicode="(" horiz-adv-x="862"
d="M293 684q0 -221 98 -417t266 -322l-82 -86q-190 143 -300 359q-111 216 -111 466q0 377 242 664q76 90 169 161l82 -86q-258 -192 -338 -520q-26 -106 -26 -219z" />
    <glyph glyph-name="parenright" unicode=")" horiz-adv-x="862"
d="M569 684q0 221 -98 417t-266 322l82 86q294 -222 382 -580q29 -118 29 -245q0 -249 -110 -466t-301 -359l-82 86q258 192 338 520q26 106 26 219z" />
    <glyph glyph-name="asterisk" unicode="*" horiz-adv-x="1032"
d="M854 719l-295 184l12 -325h-112l14 325l-293 -184l-57 94l309 164l-309 164l57 92l293 -182l-14 323h112l-14 -323l297 182l55 -92l-311 -164l311 -164z" />
    <glyph glyph-name="plus" unicode="+" horiz-adv-x="1300"
d="M705 631v-428h-109v428h-424v108h424v428h109v-428h423v-108h-423z" />
    <glyph glyph-name="comma" unicode="," horiz-adv-x="481"
d="M123 111q1 22 9 43q8 20 24 36t37 26t47 9q52 0 86 -36t34 -87q0 -173 -155 -309l-53 51q76 78 96 156q-92 0 -118 70q-8 20 -7 41z" />
    <glyph glyph-name="hyphen" unicode="-" horiz-adv-x="1106"
d="M164 424v123h778v-123h-778z" />
    <glyph glyph-name="period" unicode="." horiz-adv-x="481"
d="M123 106q0 49 34 84t70 35q61 0 96 -35q35 -36 35 -72q0 -60 -35 -94q-57 -55 -128 -25q-72 29 -72 107z" />
    <glyph glyph-name="slash" unicode="/" horiz-adv-x="1024"
d="M233 -41h-120l678 1477h120z" />
    <glyph glyph-name="zero" unicode="0" horiz-adv-x="1706"
d="M1265 1142q-58 50 -125 82q-135 66 -266 66q-130 0 -238 -36t-194 -112q-86 -74 -139 -188t-53 -268q0 -289 192 -456q170 -148 410 -148t422 157t182 447t-191 456zM1581 686q-1 -115 -29 -213t-78 -177q-50 -80 -119 -140t-149 -100t-170 -62q-90 -21 -182 -21t-182 21
q-90 22 -170 62q-81 40 -150 100q-70 60 -120 140q-50 79 -78 177t-29 213q1 114 29 212t78 177t120 139q69 60 150 102q80 41 170 62t182 21t182 -21t170 -62q80 -42 149 -102t119 -139t78 -177t29 -212z" />
    <glyph glyph-name="one" unicode="1" horiz-adv-x="963"
d="M143 113h308v1151l-349 -103v111l349 102h122v-1261h308v-113h-738v113z" />
    <glyph glyph-name="two" unicode="2" horiz-adv-x="1536"
d="M1253 973q0 317 -508 317q-383 0 -491 -202q-37 -69 -37 -164h-127q0 242 207 368q178 108 457 107q280 0 453 -114t173 -322q0 -177 -264 -387q-198 -157 -733 -461h928v315h112v-432l-1321 2v84q174 96 326 182t280 163q280 169 412 295q133 126 133 249z" />
    <glyph glyph-name="three" unicode="3" horiz-adv-x="1542"
d="M1419 426q0 -213 -189 -333t-499 -120q-438 -1 -588 255q-53 90 -53 221h127q0 -185 138 -276t398 -91q259 0 399 97t140 253q0 155 -128 234q-150 92 -502 94v108l528 392h-889v-256h-113v370h1215v-86l-574 -426q449 -37 556 -267q34 -73 34 -169z" />
    <glyph glyph-name="four" unicode="4" horiz-adv-x="1575"
d="M1038 467v833l-813 -833h813zM717 113h321v239h-977v111l889 911h211v-907h352v-115h-352v-239h293v-113h-737v113z" />
    <glyph glyph-name="five" unicode="5" horiz-adv-x="1536"
d="M291 811q155 84 509 84q124 0 252 -35q370 -101 371 -434q0 -202 -162 -327q-162 -126 -491 -126q-278 -3 -462 103q-206 120 -206 350h127q0 -169 149 -257q149 -89 400 -89t384 94q134 94 134 261q0 165 -134 259t-408 94q-343 0 -490 -118h-102l63 704h1086v-114h-979
z" />
    <glyph glyph-name="six" unicode="6" horiz-adv-x="1604"
d="M846 768q-220 0 -384 -100q-116 -71 -183 -176q29 -168 157 -278q154 -131 408 -132q255 0 393 92q137 92 137 252q0 250 -296 318q-102 24 -232 24zM1337 965q-1 325 -509 325q-140 0 -252 -52q-314 -144 -314 -583q222 222 604 222q280 0 456 -116q177 -116 177 -323
t-173 -336t-486 -129t-510 172t-197 509q0 336 184 541q184 204 537 204q260 0 435 -108t175 -326h-127z" />
    <glyph glyph-name="seven" unicode="7" horiz-adv-x="1348"
d="M61 983v391h1328v-69q-268 -253 -373 -375q-205 -238 -297 -451t-92 -479h-131q0 600 579 1150l115 110h-1016v-277h-113z" />
    <glyph glyph-name="eight" unicode="8" horiz-adv-x="1626"
d="M810 696q-134 0 -239 -21q-106 -21 -180 -61q-73 -40 -113 -96q-40 -57 -40 -129q0 -71 36 -129t109 -98q71 -40 179 -60q108 -22 249 -22t249 22t181 60q73 40 111 98t37 129q-1 72 -41 129q-40 56 -115 96t-182 61t-241 21zM1172 1222q-116 70 -361 70t-358 -70
t-113 -177t120 -178q120 -70 351 -70t354 71t123 177q0 107 -116 177zM1516 375q0 -185 -185 -294q-185 -108 -519 -108q-335 0 -518 108t-183 294q0 231 228 331q76 34 177 48q-238 58 -284 196q-14 44 -15 112q1 68 43 134t120 111q159 92 401 92q480 0 600 -223
q30 -56 30 -119q0 -118 -70 -193q-70 -74 -235 -114q204 -30 307 -128t103 -247z" />
    <glyph glyph-name="nine" unicode="9" horiz-adv-x="1604"
d="M758 604q222 0 384 100q118 72 183 177q-27 165 -157 277q-154 132 -410 132q-255 0 -392 -93t-137 -251q1 -250 297 -318q102 -24 232 -24zM266 408q0 -326 509 -326q140 0 253 52q313 144 313 583q-221 -221 -604 -221q-282 0 -457 116q-176 116 -176 322
q0 207 173 336t486 129t510 -172t197 -509t-185 -541t-535 -204q-264 0 -427 103q-184 116 -184 332h127z" />
    <glyph glyph-name="colon" unicode=":" horiz-adv-x="522"
d="M178 780q34 34 70 35q60 0 96 -35q35 -36 35 -72q0 -61 -35 -94q-35 -34 -71 -34q-37 0 -59 9t-37 25q-34 33 -34 82q1 50 35 84zM143 106q1 50 35 84t70 35q60 0 96 -35q35 -36 35 -72q0 -60 -35 -94q-57 -55 -129 -25q-72 29 -72 107z" />
    <glyph glyph-name="semicolon" unicode=";" horiz-adv-x="522"
d="M177 191q33 34 71 34q65 0 99 -36t34 -87q0 -172 -156 -309l-53 51q76 78 96 156q-92 0 -118 70q-8 20 -7 53q0 34 34 68zM178 780q34 34 70 35q60 0 96 -35q35 -36 35 -72q0 -61 -35 -94q-35 -34 -71 -34q-37 0 -59 9t-37 25q-34 33 -34 82q1 50 35 84z" />
    <glyph glyph-name="less" unicode="&#x3c;" horiz-adv-x="1300"
d="M156 637v94l974 440v-114l-829 -373l829 -371v-114z" />
    <glyph glyph-name="equal" unicode="=" horiz-adv-x="1300"
d="M172 438v111h956v-111h-956zM172 821v109h956v-109h-956z" />
    <glyph glyph-name="greater" unicode="&#x3e;" horiz-adv-x="1300"
d="M1145 637l-975 -438v114l829 371l-829 373v114l975 -440v-94z" />
    <glyph glyph-name="question" unicode="?" horiz-adv-x="1202"
d="M425 190q34 35 70 35q62 0 97 -35q35 -36 35 -72q0 -61 -35 -94q-35 -34 -72 -34q-36 0 -58 9t-38 25q-34 34 -33 82q0 49 34 84zM270 965h-127q-1 213 121 323t332 111q210 0 336 -106q127 -106 127 -294q-1 -293 -283 -407q-98 -40 -215 -57v-207h-125v297
q246 21 370 107t124 252q0 167 -90 237q-90 69 -226 69q-344 0 -344 -325z" />
    <glyph glyph-name="at" unicode="@" horiz-adv-x="2081"
d="M745 625q0 -207 234 -207q162 0 266 125l55 334q-99 81 -229 81t-228 -86t-98 -247zM614 603q0 218 138 334t329 116q123 0 238 -62l10 47h119l-76 -454q-2 -2 -3 -11t-3 -24t-2 -27q0 -98 129 -98t217 106t88 244q0 258 -189 394q-189 135 -524 135t-567 -189
q-108 -88 -170 -207q-61 -119 -61 -254q0 -268 199 -419q199 -152 546 -152q277 0 498 106l51 -100q-238 -117 -557 -117q-390 0 -629 183t-239 497q0 209 126 384t342 277q216 103 472 103q372 0 600 -171q229 -171 229 -451q0 -191 -125 -330t-321 -139q-151 0 -217 112
q-124 -112 -310 -112q-146 0 -242 78t-96 201z" />
    <glyph glyph-name="A" unicode="A" horiz-adv-x="1913"
d="M956 1253l-352 -673h705zM444 1374h586l660 -1261h264v-113h-699v113h297l-182 354h-827l-185 -354h299v-113h-698v113h264l600 1149h-379v112z" />
    <glyph glyph-name="B" unicode="B" horiz-adv-x="1894"
d="M1513 1014q0 39 -4 68q-4 30 -18 56q-66 125 -389 124h-608v-480h608q352 0 398 149q14 44 13 83zM1490 604q-109 68 -353 68h-643v-559h659q249 0 348 61q98 61 98 211q0 151 -109 219zM82 1374h1061q303 0 413 -124q74 -83 74 -224q0 -192 -152 -258q-52 -22 -122 -35
q289 -19 354 -213q21 -62 21 -142q0 -79 -21 -138q-20 -60 -58 -102q-68 -77 -194 -107q-125 -31 -297 -31h-1079v113h287v1149h-287v112z" />
    <glyph glyph-name="C" unicode="C" horiz-adv-x="1860"
d="M1599 860v80q0 163 -172 254q-172 92 -390 92q-401 0 -583 -159t-182 -440t188 -440t530 -159q343 0 520 162q58 54 89 125h138q-117 -285 -472 -372q-123 -30 -291 -30t-324 45t-270 134t-180 223q-65 134 -65 311q0 344 240 529q240 184 624 184q304 -1 499 -107
q54 -30 101 -57v139h113v-514h-113z" />
    <glyph glyph-name="D" unicode="D"
d="M1739 660q0 140 -22 226t-63 150q-78 120 -223 172t-356 52h-581v-1145h581q321 1 479 119q88 66 136 176q49 110 49 250zM82 1374h993q371 0 565 -146q228 -170 228 -540q0 -592 -576 -674q-102 -14 -215 -14h-995v113h287v1149h-287v112z" />
    <glyph glyph-name="E" unicode="E" horiz-adv-x="1755"
d="M1485 963v294h-991v-473h763v-116h-763v-551h1005v315h113v-432h-1530v113h287v1149h-287v112h1515v-411h-112z" />
    <glyph glyph-name="F" unicode="F" horiz-adv-x="1638"
d="M1423 963v294h-929v-493h770v-117h-770v-534h286v-113h-698v113h287v1149h-287v112h1454v-411h-113z" />
    <glyph glyph-name="G" unicode="G" horiz-adv-x="1993"
d="M1053 84q287 0 518 104v383h-348v113h657v-113h-184v-571h-125v61q-219 -88 -529 -88q-407 0 -657 182t-250 530q-1 349 257 539q237 176 618 175q255 0 458 -84q58 -24 111 -51v131h113v-514h-113v153q0 111 -187 186q-165 66 -366 66q-389 0 -576 -156
q-186 -156 -186 -436q0 -281 202 -446q203 -164 587 -164z" />
    <glyph glyph-name="H" unicode="H" horiz-adv-x="2218"
d="M82 1374h698v-112h-286v-480h1230v480h-286v112h698v-112h-287v-1149h287v-113h-698v113h286v553h-1230v-553h286v-113h-698v113h287v1149h-287v112z" />
    <glyph glyph-name="I" unicode="I" horiz-adv-x="862"
d="M82 1374h698v-112h-286v-1149h286v-113h-698v113h287v1149h-287v112z" />
    <glyph glyph-name="J" unicode="J" horiz-adv-x="1460"
d="M1028 453v809h-307v112h719v-112h-287v-822q0 -222 -146 -339t-395 -117q-382 0 -492 251q-38 85 -38 199h125q10 -336 415 -336q406 0 406 355z" />
    <glyph glyph-name="K" unicode="K" horiz-adv-x="1907"
d="M82 1374h698v-112h-286v-535l817 535h-160v112h678v-112h-326l-729 -478l8 2l820 -673h284v-113h-698v113h235l-743 610l-186 -121v-489h286v-113h-698v113h287v1149h-287v112z" />
    <glyph glyph-name="L" unicode="L" horiz-adv-x="1683"
d="M82 1374h698v-112h-286v-1145h995v315h113v-432h-1520v113h287v1149h-287v112z" />
    <glyph glyph-name="M" unicode="M" horiz-adv-x="2607"
d="M82 1374h420l807 -1245l794 1245h422v-112h-287v-1149h287v-113h-698v113h287v1056l-754 -1169h-111l-755 1174v-1061h286v-113h-698v113h287v1149h-287v112z" />
    <glyph glyph-name="N" unicode="N" horiz-adv-x="2171"
d="M82 1374h424l1192 -1214v1102h-287v112h698v-112h-286v-1262h-137l-1192 1210v-1097h286v-113h-698v113h287v1149h-287v112z" />
    <glyph glyph-name="O" unicode="O" horiz-adv-x="2015"
d="M1743 686q0 292 -184 445q-183 153 -549 153t-552 -154t-186 -446q0 -290 186 -443t552 -153t549 153q184 153 184 445zM1880 686q0 -354 -251 -542q-229 -172 -620 -171q-391 -1 -622 171q-252 187 -252 542q0 236 118 404q217 310 787 309q154 0 313 -42
q159 -41 276 -129q251 -188 251 -542z" />
    <glyph glyph-name="P" unicode="P" horiz-adv-x="1815"
d="M1443 1202q-111 54 -413 55h-536v-612h536q54 -1 116 -1t122 6t116 24q54 16 96 50q91 74 91 245q0 170 -128 233zM82 1374h1028q462 0 564 -240q34 -79 34 -182q0 -211 -142 -317q-142 -107 -456 -107h-616v-415h286v-113h-698v113h287v1149h-287v112z" />
    <glyph glyph-name="Q" unicode="Q" horiz-adv-x="2015"
d="M1530 213q221 156 221 460t-189 460q-189 155 -552 155q-364 0 -555 -156t-191 -446q0 -291 191 -447q191 -155 555 -155q230 0 389 61q-187 77 -281 121l49 101q168 -85 363 -154zM135 686q0 236 118 404q217 310 787 309q154 0 313 -42q159 -41 276 -129
q251 -188 251 -530q0 -341 -221 -530q206 -64 344 -88l-49 -125q-161 42 -412 135q-213 -117 -532 -117q-392 -1 -623 171q-252 186 -252 542z" />
    <glyph glyph-name="R" unicode="R" horiz-adv-x="1972"
d="M1505 978q1 88 -29 144q-30 54 -98 84q-116 51 -458 51h-426v-552h421q345 1 459 49q70 30 100 82q30 54 31 142zM1053 588h-559v-475h286v-113h-698v113h287v1149h-287v112h971q457 0 556 -222q33 -74 33 -173q0 -155 -81 -247t-261 -126l381 -493h291v-113h-657v113
h213l-359 479q-54 -4 -116 -4z" />
    <glyph glyph-name="S" unicode="S" horiz-adv-x="1665"
d="M885 -27q-469 0 -649 144v-117h-113v494h113v-142q0 -108 108 -174q154 -93 530 -92q377 0 496 134q43 48 43 116q1 66 -35 110t-98 78q-62 32 -142 54q-82 22 -174 42q-92 18 -189 36t-189 38q-208 49 -316 121q-132 88 -133 232q-1 247 349 323q136 30 269 29
q220 0 372 -43t216 -99v117h113v-432h-113v88q1 112 -143 184t-403 72q-525 0 -525 -235q0 -146 276 -220q119 -32 290 -65q170 -32 262 -56q216 -55 317 -126q133 -94 133 -236q0 -267 -380 -346q-140 -29 -285 -29z" />
    <glyph glyph-name="T" unicode="T" horiz-adv-x="1657"
d="M80 881v493h1497v-493h-113v379h-573v-1147h307v-113h-739v113h307v1147h-573v-379h-113z" />
    <glyph glyph-name="U" unicode="U"
d="M20 1374h699v-112h-287v-840q0 -145 151 -242q151 -96 417 -96q267 0 418 96t151 242v840h-287v112h698v-112h-286v-830q0 -211 -177 -335t-516 -124q-338 0 -516 124t-178 335v830h-287v112z" />
    <glyph glyph-name="V" unicode="V" horiz-adv-x="1839"
d="M-41 1374h698v-112h-307l570 -1176l567 1176h-305v112h698v-112h-254l-616 -1262h-187l-612 1262h-252v112z" />
    <glyph glyph-name="W" unicode="W" horiz-adv-x="2757"
d="M-41 1374h698v-112h-315l463 -1162l489 1274h168l490 -1274l463 1162h-316v112h699v-112h-244l-508 -1262h-186l-482 1241l-481 -1241h-186l-508 1262h-244v112z" />
    <glyph glyph-name="X" unicode="X" horiz-adv-x="1849"
d="M1130 1374h678v-112h-274l-530 -557l563 -592h262v-113h-699v113h279l-485 508l-486 -508h281v-113h-699v113h261l565 592l-533 557h-272v112h678v-112h-248l453 -476l452 476h-246v112z" />
    <glyph glyph-name="Y" unicode="Y" horiz-adv-x="1808"
d="M0 1374h698v-112h-262l469 -576l465 576h-260v112h698v-112h-288l-553 -680v-469h307v-113h-739v113h307v469l-553 680h-289v112z" />
    <glyph glyph-name="Z" unicode="Z" horiz-adv-x="1507"
d="M154 963v411h1237v-67l-1115 -1190h1016v315h113v-432h-1303v102l1084 1155h-920v-294h-112z" />
    <glyph glyph-name="bracketleft" unicode="[" horiz-adv-x="838"
d="M258 -121v1610h477v-107h-352v-1396h352v-107h-477z" />
    <glyph glyph-name="backslash" unicode="\" horiz-adv-x="1024"
d="M113 1436h120l678 -1477h-120z" />
    <glyph glyph-name="bracketright" unicode="]" horiz-adv-x="838"
d="M102 -121v107h353v1396h-353v107h478v-1610h-478z" />
    <glyph glyph-name="asciicircum" unicode="^" horiz-adv-x="942"
d="M748 784l-277 494l-276 -494h-134l342 590h136l342 -590h-133z" />
    <glyph glyph-name="underscore" unicode="_" horiz-adv-x="1024"
d="M0 -250v115h1024v-115h-1024z" />
    <glyph glyph-name="grave" unicode="`" horiz-adv-x="1081"
d="M240 1395l430 -213l-43 -84l-441 186z" />
    <glyph glyph-name="a" unicode="a" horiz-adv-x="1389"
d="M221 260q0 -180 301 -180q119 0 267 48t217 103v289q-620 -22 -744 -158q-40 -44 -41 -102zM492 -27q-281 -1 -366 159q-28 52 -28 122q0 198 260 284q200 67 648 87v47q0 101 -101 150q-101 50 -221 50q-200 0 -284 -40t-109 -119l-127 30q32 112 152 174t329 62
q345 -1 449 -177q36 -62 36 -151v-538h238v-113h-362v111q-276 -138 -514 -138z" />
    <glyph glyph-name="b" unicode="b" horiz-adv-x="1518"
d="M1296 469q0 297 -255 377q-84 26 -195 26q-234 0 -449 -192v-459q196 -141 422 -141t351 103q126 103 126 286zM397 0h-350v113h225v1149h-225v112h350v-561q211 166 458 166t405 -132q159 -132 159 -376t-163 -371t-405 -127t-454 123v-96z" />
    <glyph glyph-name="c" unicode="c" horiz-adv-x="1333"
d="M1112 958h109v-374h-109v47q0 113 -136 180q-117 57 -249 57q-244 0 -371 -104t-127 -287q1 -183 125 -288q125 -105 362 -105q238 0 347 124q30 34 45 68h129q-114 -301 -543 -301q-266 0 -431 132t-165 368t171 370t432 134q262 0 411 -123v102z" />
    <glyph glyph-name="d" unicode="d" horiz-adv-x="1497"
d="M221 478q0 -190 115 -294t342 -104t442 192v457q-194 143 -421 143t-352 -103q-126 -102 -126 -291zM1120 1262h-227v112h352v-1261h225v-113h-350v139q-211 -166 -458 -166t-405 132q-159 132 -159 375q0 244 164 372q164 127 400 127q237 0 458 -123v406z" />
    <glyph glyph-name="e" unicode="e" horiz-adv-x="1329"
d="M674 -25q-264 0 -420 134t-156 359t162 365t420 140t407 -143q148 -143 148 -392v-22h-1008q14 -154 131 -242q116 -88 316 -88q334 0 424 190h125q-117 -301 -549 -301zM680 862q-201 0 -318 -96q-116 -96 -135 -242h879q-17 232 -240 310q-78 28 -186 28z" />
    <glyph glyph-name="f" unicode="f" horiz-adv-x="836"
d="M47 952h225v80q0 173 125 268t326 95t377 -78l-49 -109q-80 42 -142 60t-162 18q-172 0 -261 -65t-89 -185v-84h426v-112h-426v-727h303v-113h-653v113h225v727h-225v112z" />
    <glyph glyph-name="g" unicode="g" horiz-adv-x="1497"
d="M221 478q0 -190 115 -294t342 -104t442 192v457q-194 143 -421 143t-352 -103q-126 -102 -126 -291zM1120 952h350v-112h-225v-768q1 -348 -331 -450q-114 -36 -266 -36q-278 0 -482 101l57 110q164 -100 418 -100q353 0 445 195q34 70 34 176v71q-211 -166 -458 -166
t-405 132q-159 132 -159 375q0 244 164 372q164 127 400 127q237 0 458 -123v96z" />
    <glyph glyph-name="h" unicode="h" horiz-adv-x="1548"
d="M47 1374h350v-602q155 148 371 196q74 16 160 17q174 0 268 -88t94 -244v-540h226v-113h-576v113h225v503q-1 208 -163 244q-52 12 -120 12q-129 0 -262 -63t-223 -143v-553h226v-113h-576v113h225v1149h-225v112z" />
    <glyph glyph-name="i" unicode="i" horiz-adv-x="655"
d="M209 1219q1 23 9 43t23 36q15 15 35 24t43 9t43 -9t36 -24q16 -16 25 -36t9 -43t-9 -43t-25 -36t-36 -24t-43 -8t-43 8t-35 24t-23 36t-9 43zM47 952h350v-839h226v-113h-576v113h225v727h-225v112z" />
    <glyph glyph-name="j" unicode="j" horiz-adv-x="657"
d="M244 1219q0 23 8 43t24 36q15 15 35 24t43 9q24 0 44 -9t36 -24q16 -16 24 -36q9 -20 9 -43t-9 -43q-8 -20 -24 -36t-36 -24t-44 -8q-23 0 -43 8t-35 24q-16 16 -24 36t-8 43zM-25 -244q66 -59 166 -59t144 48q43 48 43 161v934h-226v112h351v-1046q0 -320 -306 -320
q-132 0 -223 68z" />
    <glyph glyph-name="k" unicode="k" horiz-adv-x="1487"
d="M1475 113v-113h-576v113h154l-471 442l-185 -113v-329h226v-113h-576v113h225v1149h-225v112h350v-807l463 281q202 121 350 121q79 0 154 -23l-37 -110q-60 20 -103 20q-84 0 -147 -19t-162 -79l-237 -144l539 -501h258z" />
    <glyph glyph-name="l" unicode="l" horiz-adv-x="637"
d="M-20 1374h350v-1063q0 -116 39 -153t141 -37h98v-121h-96q-166 0 -236 68q-71 68 -71 247v947h-225v112z" />
    <glyph glyph-name="m" unicode="m" horiz-adv-x="2318"
d="M2060 653v-540h226v-113h-576v113h225v503q1 208 -157 244q-50 12 -111 12q-205 0 -438 -208v-551h225v-113h-575v113h225v503q0 208 -158 244q-50 12 -110 12q-208 0 -439 -206v-553h226v-113h-576v113h225v727h-225v112h350v-170q233 203 471 203q278 0 344 -213
q250 213 488 213q176 0 268 -88t92 -244z" />
    <glyph glyph-name="n" unicode="n" horiz-adv-x="1548"
d="M47 952h350v-180q155 148 371 196q74 16 160 17q174 0 268 -88t94 -244v-540h226v-113h-576v113h225v503q-1 208 -163 244q-52 12 -120 12q-129 0 -262 -63t-223 -143v-553h226v-113h-576v113h225v727h-225v112z" />
    <glyph glyph-name="o" unicode="o" horiz-adv-x="1419"
d="M1198 476q0 192 -122 294t-366 102q-242 0 -366 -102t-123 -295q-1 -193 123 -294t366 -101t366 102q122 102 122 294zM1321 475q0 -250 -168 -376t-443 -126q-274 0 -443 126t-169 376t171 377t442 127q426 1 563 -277q47 -96 47 -227z" />
    <glyph glyph-name="p" unicode="p" horiz-adv-x="1497"
d="M1276 479q0 191 -114 292t-345 101t-440 -186v-489q173 -117 407 -117t363 104t129 295zM377 -281h225v-112h-575v112h225v1121h-225v112h350v-139q100 83 183 114q143 52 271 52q128 1 226 -29t174 -92t122 -156q46 -96 46 -227q0 -245 -180 -381q-161 -121 -401 -121
t-441 113v-367z" />
    <glyph glyph-name="q" unicode="q" horiz-adv-x="1497"
d="M221 478q0 -190 115 -294t342 -104t442 192v457q-194 143 -421 143t-352 -103q-126 -102 -126 -291zM1120 952h350v-112h-225v-1121h225v-112h-565v112h215v420q-211 -166 -458 -166t-405 132q-159 132 -159 375q0 244 164 372q164 127 400 127q237 0 458 -123v96z" />
    <glyph glyph-name="r" unicode="r" horiz-adv-x="1047"
d="M818 864q-138 0 -260 -82q-76 -52 -161 -157v-512h246v-113h-596v113h225v727h-225v112h350v-200q194 227 441 227q89 0 162 -32q16 -7 22 -9l-45 -115q-78 41 -159 41z" />
    <glyph glyph-name="s" unicode="s" horiz-adv-x="1202"
d="M125 735q0 250 451 250q207 0 354 -94v61h112v-321h-112v74q0 113 -206 157q-79 16 -197 17q-119 0 -199 -31t-80 -113q0 -99 188 -141q72 -16 192 -36q120 -18 182 -34q143 -35 225 -100q81 -64 81 -180q0 -192 -253 -250q-93 -22 -197 -21q-281 0 -443 115v-88h-112
v350h112v-61q0 -101 134 -159q115 -50 270 -50q366 0 366 170q1 117 -187 164q-83 21 -198 38q-116 16 -178 30q-144 30 -214 80q-90 64 -91 173z" />
    <glyph glyph-name="t" unicode="t" horiz-adv-x="1161"
d="M680 -25q-309 1 -392 163q-30 58 -30 143v559h-258v112h258v330h125v-330h670v-112h-670v-555q-1 -163 175 -192q54 -9 120 -9q211 0 364 92l62 -100q-178 -101 -424 -101z" />
    <glyph glyph-name="u" unicode="u" horiz-adv-x="1542"
d="M1501 0h-350v180q-155 -148 -370 -196q-74 -16 -160 -17q-175 0 -269 88t-94 244v541h-225v112h350v-616q1 -208 163 -244q52 -12 120 -12q130 0 262 63t223 144v553h-225v112h350v-839h225v-113z" />
    <glyph glyph-name="v" unicode="v" horiz-adv-x="1358"
d="M0 952h494v-112h-168l352 -719l354 719h-168v112h494v-112h-189l-428 -840h-129l-424 840h-188v112z" />
    <glyph glyph-name="w" unicode="w" horiz-adv-x="2056"
d="M41 952h494v-112h-189l281 -693l325 805h152l326 -805l278 693h-186v112h493v-112h-180l-340 -840h-129l-338 827l-336 -827h-131l-342 840h-178v112z" />
    <glyph glyph-name="x" unicode="x" horiz-adv-x="1300"
d="M766 113h184l-303 301l-303 -301h191v-113h-494v113h158l374 374l-352 353h-180v112h494v-112h-168l278 -281l281 281h-160v112h494v-112h-187l-354 -353l377 -374h164v-113h-494v113z" />
    <glyph glyph-name="y" unicode="y" horiz-adv-x="1358"
d="M1358 840h-189l-393 -770q-38 -74 -70 -138t-66 -118q-73 -115 -163 -171q-89 -57 -230 -57t-243 68l55 106q68 -44 110 -53q42 -10 95 -10q113 0 190 69t156 226l-424 848h-186v112h494v-112h-164l348 -717l354 717h-168v112h494v-112z" />
    <glyph glyph-name="z" unicode="z" horiz-adv-x="1262"
d="M139 952h979v-98l-817 -737h725v254h113v-371h-1026v102l813 734h-674v-226h-113v342z" />
    <glyph glyph-name="braceleft" unicode="{" horiz-adv-x="791"
d="M291 354q-1 161 -27 205t-64 60t-100 16h-39v102h39q121 0 156 60t35 223v123q1 272 163 327q56 19 134 19h100v-107h-86q-106 0 -134 -24q-52 -45 -52 -180v-158q0 -132 -26 -193t-62 -94q-35 -33 -92 -47q149 -40 173 -224q7 -54 7 -110v-162q0 -134 47 -175
q33 -29 139 -29h86v-107h-100q-158 0 -228 81q-69 81 -69 265v129z" />
    <glyph glyph-name="bar" unicode="|" horiz-adv-x="532"
d="M205 -483v2048h123v-2048h-123z" />
    <glyph glyph-name="braceright" unicode="}" horiz-adv-x="791"
d="M500 225q0 -272 -162 -327q-56 -19 -135 -19h-101v107h86q105 0 134 24q53 45 53 180v162q0 132 27 193t62 93t91 48q-151 37 -173 224q-6 54 -7 110v158q0 135 -41 169q-41 35 -146 35h-86v107h101q158 0 228 -81q69 -81 69 -265v-123q0 -162 25 -206t63 -60t102 -17h39
v-102h-39q-119 0 -155 -60q-35 -60 -35 -221v-129z" />
    <glyph glyph-name="asciitilde" unicode="~" horiz-adv-x="1300"
d="M156 692q98 103 252 103q65 1 244 -55t261 -56q122 0 232 115v-121q-100 -100 -242 -100q-62 0 -126 17t-185 54t-205 37q-124 0 -231 -113v119z" />
    <glyph glyph-name="nonbreakingspace" unicode="&#xa0;" horiz-adv-x="770"
 />
    <glyph glyph-name="exclamdown" unicode="&#xa1;" horiz-adv-x="563"
d="M399 934q0 -49 -34 -84t-70 -35q-61 0 -96 35q-35 36 -35 72q0 60 34 94t72 35q36 0 58 -9t38 -25q34 -34 33 -83zM360 -283q0 -29 -17 -52t-59 -23t-59 23q-18 23 -18 52v166l35 830h84l34 -830v-166z" />
    <glyph glyph-name="cent" unicode="&#xa2;" horiz-adv-x="1384"
d="M357 416q111 -105 309 -119v784q-196 -16 -308 -120t-112 -272t111 -273zM1137 1169h104v-374h-104v47q0 105 -111 168q-111 64 -254 73v-788q264 12 371 197l92 -52q-146 -231 -463 -245v-185h-106v183q-247 15 -395 144q-148 130 -148 352t152 352t391 147v176h106
v-176q228 -11 365 -121v102z" />
    <glyph glyph-name="sterling" unicode="&#xa3;" horiz-adv-x="1550"
d="M1225 1380h112v-458h-112v157q1 139 -235 192q-85 19 -172 19q-191 0 -318 -77t-127 -232q0 -93 68 -198q20 -31 42 -62h494v-100h-422q37 -57 63 -113t27 -119q0 -158 -147 -258q58 1 256 -25q197 -26 291 -26t146 17t81 45q28 28 42 63t25 71h109q-20 -90 -39 -130
q-40 -83 -119 -129q-80 -46 -210 -46t-342 29t-278 29q-103 0 -161 -9q-59 -9 -137 -34l-39 98q221 38 321 134q76 73 76 173q0 67 -69 169q-20 30 -41 61h-308v100h236q-90 135 -90 254q0 221 183 331q155 93 387 93t407 -111v92z" />
    <glyph glyph-name="currency" unicode="&#xa4;" horiz-adv-x="1147"
d="M385 494q74 -76 185 -76t191 71q81 71 81 187t-80 195t-190 79t-187 -81q-78 -81 -78 -191t78 -184zM942 679q0 -126 -72 -216l156 -156l-76 -78l-157 158q-106 -74 -224 -74q-119 0 -215 74l-157 -158l-76 78l158 158q-74 99 -74 220t74 216l-158 160l76 76l157 -158
q99 72 221 72t218 -70l157 156l76 -76l-156 -158q72 -98 72 -224z" />
    <glyph glyph-name="yen" unicode="&#xa5;" horiz-adv-x="1702"
d="M31 1374h637v-112h-248l432 -576l430 576h-248v112h637v-112h-241l-408 -535h453v-109h-537l-27 -36v-101h564v-108h-564v-260h287v-113h-694v113h287v260h-564v108h564v101l-29 36h-535v109h453l-408 535h-241v112z" />
    <glyph glyph-name="brokenbar" unicode="&#xa6;" horiz-adv-x="532"
d="M205 -352v758h123v-758h-123zM205 672v758h123v-758h-123z" />
    <glyph glyph-name="section" unicode="&#xa7;" horiz-adv-x="1024"
d="M780 628q0 34 -16 62t-46 50q-28 24 -66 44t-80 40q-43 20 -89 40t-90 43q-149 -61 -149 -164q0 -53 35 -91t91 -68q56 -31 123 -60q68 -29 134 -63q100 42 138 108q15 25 15 59zM557 1397q100 0 248 -47v-144q-57 36 -121 62t-166 26t-156 -34t-55 -84t25 -84
q26 -32 68 -60t95 -52t109 -50q139 -60 204 -110q93 -72 93 -165q0 -164 -184 -247q123 -87 123 -200q0 -114 -101 -174q-101 -61 -250 -61q-148 0 -309 56v141q129 -68 190 -81t109 -13q120 0 179 36t59 84q1 49 -25 82q-26 32 -68 60t-95 52t-109 50q-139 60 -204 110
q-93 72 -93 165q0 155 182 246q-121 86 -121 200t97 175q96 61 276 61z" />
    <glyph glyph-name="dieresis" unicode="&#xa8;" horiz-adv-x="1081"
d="M676 1268q25 26 63 26q37 0 63 -26t25 -64q1 -36 -25 -62t-64 -26t-62 26q-25 26 -25 62q0 38 25 64zM254 1204q0 38 24 64t62 26t64 -26t26 -64q0 -36 -26 -62t-64 -26t-62 26t-24 62z" />
    <glyph glyph-name="copyright" unicode="&#xa9;" horiz-adv-x="1579"
d="M779 272q-159 0 -275 107q-117 107 -117 305t117 308t268 110q150 0 240 -68v53h98v-290h-98v53q0 67 -63 116q-63 48 -146 48t-137 -24t-90 -67t-56 -103q-18 -60 -18 -132q0 -148 75 -237t216 -89q170 0 233 152h100q-51 -172 -219 -224q-57 -18 -128 -18zM197 686
q0 -246 173 -419t419 -173t420 172q175 172 175 420t-174 422t-421 174t-420 -175q-172 -175 -172 -421zM1477 686q-1 -94 -25 -182t-69 -164q-92 -156 -250 -248t-345 -92q-284 0 -485 201t-201 485t202 487q126 127 302 177q88 24 182 24q95 0 183 -24t165 -70
q78 -44 140 -107t107 -139t69 -165q24 -88 25 -183z" />
    <glyph glyph-name="ordfeminine" unicode="&#xaa;" horiz-adv-x="1055"
d="M82 496v92h915v-92h-915zM162 878q0 -108 215 -108q139 0 287 69q40 19 65 38v174q-467 -13 -541 -95q-26 -28 -26 -78zM471 1393q265 0 343 -124q28 -44 28 -106v-370h162v-88h-275v77q-148 -68 -232 -82t-149 -14q-136 0 -217 51q-80 51 -80 136q1 85 51 133t140 74
q152 45 487 50v48q0 131 -256 131q-124 0 -169 -19q-46 -19 -64 -39t-27 -47l-111 23q53 166 369 166z" />
    <glyph glyph-name="guillemotleft" unicode="&#xab;" horiz-adv-x="903"
d="M451 444v91l284 335l86 -73l-256 -308l256 -307l-86 -73zM82 444v91l285 335l86 -73l-256 -308l256 -307l-86 -73z" />
    <glyph glyph-name="logicalnot" unicode="&#xac;" horiz-adv-x="1300"
d="M1020 459v327h-848v109h956v-436h-108z" />
    <glyph glyph-name="uni00AD" unicode="&#xad;" horiz-adv-x="1106"
d="M164 424v123h778v-123h-778z" />
    <glyph glyph-name="registered" unicode="&#xae;" horiz-adv-x="1229"
d="M635 909q133 -1 133 107t-133 108h-117v-215h117zM854 1020q0 -134 -139 -166l119 -184h75v-64h-221v64h55l-112 176h-113v-176h82v-64h-256v64h84v454h-84v64h303q95 0 151 -42t56 -126zM312 592q124 -124 301 -123q177 -1 301 123t124 301t-123 302q-123 124 -302 124
t-302 -124t-123 -302q0 -177 124 -301zM970 536q-148 -148 -357 -147q-210 0 -357 148t-147 357t147 357t357 148q209 1 357 -147t148 -358t-148 -358z" />
    <glyph glyph-name="macron" unicode="&#xaf;" horiz-adv-x="1081"
d="M266 1130v113h549v-113h-549z" />
    <glyph glyph-name="degree" unicode="&#xb0;" horiz-adv-x="764"
d="M275 1018q44 -43 90 -43q79 -1 123 43t44 90q0 78 -44 123t-91 45q-48 0 -75 -12q-28 -12 -48 -32q-44 -44 -43 -108q0 -63 44 -106zM558 1300q74 -74 73 -175q0 -102 -74 -175t-176 -73q-103 1 -175 73t-73 175q0 103 72 176t176 73q103 0 177 -74z" />
    <glyph glyph-name="plusminus" unicode="&#xb1;" horiz-adv-x="1300"
d="M172 98v109h956v-109h-956zM705 715v-361h-109v361h-424v108h424v381h109v-381h423v-108h-423z" />
    <glyph glyph-name="twosuperior" unicode="&#xb2;" horiz-adv-x="1024"
d="M791 1114q0 202 -299 201q-156 0 -230 -58t-74 -184h-100q0 165 124 251q106 74 269 73q301 0 385 -155q28 -52 29 -120q1 -122 -161 -251q-125 -100 -445 -277h547v188h86v-274h-840v67q386 205 498 284q211 152 211 255z" />
    <glyph glyph-name="threesuperior" unicode="&#xb3;" horiz-adv-x="1049"
d="M188 791q0 -218 324 -218q170 0 254 58t84 152q0 93 -80 144t-299 52v84l309 223h-538v-145h-90v233h786v-74l-340 -243q207 -21 293 -119q57 -65 57 -146q0 -148 -121 -224t-323 -76q-281 0 -379 160q-35 57 -35 139h98z" />
    <glyph glyph-name="acute" unicode="&#xb4;" horiz-adv-x="1081"
d="M895 1284l-440 -186l-41 84l428 213z" />
    <glyph glyph-name="micro" unicode="&#xb5;" horiz-adv-x="1444"
d="M1124 237q0 -47 4 -75t9 -54q6 -26 14 -52t16 -56h-125q-38 122 -38 227q-107 -121 -168 -163q-127 -87 -265 -87q-92 0 -162 54t-104 145l-112 -586h-125l264 1368h125l-123 -636q58 -238 254 -238q194 0 348 178q42 50 78 100l114 596h125l-114 -596q-15 -79 -15 -125z
" />
    <glyph glyph-name="paragraph" unicode="&#xb6;" horiz-adv-x="1214"
d="M672 92h192v1190h-192v-1190zM406 92h176v582q-191 0 -325 87t-134 263q0 175 134 263q134 87 325 87h551v-92h-179v-1190h176v-92h-724v92z" />
    <glyph glyph-name="periodcentered" unicode="&#xb7;" horiz-adv-x="481"
d="M157 756q34 35 70 35q61 0 96 -35t35 -72q0 -62 -35 -95q-35 -34 -71 -34t-58 9q-22 8 -38 24q-34 34 -33 84q0 49 34 84z" />
    <glyph glyph-name="cedilla" unicode="&#xb8;" horiz-adv-x="1081"
d="M772 -242q0 -159 -250 -159q-122 0 -229 49l43 86q72 -45 178 -45q150 -1 150 67t-121 68q-57 0 -103 -6l76 202h90l-45 -118q211 0 211 -144z" />
    <glyph glyph-name="onesuperior" unicode="&#xb9;" horiz-adv-x="631"
d="M88 594h193v694l-220 -65v86l220 65h104v-780h195v-86h-492v86z" />
    <glyph glyph-name="ordmasculine" unicode="&#xba;" horiz-adv-x="1065"
d="M172 1038q0 -266 362 -266t361 266q0 271 -363 271q-180 0 -270 -70t-90 -201zM1004 1038q0 -92 -36 -158t-100 -109t-150 -64t-186 -21q-210 0 -340 88q-131 88 -131 265q0 176 131 265t340 89q331 0 436 -196q36 -67 36 -159zM111 496v92h843v-92h-843z" />
    <glyph glyph-name="guillemotright" unicode="&#xbb;" horiz-adv-x="903"
d="M168 109l-86 73l256 307l-256 308l86 73l285 -335v-91zM537 109l-86 73l256 307l-256 308l86 73l284 -335v-91z" />
    <glyph glyph-name="onequarter" unicode="&#xbc;" horiz-adv-x="1753"
d="M1403 279v364l-391 -364h391zM109 731h192v557l-219 -65v86l219 65h105v-643h194v-86h-491v86zM406 0h-130l1090 1374h127zM1237 86h166v111h-512v79l485 453h129v-450h197v-82h-197v-111h144v-86h-412v86z" />
    <glyph glyph-name="onehalf" unicode="&#xbd;" horiz-adv-x="1874"
d="M109 731h192v557l-219 -65v86l219 65h105v-643h194v-86h-491v86zM406 0h-130l1090 1374h127zM1640 498q0 159 -241 159q-129 0 -193 -52t-63 -169h-101q0 154 102 228q102 75 247 75q253 0 330 -138q24 -43 24 -96q0 -99 -117 -192t-385 -227h443v158h86v-244h-736v72
q350 173 435 226q85 52 127 100t42 100z" />
    <glyph glyph-name="threequarters" unicode="&#xbe;" horiz-adv-x="1880"
d="M1530 279v364l-391 -364h391zM532 0h-129l1090 1374h127zM821 862q0 -106 -100 -168q-100 -61 -262 -61q-270 0 -349 149q-28 53 -28 129h98q0 -104 65 -150t206 -46t206 43q66 43 66 114t-66 111q-66 39 -262 41v80l260 184h-422v-137h-90v223h668v-74l-293 -202
q248 -24 290 -149q12 -37 13 -87zM1364 86h166v111h-512v79l485 453h129v-450h197v-82h-197v-111h144v-86h-412v86z" />
    <glyph glyph-name="questiondown" unicode="&#xbf;" horiz-adv-x="1202"
d="M811 934q-1 -50 -35 -84t-70 -35q-61 0 -96 35q-35 36 -35 72q1 60 35 94t72 35q38 0 58 -9q21 -9 37 -25q34 -33 34 -83zM143 41q0 384 498 465v207h125v-297q-249 -23 -371 -108q-123 -85 -123 -252t90 -237q90 -69 243 -69t240 82t87 244h127q-1 -212 -123 -323
t-331 -111t-335 106q-127 106 -127 293z" />
    <glyph glyph-name="Agrave" unicode="&#xc0;" horiz-adv-x="1913"
d="M956 1253l-352 -673h705zM444 1374h586l660 -1261h264v-113h-699v113h297l-182 354h-827l-185 -354h299v-113h-698v113h264l600 1149h-379v112zM592 1798l430 -213l-43 -84l-441 186z" />
    <glyph glyph-name="Aacute" unicode="&#xc1;" horiz-adv-x="1913"
d="M956 1253l-352 -673h705zM444 1374h586l660 -1261h264v-113h-699v113h297l-182 354h-827l-185 -354h299v-113h-698v113h264l600 1149h-379v112zM1247 1687l-440 -186l-41 84l428 213z" />
    <glyph glyph-name="Acircumflex" unicode="&#xc2;" horiz-adv-x="1913"
d="M956 1253l-352 -673h705zM444 1374h586l660 -1261h264v-113h-699v113h297l-182 354h-827l-185 -354h299v-113h-698v113h264l600 1149h-379v112zM1241 1503l-348 160l-348 -160l-39 78l387 219l387 -219z" />
    <glyph glyph-name="Atilde" unicode="&#xc3;" horiz-adv-x="1913"
d="M956 1253l-352 -673h705zM444 1374h586l660 -1261h264v-113h-699v113h297l-182 354h-827l-185 -354h299v-113h-698v113h264l600 1149h-379v112zM1063 1617q77 0 88 121h96q0 -118 -70 -184q-47 -44 -106 -43q-59 0 -105 19q-46 20 -88 42t-80 41t-70 19q-77 0 -89 -121
h-97q0 134 95 201q37 26 86 26t92 -19t87 -41l84 -42q41 -19 77 -19z" />
    <glyph glyph-name="Adieresis" unicode="&#xc4;" horiz-adv-x="1913"
d="M956 1253l-352 -673h705zM444 1374h586l660 -1261h264v-113h-699v113h297l-182 354h-827l-185 -354h299v-113h-698v113h264l600 1149h-379v112zM1028 1671q25 26 63 26q37 -1 63 -27t25 -63q1 -37 -25 -63t-64 -25q-38 -1 -62 25q-25 26 -25 63q0 38 25 64zM606 1607
q0 37 24 63t62 27q38 -1 64 -27t26 -63t-26 -63t-64 -25q-38 -1 -62 25t-24 63z" />
    <glyph glyph-name="Aring" unicode="&#xc5;" horiz-adv-x="1913"
d="M956 1253l-352 -673h705zM444 1374h586l660 -1261h264v-113h-699v113h297l-182 354h-827l-185 -354h299v-113h-698v113h264l600 1149h-379v112zM733 1664q-1 -40 37 -68t122 -28t122 28q36 28 36 68q0 41 -36 69t-122 28q-84 0 -122 -28t-37 -69zM631 1664q0 87 71 138
t191 51q183 0 243 -110q19 -35 19 -79q0 -87 -72 -137q-72 -51 -190 -51q-185 0 -243 110q-18 34 -19 78z" />
    <glyph glyph-name="AE" unicode="&#xc6;" horiz-adv-x="2501"
d="M1155 580v673h-162l-383 -673h545zM506 1374h1837v-411h-113v294h-950v-473h723v-116h-723v-551h965v315h112v-432h-1489v113h287v354h-610l-201 -354h272v-113h-657v113h248l651 1149h-352v112z" />
    <glyph glyph-name="Ccedilla" unicode="&#xc7;" horiz-adv-x="1860"
d="M1081 -244q0 68 -120 68q-57 0 -103 -6l60 157q-352 19 -568 201q-215 183 -215 519t240 520t624 184q304 -1 499 -107q54 -30 101 -57v139h113v-514h-113v80q0 163 -172 254q-172 92 -390 92q-401 0 -583 -159t-182 -440t188 -440t530 -159q343 0 520 162q58 54 89 125
h138q-117 -281 -461 -369q-120 -30 -270 -33l-27 -71q211 0 211 -144q0 -159 -250 -159q-122 0 -229 49l43 86q72 -45 178 -45q149 -1 149 67z" />
    <glyph glyph-name="Egrave" unicode="&#xc8;" horiz-adv-x="1755"
d="M1485 963v294h-991v-473h763v-116h-763v-551h1005v315h113v-432h-1530v113h287v1149h-287v112h1515v-411h-112zM629 1798l430 -213l-43 -84l-441 186z" />
    <glyph glyph-name="Eacute" unicode="&#xc9;" horiz-adv-x="1755"
d="M1485 963v294h-991v-473h763v-116h-763v-551h1005v315h113v-432h-1530v113h287v1149h-287v112h1515v-411h-112zM1284 1687l-440 -186l-41 84l428 213z" />
    <glyph glyph-name="Ecircumflex" unicode="&#xca;" horiz-adv-x="1755"
d="M1485 963v294h-991v-473h763v-116h-763v-551h1005v315h113v-432h-1530v113h287v1149h-287v112h1515v-411h-112zM1278 1503l-348 160l-348 -160l-39 78l387 219l387 -219z" />
    <glyph glyph-name="Edieresis" unicode="&#xcb;" horiz-adv-x="1755"
d="M1485 963v294h-991v-473h763v-116h-763v-551h1005v315h113v-432h-1530v113h287v1149h-287v112h1515v-411h-112zM1065 1671q25 26 63 26q36 -1 62 -27t26 -63t-26 -63t-62 -25q-38 -1 -63 25t-25 63q0 38 25 64zM643 1607q1 37 25 63t61 27q37 -1 63 -27t27 -63
q-1 -37 -27 -63t-63 -25q-37 -1 -61 25t-25 63z" />
    <glyph glyph-name="Igrave" unicode="&#xcc;" horiz-adv-x="862"
d="M82 1374h698v-112h-286v-1149h286v-113h-698v113h287v1149h-287v112zM130 1798l430 -213l-43 -84l-441 186z" />
    <glyph glyph-name="Iacute" unicode="&#xcd;" horiz-adv-x="862"
d="M82 1374h698v-112h-286v-1149h286v-113h-698v113h287v1149h-287v112zM785 1687l-440 -186l-41 84l428 213z" />
    <glyph glyph-name="Icircumflex" unicode="&#xce;" horiz-adv-x="862"
d="M82 1374h698v-112h-286v-1149h286v-113h-698v113h287v1149h-287v112zM779 1503l-348 160l-348 -160l-39 78l387 219l387 -219z" />
    <glyph glyph-name="Idieresis" unicode="&#xcf;" horiz-adv-x="862"
d="M82 1374h698v-112h-286v-1149h286v-113h-698v113h287v1149h-287v112zM566 1671q25 26 63 26q37 -1 63 -27t25 -63q1 -37 -25 -63t-64 -25q-38 -1 -62 25q-25 26 -25 63q0 38 25 64zM144 1607q0 37 24 63t62 27q38 -1 64 -27t26 -63t-26 -63t-64 -25q-38 -1 -62 25t-24 63
z" />
    <glyph glyph-name="Eth" unicode="&#xd0;"
d="M494 643v-528h581q321 1 479 119q186 139 185 456q0 317 -185 452q-162 118 -479 118h-581v-508h489v-109h-489zM82 1374h993q371 0 565 -146q228 -170 228 -540q0 -592 -576 -674q-102 -14 -215 -14h-995v113h287v530h-287v109h287v510h-287v112z" />
    <glyph glyph-name="Ntilde" unicode="&#xd1;" horiz-adv-x="2171"
d="M82 1374h424l1192 -1214v1102h-287v112h698v-112h-286v-1262h-137l-1192 1210v-1097h286v-113h-698v113h287v1149h-287v112zM1209 1617q77 0 88 121h96q0 -118 -70 -184q-47 -44 -106 -43q-59 0 -105 19q-46 20 -88 42t-80 41t-70 19q-77 0 -89 -121h-97q0 134 95 201
q37 26 86 26t92 -19t87 -41l84 -42q41 -19 77 -19z" />
    <glyph glyph-name="Ograve" unicode="&#xd2;" horiz-adv-x="2015"
d="M1743 686q0 292 -184 445q-183 153 -549 153t-552 -154t-186 -446q0 -290 186 -443t552 -153t549 153q184 153 184 445zM1880 686q0 -354 -251 -542q-229 -172 -620 -171q-391 -1 -622 171q-252 187 -252 542q0 236 118 404q217 310 787 309q154 0 313 -42
q159 -41 276 -129q251 -188 251 -542zM709 1798l430 -213l-43 -84l-441 186z" />
    <glyph glyph-name="Oacute" unicode="&#xd3;" horiz-adv-x="2015"
d="M1743 686q0 292 -184 445q-183 153 -549 153t-552 -154t-186 -446q0 -290 186 -443t552 -153t549 153q184 153 184 445zM1880 686q0 -354 -251 -542q-229 -172 -620 -171q-391 -1 -622 171q-252 187 -252 542q0 236 118 404q217 310 787 309q154 0 313 -42
q159 -41 276 -129q251 -188 251 -542zM1364 1687l-440 -186l-41 84l428 213z" />
    <glyph glyph-name="Ocircumflex" unicode="&#xd4;" horiz-adv-x="2015"
d="M1743 686q0 292 -184 445q-183 153 -549 153t-552 -154t-186 -446q0 -290 186 -443t552 -153t549 153q184 153 184 445zM1880 686q0 -354 -251 -542q-229 -172 -620 -171q-391 -1 -622 171q-252 187 -252 542q0 236 118 404q217 310 787 309q154 0 313 -42
q159 -41 276 -129q251 -188 251 -542zM1358 1503l-348 160l-348 -160l-39 78l387 219l387 -219z" />
    <glyph glyph-name="Otilde" unicode="&#xd5;" horiz-adv-x="2015"
d="M1743 686q0 292 -184 445q-183 153 -549 153t-552 -154t-186 -446q0 -290 186 -443t552 -153t549 153q184 153 184 445zM1880 686q0 -354 -251 -542q-229 -172 -620 -171q-391 -1 -622 171q-252 187 -252 542q0 236 118 404q217 310 787 309q154 0 313 -42
q159 -41 276 -129q251 -188 251 -542zM1180 1617q77 0 88 121h96q0 -118 -70 -184q-47 -44 -106 -43q-58 0 -104 19q-46 20 -88 42t-82 41q-38 19 -69 19q-77 0 -89 -121h-97q0 134 95 201q37 26 86 26t92 -19q42 -19 86 -41t85 -42q41 -19 77 -19z" />
    <glyph glyph-name="Odieresis" unicode="&#xd6;" horiz-adv-x="2015"
d="M1743 686q0 292 -184 445q-183 153 -549 153t-552 -154t-186 -446q0 -290 186 -443t552 -153t549 153q184 153 184 445zM1880 686q0 -354 -251 -542q-229 -172 -620 -171q-391 -1 -622 171q-252 187 -252 542q0 236 118 404q217 310 787 309q154 0 313 -42
q159 -41 276 -129q251 -188 251 -542zM1145 1671q25 26 63 26q36 -1 62 -27t26 -63t-26 -63t-62 -25q-38 -1 -63 25t-25 63q0 38 25 64zM723 1607q1 37 25 63t61 27q37 -1 63 -27t27 -63q-1 -37 -27 -63t-63 -25q-37 -1 -61 25t-25 63z" />
    <glyph glyph-name="multiply" unicode="&#xd7;" horiz-adv-x="1300"
d="M725 686l346 -346l-76 -78l-346 346l-344 -342l-76 76l344 344l-346 346l76 76l346 -346l344 344l76 -78z" />
    <glyph glyph-name="Oslash" unicode="&#xd8;" horiz-adv-x="2015"
d="M1743 686q0 374 -299 516l-768 -1071q139 -43 334 -43q365 0 549 153t184 445zM1010 1284q-366 0 -552 -154t-186 -444q0 -376 303 -518l768 1073q-139 43 -333 43zM506 72q-371 174 -371 618q0 232 118 400q108 153 306 231t436 78t418 -62l156 217h127l-185 -256
q267 -130 343 -404q26 -94 26 -208q0 -354 -251 -542q-229 -172 -636 -171q-201 0 -387 60l-153 -215h-129z" />
    <glyph glyph-name="Ugrave" unicode="&#xd9;"
d="M20 1374h699v-112h-287v-840q0 -145 151 -242q151 -96 417 -96q267 0 418 96t151 242v840h-287v112h698v-112h-286v-830q0 -211 -177 -335t-516 -124q-338 0 -516 124t-178 335v830h-287v112zM699 1798l430 -213l-43 -84l-441 186z" />
    <glyph glyph-name="Uacute" unicode="&#xda;"
d="M20 1374h699v-112h-287v-840q0 -145 151 -242q151 -96 417 -96q267 0 418 96t151 242v840h-287v112h698v-112h-286v-830q0 -211 -177 -335t-516 -124q-338 0 -516 124t-178 335v830h-287v112zM1354 1687l-440 -186l-41 84l428 213z" />
    <glyph glyph-name="Ucircumflex" unicode="&#xdb;"
d="M20 1374h699v-112h-287v-840q0 -145 151 -242q151 -96 417 -96q267 0 418 96t151 242v840h-287v112h698v-112h-286v-830q0 -211 -177 -335t-516 -124q-338 0 -516 124t-178 335v830h-287v112zM1348 1503l-348 160l-348 -160l-39 78l387 219l387 -219z" />
    <glyph glyph-name="Udieresis" unicode="&#xdc;"
d="M20 1374h699v-112h-287v-840q0 -145 151 -242q151 -96 417 -96q267 0 418 96t151 242v840h-287v112h698v-112h-286v-830q0 -211 -177 -335t-516 -124q-338 0 -516 124t-178 335v830h-287v112zM1135 1671q25 26 63 26q36 -1 62 -27t26 -63t-26 -63t-62 -25q-38 -1 -63 25
t-25 63q0 38 25 64zM713 1607q1 37 25 63t61 27q37 -1 63 -27t27 -63q-1 -37 -27 -63t-63 -25q-37 -1 -61 25t-25 63z" />
    <glyph glyph-name="Yacute" unicode="&#xdd;" horiz-adv-x="1808"
d="M0 1374h698v-112h-262l469 -576l465 576h-260v112h698v-112h-288l-553 -680v-469h307v-113h-739v113h307v469l-553 680h-289v112zM1260 1687l-440 -186l-41 84l428 213z" />
    <glyph glyph-name="Thorn" unicode="&#xde;" horiz-adv-x="1815"
d="M1443 960q-111 54 -413 54h-536v-613h536q54 -1 116 -1t122 6t116 24q54 16 96 50q91 75 91 246t-128 234zM82 1374h698v-112h-286v-132h616q462 0 564 -240q34 -78 34 -181q0 -211 -142 -317q-142 -107 -456 -107h-616v-172h286v-113h-698v113h287v1149h-287v112z" />
    <glyph glyph-name="germandbls" unicode="&#xdf;" horiz-adv-x="1554"
d="M934 80q393 0 393 317q0 184 -105 257t-391 73h-192v107h186q327 0 371 136q14 42 14 91q0 108 -89 166q-89 59 -306 59q-323 0 -395 -160q-24 -52 -23 -120v-1006h-350v113h225v895q0 280 304 360q104 28 234 27q252 0 387 -83q136 -83 136 -239q0 -233 -231 -278
q350 -47 350 -398q0 -314 -292 -397q-96 -27 -210 -27q-199 0 -397 84l41 107q134 -58 208 -71q73 -13 132 -13z" />
    <glyph glyph-name="agrave" unicode="&#xe0;" horiz-adv-x="1389"
d="M221 260q0 -180 301 -180q119 0 267 48t217 103v289q-620 -22 -744 -158q-40 -44 -41 -102zM492 -27q-281 -1 -366 159q-28 52 -28 122q0 198 260 284q200 67 648 87v47q0 101 -101 150q-101 50 -221 50q-200 0 -284 -40t-109 -119l-127 30q32 112 152 174t329 62
q345 -1 449 -177q36 -62 36 -151v-538h238v-113h-362v111q-276 -138 -514 -138zM353 1395l430 -213l-43 -84l-441 186z" />
    <glyph glyph-name="aacute" unicode="&#xe1;" horiz-adv-x="1389"
d="M221 260q0 -180 301 -180q119 0 267 48t217 103v289q-620 -22 -744 -158q-40 -44 -41 -102zM492 -27q-281 -1 -366 159q-28 52 -28 122q0 198 260 284q200 67 648 87v47q0 101 -101 150q-101 50 -221 50q-200 0 -284 -40t-109 -119l-127 30q32 112 152 174t329 62
q345 -1 449 -177q36 -62 36 -151v-538h238v-113h-362v111q-276 -138 -514 -138zM1008 1284l-440 -186l-41 84l428 213z" />
    <glyph glyph-name="acircumflex" unicode="&#xe2;" horiz-adv-x="1389"
d="M221 260q0 -180 301 -180q119 0 267 48t217 103v289q-620 -22 -744 -158q-40 -44 -41 -102zM492 -27q-281 -1 -366 159q-28 52 -28 122q0 198 260 284q200 67 648 87v47q0 101 -101 150q-101 50 -221 50q-200 0 -284 -40t-109 -119l-127 30q32 112 152 174t329 62
q345 -1 449 -177q36 -62 36 -151v-538h238v-113h-362v111q-276 -138 -514 -138zM1002 1100l-348 160l-348 -160l-39 78l387 219l387 -219z" />
    <glyph glyph-name="atilde" unicode="&#xe3;" horiz-adv-x="1389"
d="M221 260q0 -180 301 -180q119 0 267 48t217 103v289q-620 -22 -744 -158q-40 -44 -41 -102zM492 -27q-281 -1 -366 159q-28 52 -28 122q0 198 260 284q200 67 648 87v47q0 101 -101 150q-101 50 -221 50q-200 0 -284 -40t-109 -119l-127 30q32 112 152 174t329 62
q345 -1 449 -177q36 -62 36 -151v-538h238v-113h-362v111q-276 -138 -514 -138zM824 1214q77 0 88 121h96q0 -117 -70 -183q-47 -44 -106 -44q-58 0 -104 19t-88 41t-82 42q-38 19 -69 19q-77 0 -89 -121h-97q0 134 95 201q37 26 86 26t92 -19q42 -20 86 -42t85 -41t77 -19z
" />
    <glyph glyph-name="adieresis" unicode="&#xe4;" horiz-adv-x="1389"
d="M221 260q0 -180 301 -180q119 0 267 48t217 103v289q-620 -22 -744 -158q-40 -44 -41 -102zM492 -27q-281 -1 -366 159q-28 52 -28 122q0 198 260 284q200 67 648 87v47q0 101 -101 150q-101 50 -221 50q-200 0 -284 -40t-109 -119l-127 30q32 112 152 174t329 62
q345 -1 449 -177q36 -62 36 -151v-538h238v-113h-362v111q-276 -138 -514 -138zM789 1268q25 26 63 26q36 0 62 -26t26 -64q0 -36 -26 -62t-62 -26q-38 0 -63 26t-25 62q0 38 25 64zM367 1204q1 38 25 64t61 26t63 -26t27 -64q-1 -36 -27 -62t-63 -26t-61 26t-25 62z" />
    <glyph glyph-name="aring" unicode="&#xe5;" horiz-adv-x="1389"
d="M221 260q0 -180 301 -180q119 0 267 48t217 103v289q-620 -22 -744 -158q-40 -44 -41 -102zM492 -27q-281 -1 -366 159q-28 52 -28 122q0 198 260 284q200 67 648 87v47q0 101 -101 150q-101 50 -221 50q-200 0 -284 -40t-109 -119l-127 30q32 112 152 174t329 62
q345 -1 449 -177q36 -62 36 -151v-538h238v-113h-362v111q-276 -138 -514 -138zM494 1261q0 -41 38 -69t122 -27q84 -1 120 27t37 69q-1 41 -37 69t-120 28t-122 -28t-38 -69zM392 1262q0 87 71 137q71 51 191 51q183 0 243 -110q19 -34 19 -78q0 -87 -72 -138t-190 -51
q-186 0 -244 110q-18 35 -18 79z" />
    <glyph glyph-name="ae" unicode="&#xe6;" horiz-adv-x="2232"
d="M1586 862q-200 0 -318 -97q-119 -97 -138 -241h879q-17 234 -237 310q-78 28 -186 28zM221 260q0 -180 301 -180q234 0 438 114q54 30 89 56q-48 102 -48 221q0 31 3 49q-618 -22 -742 -158q-40 -44 -41 -102zM98 254q0 198 260 284q200 67 648 87v47q0 101 -101 150
q-101 50 -221 50q-200 0 -284 -40t-109 -119l-127 30q32 112 152 174t329 62q380 0 459 -207q76 94 198 148t265 53q274 0 423 -143q148 -143 148 -392v-22h-1008q14 -153 130 -242q116 -88 317 -88q334 0 424 190h125q-117 -301 -549 -301q-320 0 -475 191
q-263 -193 -577 -193q-314 -1 -399 159q-28 52 -28 122z" />
    <glyph glyph-name="ccedilla" unicode="&#xe7;" horiz-adv-x="1333"
d="M1112 958h109v-374h-109v47q0 113 -136 180q-117 57 -249 57q-244 0 -371 -104t-127 -287q1 -183 125 -288q125 -105 362 -105q238 0 347 124q30 34 45 68h129q-108 -287 -516 -301l-27 -73q211 0 211 -144q0 -159 -250 -159q-122 0 -229 49l43 86q72 -45 178 -45
q150 -1 150 67t-121 68q-57 0 -103 -6l60 159q-241 16 -388 146q-147 129 -147 359q0 229 171 363t432 134q262 0 411 -123v102z" />
    <glyph glyph-name="egrave" unicode="&#xe8;" horiz-adv-x="1329"
d="M674 -25q-264 0 -420 134t-156 359t162 365t420 140t407 -143q148 -143 148 -392v-22h-1008q14 -154 131 -242q116 -88 316 -88q334 0 424 190h125q-117 -301 -549 -301zM680 862q-201 0 -318 -96q-116 -96 -135 -242h879q-17 232 -240 310q-78 28 -186 28zM375 1395
l430 -213l-43 -84l-441 186z" />
    <glyph glyph-name="eacute" unicode="&#xe9;" horiz-adv-x="1329"
d="M674 -25q-264 0 -420 134t-156 359t162 365t420 140t407 -143q148 -143 148 -392v-22h-1008q14 -154 131 -242q116 -88 316 -88q334 0 424 190h125q-117 -301 -549 -301zM680 862q-201 0 -318 -96q-116 -96 -135 -242h879q-17 232 -240 310q-78 28 -186 28zM1030 1284
l-440 -186l-41 84l428 213z" />
    <glyph glyph-name="ecircumflex" unicode="&#xea;" horiz-adv-x="1329"
d="M674 -25q-264 0 -420 134t-156 359t162 365t420 140t407 -143q148 -143 148 -392v-22h-1008q14 -154 131 -242q116 -88 316 -88q334 0 424 190h125q-117 -301 -549 -301zM680 862q-201 0 -318 -96q-116 -96 -135 -242h879q-17 232 -240 310q-78 28 -186 28zM1024 1100
l-348 160l-348 -160l-39 78l387 219l387 -219z" />
    <glyph glyph-name="edieresis" unicode="&#xeb;" horiz-adv-x="1329"
d="M674 -25q-264 0 -420 134t-156 359t162 365t420 140t407 -143q148 -143 148 -392v-22h-1008q14 -154 131 -242q116 -88 316 -88q334 0 424 190h125q-117 -301 -549 -301zM680 862q-201 0 -318 -96q-116 -96 -135 -242h879q-17 232 -240 310q-78 28 -186 28zM811 1268
q25 26 63 26q36 0 62 -26t26 -64q0 -36 -26 -62t-62 -26q-38 0 -63 26t-25 62q0 38 25 64zM389 1204q1 38 25 64t61 26t63 -26t27 -64q-1 -36 -27 -62t-63 -26t-61 26t-25 62z" />
    <glyph glyph-name="igrave" unicode="&#xec;" horiz-adv-x="655"
d="M47 952h350v-839h226v-113h-576v113h225v727h-225v112zM-27 1395l430 -213l-43 -84l-441 186z" />
    <glyph glyph-name="iacute" unicode="&#xed;" horiz-adv-x="655"
d="M47 952h350v-839h226v-113h-576v113h225v727h-225v112zM628 1284l-440 -186l-41 84l428 213z" />
    <glyph glyph-name="icircumflex" unicode="&#xee;" horiz-adv-x="655"
d="M47 952h350v-839h226v-113h-576v113h225v727h-225v112zM622 1100l-348 160l-348 -160l-39 78l387 219l387 -219z" />
    <glyph glyph-name="idieresis" unicode="&#xef;" horiz-adv-x="655"
d="M47 952h350v-839h226v-113h-576v113h225v727h-225v112zM409 1268q25 26 63 26q36 0 62 -26t26 -64q0 -36 -26 -62t-62 -26q-38 0 -63 26t-25 62q0 38 25 64zM-13 1204q1 38 25 64t61 26t63 -26t27 -64q-1 -36 -27 -62t-63 -26t-61 26t-25 62z" />
    <glyph glyph-name="eth" unicode="&#xf0;" horiz-adv-x="1419"
d="M715 80q483 0 483 416q0 130 -33 243q-153 107 -426 107q-401 0 -489 -218q-30 -72 -29 -169q1 -193 123 -286t371 -93zM1321 496q0 -263 -168 -393t-440 -130q-434 0 -568 263q-47 92 -47 222q0 247 190 378q169 116 445 116q212 0 373 -69q-89 166 -264 280l-338 -114
l-35 98l254 86q-78 39 -195 78l41 96q158 -48 295 -127l324 111l37 -97l-254 -86q350 -268 350 -712z" />
    <glyph glyph-name="ntilde" unicode="&#xf1;" horiz-adv-x="1548"
d="M47 952h350v-180q155 148 371 196q74 16 160 17q174 0 268 -88t94 -244v-540h226v-113h-576v113h225v503q-1 208 -163 244q-52 12 -120 12q-129 0 -262 -63t-223 -143v-553h226v-113h-576v113h225v727h-225v112zM938 1214q77 0 88 121h96q0 -117 -70 -183
q-47 -44 -106 -44q-58 0 -104 19t-88 41t-82 42q-38 19 -69 19q-77 0 -89 -121h-97q0 134 95 201q37 26 86 26t92 -19q42 -20 86 -42t85 -41t77 -19z" />
    <glyph glyph-name="ograve" unicode="&#xf2;" horiz-adv-x="1419"
d="M1198 476q0 192 -122 294t-366 102q-242 0 -366 -102t-123 -295q-1 -193 123 -294t366 -101t366 102q122 102 122 294zM1321 475q0 -250 -168 -376t-443 -126q-274 0 -443 126t-169 376t171 377t442 127q426 1 563 -277q47 -96 47 -227zM410 1395l430 -213l-43 -84
l-441 186z" />
    <glyph glyph-name="oacute" unicode="&#xf3;" horiz-adv-x="1419"
d="M1198 476q0 192 -122 294t-366 102q-242 0 -366 -102t-123 -295q-1 -193 123 -294t366 -101t366 102q122 102 122 294zM1321 475q0 -250 -168 -376t-443 -126q-274 0 -443 126t-169 376t171 377t442 127q426 1 563 -277q47 -96 47 -227zM1065 1284l-440 -186l-41 84
l428 213z" />
    <glyph glyph-name="ocircumflex" unicode="&#xf4;" horiz-adv-x="1419"
d="M1198 476q0 192 -122 294t-366 102q-242 0 -366 -102t-123 -295q-1 -193 123 -294t366 -101t366 102q122 102 122 294zM1321 475q0 -250 -168 -376t-443 -126q-274 0 -443 126t-169 376t171 377t442 127q426 1 563 -277q47 -96 47 -227zM1059 1100l-348 160l-348 -160
l-39 78l387 219l387 -219z" />
    <glyph glyph-name="otilde" unicode="&#xf5;" horiz-adv-x="1419"
d="M1198 476q0 192 -122 294t-366 102q-242 0 -366 -102t-123 -295q-1 -193 123 -294t366 -101t366 102q122 102 122 294zM1321 475q0 -250 -168 -376t-443 -126q-274 0 -443 126t-169 376t171 377t442 127q426 1 563 -277q47 -96 47 -227zM881 1214q77 0 88 121h96
q0 -117 -70 -183q-47 -44 -106 -44t-105 19t-88 41t-80 42q-38 19 -70 19q-77 0 -89 -121h-97q0 134 95 201q37 26 86 26t92 -19q43 -20 87 -42t84 -41q41 -19 77 -19z" />
    <glyph glyph-name="odieresis" unicode="&#xf6;" horiz-adv-x="1419"
d="M1198 476q0 192 -122 294t-366 102q-242 0 -366 -102t-123 -295q-1 -193 123 -294t366 -101t366 102q122 102 122 294zM1321 475q0 -250 -168 -376t-443 -126q-274 0 -443 126t-169 376t171 377t442 127q426 1 563 -277q47 -96 47 -227zM846 1268q25 26 63 26
q37 0 63 -26t25 -64q1 -36 -25 -62t-64 -26t-62 26q-25 26 -25 62q0 38 25 64zM424 1204q0 38 24 64t62 26t64 -26t26 -64q0 -36 -26 -62t-64 -26t-62 26t-24 62z" />
    <glyph glyph-name="divide" unicode="&#xf7;" horiz-adv-x="1300"
d="M569 372q0 36 23 60q22 24 58 25q36 -1 60 -25t25 -60q-1 -36 -25 -58q-24 -23 -60 -23t-58 23q-23 22 -23 58zM569 994q0 36 23 60q22 24 58 25q36 -1 60 -25t25 -60q-1 -36 -25 -58q-24 -23 -60 -23t-58 23q-23 22 -23 58zM176 631v108h957v-108h-957z" />
    <glyph glyph-name="oslash" unicode="&#xf8;" horiz-adv-x="1419"
d="M221 475q0 -237 187 -334l507 707q-89 24 -204 24q-243 0 -367 -102t-123 -295zM1198 475q0 242 -188 338l-508 -709q91 -24 209 -24q243 0 365 102t122 293zM98 475q0 251 171 377q171 127 442 127q147 0 270 -39l141 195h119l-168 -234q248 -128 248 -426
q0 -250 -168 -376t-442 -126q-152 0 -275 39l-139 -194h-121l166 233q-244 126 -244 424z" />
    <glyph glyph-name="ugrave" unicode="&#xf9;" horiz-adv-x="1542"
d="M1501 0h-350v180q-155 -148 -370 -196q-74 -16 -160 -17q-175 0 -269 88t-94 244v541h-225v112h350v-616q1 -208 163 -244q52 -12 120 -12q130 0 262 63t223 144v553h-225v112h350v-839h225v-113zM435 1395l430 -213l-43 -84l-441 186z" />
    <glyph glyph-name="uacute" unicode="&#xfa;" horiz-adv-x="1542"
d="M1501 0h-350v180q-155 -148 -370 -196q-74 -16 -160 -17q-175 0 -269 88t-94 244v541h-225v112h350v-616q1 -208 163 -244q52 -12 120 -12q130 0 262 63t223 144v553h-225v112h350v-839h225v-113zM1090 1284l-440 -186l-41 84l428 213z" />
    <glyph glyph-name="ucircumflex" unicode="&#xfb;" horiz-adv-x="1542"
d="M1501 0h-350v180q-155 -148 -370 -196q-74 -16 -160 -17q-175 0 -269 88t-94 244v541h-225v112h350v-616q1 -208 163 -244q52 -12 120 -12q130 0 262 63t223 144v553h-225v112h350v-839h225v-113zM1084 1100l-348 160l-348 -160l-39 78l387 219l387 -219z" />
    <glyph glyph-name="udieresis" unicode="&#xfc;" horiz-adv-x="1542"
d="M1501 0h-350v180q-155 -148 -370 -196q-74 -16 -160 -17q-175 0 -269 88t-94 244v541h-225v112h350v-616q1 -208 163 -244q52 -12 120 -12q130 0 262 63t223 144v553h-225v112h350v-839h225v-113zM871 1268q25 26 63 26q36 0 62 -26t26 -64q0 -36 -26 -62t-62 -26
q-38 0 -63 26t-25 62q0 38 25 64zM449 1204q1 38 25 64t61 26t63 -26t27 -64q-1 -36 -27 -62t-63 -26t-61 26t-25 62z" />
    <glyph glyph-name="yacute" unicode="&#xfd;" horiz-adv-x="1358"
d="M1358 840h-189l-393 -770q-38 -74 -70 -138t-66 -118q-73 -115 -163 -171q-89 -57 -230 -57t-243 68l55 106q68 -44 110 -53q42 -10 95 -10q113 0 190 69t156 226l-424 848h-186v112h494v-112h-164l348 -717l354 717h-168v112h494v-112zM1032 1284l-440 -186l-41 84
l428 213z" />
    <glyph glyph-name="thorn" unicode="&#xfe;" horiz-adv-x="1497"
d="M1276 479q0 191 -114 292t-345 101t-440 -186v-489q173 -117 407 -117t363 104t129 295zM377 -281h225v-112h-575v112h225v1545h-225v112h350v-563q100 83 183 114q143 52 271 52q128 1 226 -29t174 -92t122 -156q46 -96 46 -227q0 -245 -180 -381q-161 -121 -401 -121
t-441 113v-367z" />
    <glyph glyph-name="ydieresis" unicode="&#xff;" horiz-adv-x="1358"
d="M1358 840h-189l-393 -770q-38 -74 -70 -138t-66 -118q-73 -115 -163 -171q-89 -57 -230 -57t-243 68l55 106q68 -44 110 -53q42 -10 95 -10q113 0 190 69t156 226l-424 848h-186v112h494v-112h-164l348 -717l354 717h-168v112h494v-112zM813 1268q25 26 63 26
q36 0 62 -26t26 -64q0 -36 -26 -62t-62 -26q-38 0 -63 26t-25 62q0 38 25 64zM391 1204q1 38 25 64t61 26t63 -26t27 -64q-1 -36 -27 -62t-63 -26t-61 26t-25 62z" />
    <glyph glyph-name="Amacron" unicode="&#x100;" horiz-adv-x="1913"
d="M956 1253l-352 -673h705zM444 1374h586l660 -1261h264v-113h-699v113h297l-182 354h-827l-185 -354h299v-113h-698v113h264l600 1149h-379v112zM618 1533v113h549v-113h-549z" />
    <glyph glyph-name="amacron" unicode="&#x101;" horiz-adv-x="1389"
d="M221 260q0 -180 301 -180q119 0 267 48t217 103v289q-620 -22 -744 -158q-40 -44 -41 -102zM492 -27q-281 -1 -366 159q-28 52 -28 122q0 198 260 284q200 67 648 87v47q0 101 -101 150q-101 50 -221 50q-200 0 -284 -40t-109 -119l-127 30q32 112 152 174t329 62
q345 -1 449 -177q36 -62 36 -151v-538h238v-113h-362v111q-276 -138 -514 -138zM379 1130v113h549v-113h-549z" />
    <glyph glyph-name="Abreve" unicode="&#x102;" horiz-adv-x="1913"
d="M956 1253l-352 -673h705zM444 1374h586l660 -1261h264v-113h-699v113h297l-182 354h-827l-185 -354h299v-113h-698v113h264l600 1149h-379v112zM892 1515q-160 0 -253 82q-69 60 -92 156h116q29 -85 130 -121q41 -14 99 -15q103 0 159 43t73 93h115q-37 -155 -195 -215
q-62 -24 -152 -23z" />
    <glyph glyph-name="abreve" unicode="&#x103;" horiz-adv-x="1389"
d="M221 260q0 -180 301 -180q119 0 267 48t217 103v289q-620 -22 -744 -158q-40 -44 -41 -102zM492 -27q-281 -1 -366 159q-28 52 -28 122q0 198 260 284q200 67 648 87v47q0 101 -101 150q-101 50 -221 50q-200 0 -284 -40t-109 -119l-127 30q32 112 152 174t329 62
q345 -1 449 -177q36 -62 36 -151v-538h238v-113h-362v111q-276 -138 -514 -138zM654 1112q-160 0 -254 82q-69 60 -92 156h116q29 -86 130 -122q42 -14 100 -14q103 0 158 43q56 43 73 93h115q-38 -154 -196 -214q-60 -24 -150 -24z" />
    <glyph glyph-name="Aogonek" unicode="&#x104;" horiz-adv-x="1913"
d="M956 1253l-352 -673h705zM1518 -205q0 114 155 205h-418v113h297l-182 354h-827l-185 -354h299v-113h-698v113h264l600 1149h-379v112h586l660 -1261h264v-113h-166q-156 -102 -156 -182t131 -80q84 0 154 35l37 -90q-74 -39 -203 -39q-233 0 -233 151z" />
    <glyph glyph-name="aogonek" unicode="&#x105;" horiz-adv-x="1389"
d="M221 260q0 -180 301 -180q119 0 267 48t217 103v289q-620 -22 -744 -158q-40 -44 -41 -102zM492 -27q-281 -1 -366 159q-28 52 -28 122q0 198 260 284q200 67 648 87v47q0 101 -101 150q-101 50 -221 50q-200 0 -284 -40t-109 -119l-127 30q32 112 152 174t329 62
q345 -1 449 -177q36 -62 36 -151v-538h238v-113q-141 -9 -221 -67t-80 -115q0 -80 131 -80q84 0 154 35l37 -90q-80 -39 -203 -39q-234 0 -234 151q0 128 172 205h-118v111q-276 -138 -514 -138z" />
    <glyph glyph-name="Cacute" unicode="&#x106;" horiz-adv-x="1860"
d="M1599 860v80q0 163 -172 254q-172 92 -390 92q-401 0 -583 -159t-182 -440t188 -440t530 -159q343 0 520 162q58 54 89 125h138q-117 -285 -472 -372q-123 -30 -291 -30t-324 45t-270 134t-180 223q-65 134 -65 311q0 344 240 529q240 184 624 184q304 -1 499 -107
q54 -30 101 -57v139h113v-514h-113zM1354 1687l-440 -186l-41 84l428 213z" />
    <glyph glyph-name="cacute" unicode="&#x107;" horiz-adv-x="1333"
d="M1112 958h109v-374h-109v47q0 113 -136 180q-117 57 -249 57q-244 0 -371 -104t-127 -287q1 -183 125 -288q125 -105 362 -105q238 0 347 124q30 34 45 68h129q-114 -301 -543 -301q-266 0 -431 132t-165 368t171 370t432 134q262 0 411 -123v102zM1053 1284l-440 -186
l-41 84l428 213z" />
    <glyph glyph-name="Ccircumflex" unicode="&#x108;" horiz-adv-x="1860"
d="M1599 860v80q0 163 -172 254q-172 92 -390 92q-401 0 -583 -159t-182 -440t188 -440t530 -159q343 0 520 162q58 54 89 125h138q-117 -285 -472 -372q-123 -30 -291 -30t-324 45t-270 134t-180 223q-65 134 -65 311q0 344 240 529q240 184 624 184q304 -1 499 -107
q54 -30 101 -57v139h113v-514h-113zM1348 1503l-348 160l-348 -160l-39 78l387 219l387 -219z" />
    <glyph glyph-name="ccircumflex" unicode="&#x109;" horiz-adv-x="1333"
d="M1112 958h109v-374h-109v47q0 113 -136 180q-117 57 -249 57q-244 0 -371 -104t-127 -287q1 -183 125 -288q125 -105 362 -105q238 0 347 124q30 34 45 68h129q-114 -301 -543 -301q-266 0 -431 132t-165 368t171 370t432 134q262 0 411 -123v102zM1047 1100l-348 160
l-348 -160l-39 78l387 219l387 -219z" />
    <glyph glyph-name="Cdotaccent" unicode="&#x10a;" horiz-adv-x="1860"
d="M1599 860v80q0 163 -172 254q-172 92 -390 92q-401 0 -583 -159t-182 -440t188 -440t530 -159q343 0 520 162q58 54 89 125h138q-117 -285 -472 -372q-123 -30 -291 -30t-324 45t-270 134t-180 223q-65 134 -65 311q0 344 240 529q240 184 624 184q304 -1 499 -107
q54 -30 101 -57v139h113v-514h-113zM935 1680q27 28 66 28t67 -28t28 -58t-8 -47t-20 -29t-30 -20q-18 -7 -38 -7t-36 7q-16 8 -30 20q-26 26 -26 66t27 68z" />
    <glyph glyph-name="cdotaccent" unicode="&#x10b;" horiz-adv-x="1333"
d="M1112 958h109v-374h-109v47q0 113 -136 180q-117 57 -249 57q-244 0 -371 -104t-127 -287q1 -183 125 -288q125 -105 362 -105q238 0 347 124q30 34 45 68h129q-114 -301 -543 -301q-266 0 -431 132t-165 368t171 370t432 134q262 0 411 -123v102zM634 1277q27 28 66 28
t67 -28t28 -58q1 -30 -7 -47q-8 -18 -21 -30t-31 -19t-37 -7q-21 0 -37 7t-28 19q-26 26 -27 67q0 40 27 68z" />
    <glyph glyph-name="Ccaron" unicode="&#x10c;" horiz-adv-x="1860"
d="M1599 860v80q0 163 -172 254q-172 92 -390 92q-401 0 -583 -159t-182 -440t188 -440t530 -159q343 0 520 162q58 54 89 125h138q-117 -285 -472 -372q-123 -30 -291 -30t-324 45t-270 134t-180 223q-65 134 -65 311q0 344 240 529q240 184 624 184q304 -1 499 -107
q54 -30 101 -57v139h113v-514h-113zM1387 1720l-387 -219l-387 219l39 78l348 -160l348 160z" />
    <glyph glyph-name="ccaron" unicode="&#x10d;" horiz-adv-x="1333"
d="M1112 958h109v-374h-109v47q0 113 -136 180q-117 57 -249 57q-244 0 -371 -104t-127 -287q1 -183 125 -288q125 -105 362 -105q238 0 347 124q30 34 45 68h129q-114 -301 -543 -301q-266 0 -431 132t-165 368t171 370t432 134q262 0 411 -123v102zM1086 1317l-387 -219
l-387 219l39 78l348 -160l348 160z" />
    <glyph glyph-name="Dcaron" unicode="&#x10e;"
d="M1739 660q0 140 -22 226t-63 150q-78 120 -223 172t-356 52h-581v-1145h581q321 1 479 119q88 66 136 176q49 110 49 250zM82 1374h993q371 0 565 -146q228 -170 228 -540q0 -592 -576 -674q-102 -14 -215 -14h-995v113h287v1149h-287v112zM1309 1720l-387 -219l-387 219
l39 78l348 -160l348 160z" />
    <glyph glyph-name="dcaron" unicode="&#x10f;" horiz-adv-x="1661"
d="M221 478q0 -190 115 -294t342 -104t442 192v457q-194 143 -421 143t-352 -103q-126 -102 -126 -291zM1120 1262h-227v112h352v-1261h225v-113h-350v139q-211 -166 -458 -166t-405 132q-159 132 -159 375q0 244 164 372q164 127 400 127q237 0 458 -123v406zM1495 1101
h-100l39 273h143z" />
    <glyph glyph-name="Dcroat" unicode="&#x110;"
d="M494 643v-528h581q321 1 479 119q186 139 185 456q0 317 -185 452q-162 118 -479 118h-581v-508h489v-109h-489zM82 1374h993q371 0 565 -146q228 -170 228 -540q0 -592 -576 -674q-102 -14 -215 -14h-995v113h287v530h-287v109h287v510h-287v112z" />
    <glyph glyph-name="dcroat" unicode="&#x111;" horiz-adv-x="1497"
d="M221 478q0 -190 115 -294t342 -104t442 192v457q-194 143 -421 143t-352 -103q-126 -102 -126 -291zM1120 1047h-354v108h354v107h-227v112h352v-219h217v-108h-217v-934h225v-113h-350v139q-211 -166 -458 -166t-405 132q-159 132 -159 375q0 244 164 372
q164 127 400 127q237 0 458 -123v191z" />
    <glyph glyph-name="Emacron" unicode="&#x112;" horiz-adv-x="1755"
d="M1485 963v294h-991v-473h763v-116h-763v-551h1005v315h113v-432h-1530v113h287v1149h-287v112h1515v-411h-112zM655 1533v113h549v-113h-549z" />
    <glyph glyph-name="emacron" unicode="&#x113;" horiz-adv-x="1329"
d="M674 -25q-264 0 -420 134t-156 359t162 365t420 140t407 -143q148 -143 148 -392v-22h-1008q14 -154 131 -242q116 -88 316 -88q334 0 424 190h125q-117 -301 -549 -301zM680 862q-201 0 -318 -96q-116 -96 -135 -242h879q-17 232 -240 310q-78 28 -186 28zM401 1130v113
h549v-113h-549z" />
    <glyph glyph-name="Ebreve" unicode="&#x114;" horiz-adv-x="1755"
d="M1485 963v294h-991v-473h763v-116h-763v-551h1005v315h113v-432h-1530v113h287v1149h-287v112h1515v-411h-112zM930 1515q-160 0 -254 82q-69 60 -92 156h116q29 -85 130 -121q42 -14 100 -15q103 0 158 43q56 43 73 93h115q-38 -155 -196 -215q-60 -24 -150 -23z" />
    <glyph glyph-name="ebreve" unicode="&#x115;" horiz-adv-x="1329"
d="M674 -25q-264 0 -420 134t-156 359t162 365t420 140t407 -143q148 -143 148 -392v-22h-1008q14 -154 131 -242q116 -88 316 -88q334 0 424 190h125q-117 -301 -549 -301zM680 862q-201 0 -318 -96q-116 -96 -135 -242h879q-17 232 -240 310q-78 28 -186 28zM676 1112
q-160 0 -254 82q-69 60 -92 156h116q29 -86 130 -122q42 -14 100 -14q103 0 158 43q56 43 73 93h115q-38 -154 -196 -214q-60 -24 -150 -24z" />
    <glyph glyph-name="Edotaccent" unicode="&#x116;" horiz-adv-x="1755"
d="M1485 963v294h-991v-473h763v-116h-763v-551h1005v315h113v-432h-1530v113h287v1149h-287v112h1515v-411h-112zM865 1680q27 28 66 28t67 -28t28 -58t-8 -47t-20 -29t-30 -20q-18 -7 -38 -7t-36 7q-16 8 -30 20q-26 26 -26 66t27 68z" />
    <glyph glyph-name="edotaccent" unicode="&#x117;" horiz-adv-x="1329"
d="M674 -25q-264 0 -420 134t-156 359t162 365t420 140t407 -143q148 -143 148 -392v-22h-1008q14 -154 131 -242q116 -88 316 -88q334 0 424 190h125q-117 -301 -549 -301zM680 862q-201 0 -318 -96q-116 -96 -135 -242h879q-17 232 -240 310q-78 28 -186 28zM611 1277
q27 28 66 28t67 -28t28 -58t-8 -47q-8 -18 -20 -30t-30 -19t-38 -7t-36 7t-30 19q-26 26 -26 67q0 40 27 68z" />
    <glyph glyph-name="Eogonek" unicode="&#x118;" horiz-adv-x="1755"
d="M1196 -205q0 69 46 117t130 88h-1290v113h287v1149h-287v112h1515v-411h-112v294h-991v-473h763v-116h-763v-551h1005v315h113v-432q-153 -22 -227 -74t-74 -108q0 -80 131 -80q86 0 153 35l37 -90q-74 -39 -202 -39q-234 0 -234 151z" />
    <glyph glyph-name="eogonek" unicode="&#x119;" horiz-adv-x="1329"
d="M680 862q-201 0 -318 -96q-116 -96 -135 -242h879q-17 232 -240 310q-78 28 -186 28zM640 -25q-98 1 -204 35t-181 98q-157 135 -157 360t162 365t420 140t407 -143q148 -143 148 -392v-22h-1008q14 -154 131 -242q116 -88 316 -88q334 0 424 190h125q-62 -164 -248 -251
q-63 -28 -112 -73q-93 -85 -93 -134q0 -80 131 -80q84 0 154 35l37 -90q-74 -39 -203 -39q-234 0 -234 151q0 104 127 187q-45 -7 -142 -7z" />
    <glyph glyph-name="Ecaron" unicode="&#x11a;" horiz-adv-x="1755"
d="M1485 963v294h-991v-473h763v-116h-763v-551h1005v315h113v-432h-1530v113h287v1149h-287v112h1515v-411h-112zM1317 1720l-387 -219l-387 219l39 78l348 -160l348 160z" />
    <glyph glyph-name="ecaron" unicode="&#x11b;" horiz-adv-x="1329"
d="M674 -25q-264 0 -420 134t-156 359t162 365t420 140t407 -143q148 -143 148 -392v-22h-1008q14 -154 131 -242q116 -88 316 -88q334 0 424 190h125q-117 -301 -549 -301zM680 862q-201 0 -318 -96q-116 -96 -135 -242h879q-17 232 -240 310q-78 28 -186 28zM1063 1317
l-387 -219l-387 219l39 78l348 -160l348 160z" />
    <glyph glyph-name="Gcircumflex" unicode="&#x11c;" horiz-adv-x="1993"
d="M1053 84q287 0 518 104v383h-348v113h657v-113h-184v-571h-125v61q-219 -88 -529 -88q-407 0 -657 182t-250 530q-1 349 257 539q237 176 618 175q255 0 458 -84q58 -24 111 -51v131h113v-514h-113v153q0 111 -187 186q-165 66 -366 66q-389 0 -576 -156
q-186 -156 -186 -436q0 -281 202 -446q203 -164 587 -164zM1362 1503l-348 160l-348 -160l-39 78l387 219l387 -219z" />
    <glyph glyph-name="gcircumflex" unicode="&#x11d;" horiz-adv-x="1497"
d="M221 478q0 -190 115 -294t342 -104t442 192v457q-194 143 -421 143t-352 -103q-126 -102 -126 -291zM1120 952h350v-112h-225v-768q1 -348 -331 -450q-114 -36 -266 -36q-278 0 -482 101l57 110q164 -100 418 -100q353 0 445 195q34 70 34 176v71q-211 -166 -458 -166
t-405 132q-159 132 -159 375q0 244 164 372q164 127 400 127q237 0 458 -123v96zM1028 1100l-348 160l-348 -160l-39 78l387 219l387 -219z" />
    <glyph glyph-name="Gbreve" unicode="&#x11e;" horiz-adv-x="1993"
d="M1053 84q287 0 518 104v383h-348v113h657v-113h-184v-571h-125v61q-219 -88 -529 -88q-407 0 -657 182t-250 530q-1 349 257 539q237 176 618 175q255 0 458 -84q58 -24 111 -51v131h113v-514h-113v153q0 111 -187 186q-165 66 -366 66q-389 0 -576 -156
q-186 -156 -186 -436q0 -281 202 -446q203 -164 587 -164zM1014 1515q-160 0 -254 82q-69 60 -92 156h116q29 -85 130 -121q42 -14 100 -15q103 0 158 43q56 43 73 93h115q-38 -155 -196 -215q-60 -24 -150 -23z" />
    <glyph glyph-name="gbreve" unicode="&#x11f;" horiz-adv-x="1497"
d="M221 478q0 -190 115 -294t342 -104t442 192v457q-194 143 -421 143t-352 -103q-126 -102 -126 -291zM1120 952h350v-112h-225v-768q1 -348 -331 -450q-114 -36 -266 -36q-278 0 -482 101l57 110q164 -100 418 -100q353 0 445 195q34 70 34 176v71q-211 -166 -458 -166
t-405 132q-159 132 -159 375q0 244 164 372q164 127 400 127q237 0 458 -123v96zM680 1112q-160 0 -254 82q-69 60 -92 156h116q29 -86 130 -122q42 -14 100 -14q103 0 158 43q56 43 73 93h115q-38 -154 -196 -214q-60 -24 -150 -24z" />
    <glyph glyph-name="Gdotaccent" unicode="&#x120;" horiz-adv-x="1993"
d="M1053 84q287 0 518 104v383h-348v113h657v-113h-184v-571h-125v61q-219 -88 -529 -88q-407 0 -657 182t-250 530q-1 349 257 539q237 176 618 175q255 0 458 -84q58 -24 111 -51v131h113v-514h-113v153q0 111 -187 186q-165 66 -366 66q-389 0 -576 -156
q-186 -156 -186 -436q0 -281 202 -446q203 -164 587 -164zM949 1680q27 28 66 28t67 -28t28 -58t-8 -47t-20 -29t-30 -20q-18 -7 -38 -7t-36 7q-16 8 -30 20q-26 26 -26 66t27 68z" />
    <glyph glyph-name="gdotaccent" unicode="&#x121;" horiz-adv-x="1497"
d="M221 478q0 -190 115 -294t342 -104t442 192v457q-194 143 -421 143t-352 -103q-126 -102 -126 -291zM1120 952h350v-112h-225v-768q1 -348 -331 -450q-114 -36 -266 -36q-278 0 -482 101l57 110q164 -100 418 -100q353 0 445 195q34 70 34 176v71q-211 -166 -458 -166
t-405 132q-159 132 -159 375q0 244 164 372q164 127 400 127q237 0 458 -123v96zM615 1277q27 28 66 28t67 -28t28 -58t-8 -47q-8 -18 -20 -30t-30 -19t-38 -7t-36 7t-30 19q-26 26 -26 67q0 40 27 68z" />
    <glyph glyph-name="Gcommaaccent" unicode="&#x122;" horiz-adv-x="1993"
d="M1053 84q287 0 518 104v383h-348v113h657v-113h-184v-571h-125v61q-219 -88 -529 -88q-407 0 -657 182t-250 530q-1 349 257 539q237 176 618 175q255 0 458 -84q58 -24 111 -51v131h113v-514h-113v153q0 111 -187 186q-165 66 -366 66q-389 0 -576 -156
q-186 -156 -186 -436q0 -281 202 -446q203 -164 587 -164zM1026 -435h-101l39 273h144z" />
    <glyph glyph-name="gcommaaccent" unicode="&#x123;" horiz-adv-x="1497"
d="M786 1173q0 -27 -26 -51t-67 -24q-43 0 -69 28t-26 86q0 104 102 193l52 -33q-40 -40 -48 -62q-8 -21 -14 -42q73 0 91 -53q5 -15 5 -42zM221 478q0 -190 115 -294t342 -104t442 192v457q-194 143 -421 143t-352 -103q-126 -102 -126 -291zM641 -303q479 0 479 356v86
q-211 -166 -458 -166t-405 132q-159 132 -159 375q0 244 164 372q164 127 400 127q237 0 458 -123v96h350v-112h-225v-789q1 -329 -331 -430q-114 -35 -266 -35q-278 0 -482 101l57 110q164 -100 418 -100z" />
    <glyph glyph-name="Hcircumflex" unicode="&#x124;" horiz-adv-x="2218"
d="M82 1374h698v-112h-286v-480h1230v480h-286v112h698v-112h-287v-1149h287v-113h-698v113h286v553h-1230v-553h286v-113h-698v113h287v1149h-287v112zM1458 1503l-348 160l-348 -160l-39 78l387 219l387 -219z" />
    <glyph glyph-name="hcircumflex" unicode="&#x125;" horiz-adv-x="1548"
d="M47 1374h350v-602q155 148 371 196q74 16 160 17q174 0 268 -88t94 -244v-540h226v-113h-576v113h225v503q-1 208 -163 244q-52 12 -120 12q-129 0 -262 -63t-223 -143v-553h226v-113h-576v113h225v1149h-225v112zM648 1503l-348 160l-348 -160l-39 78l387 219l387 -219z
" />
    <glyph glyph-name="Hbar" unicode="&#x126;" horiz-adv-x="2218"
d="M1724 782v189h-1230v-189h1230zM82 1374h698v-112h-286v-187h1230v187h-286v112h698v-112h-287v-187h226v-104h-226v-858h287v-113h-698v113h286v553h-1230v-553h286v-113h-698v113h287v858h-226v104h226v187h-287v112z" />
    <glyph glyph-name="hbar" unicode="&#x127;" horiz-adv-x="1548"
d="M397 1047v-275q155 148 371 196q74 16 160 17q174 0 268 -88t94 -244v-540h226v-113h-576v113h225v503q-1 208 -163 244q-52 12 -120 12q-129 0 -262 -63t-223 -143v-553h226v-113h-576v113h225v934h-211v108h211v107h-225v112h350v-219h361v-108h-361z" />
    <glyph glyph-name="Itilde" unicode="&#x128;" horiz-adv-x="862"
d="M82 1374h698v-112h-286v-1149h286v-113h-698v113h287v1149h-287v112zM601 1617q77 0 88 121h96q0 -118 -70 -184q-47 -44 -106 -43q-59 0 -105 19q-46 20 -88 42t-80 41t-70 19q-77 0 -89 -121h-97q0 134 95 201q37 26 86 26t92 -19t87 -41l84 -42q41 -19 77 -19z" />
    <glyph glyph-name="itilde" unicode="&#x129;" horiz-adv-x="655"
d="M47 952h350v-839h226v-113h-576v113h225v727h-225v112zM444 1214q77 0 88 121h96q0 -117 -70 -183q-47 -44 -106 -44q-58 0 -104 19t-88 41t-82 42q-38 19 -69 19q-77 0 -89 -121h-97q0 134 95 201q37 26 86 26t92 -19q42 -20 86 -42t85 -41t77 -19z" />
    <glyph glyph-name="Imacron" unicode="&#x12a;" horiz-adv-x="862"
d="M82 1374h698v-112h-286v-1149h286v-113h-698v113h287v1149h-287v112zM156 1533v113h549v-113h-549z" />
    <glyph glyph-name="imacron" unicode="&#x12b;" horiz-adv-x="655"
d="M47 952h350v-839h226v-113h-576v113h225v727h-225v112zM-1 1130v113h549v-113h-549z" />
    <glyph glyph-name="Ibreve" unicode="&#x12c;" horiz-adv-x="862"
d="M82 1374h698v-112h-286v-1149h286v-113h-698v113h287v1149h-287v112zM430 1515q-160 0 -253 82q-69 60 -92 156h116q29 -85 130 -121q41 -14 99 -15q103 0 159 43t73 93h115q-37 -155 -195 -215q-62 -24 -152 -23z" />
    <glyph glyph-name="ibreve" unicode="&#x12d;" horiz-adv-x="655"
d="M47 952h350v-839h226v-113h-576v113h225v727h-225v112zM274 1112q-160 0 -254 82q-69 60 -92 156h116q29 -86 130 -122q42 -14 100 -14q103 0 158 43q56 43 73 93h115q-38 -154 -196 -214q-60 -24 -150 -24z" />
    <glyph glyph-name="Iogonek" unicode="&#x12e;" horiz-adv-x="862"
d="M201 -205q0 114 155 205h-274v113h287v1149h-287v112h698v-112h-286v-1149h286v-113h-309q-156 -102 -156 -182t131 -80q84 0 154 35l37 -90q-74 -39 -203 -39q-233 0 -233 151z" />
    <glyph glyph-name="iogonek" unicode="&#x12f;" horiz-adv-x="655"
d="M209 1219q1 23 9 43t23 36q15 15 35 24t43 9t43 -9t36 -24q16 -16 25 -36t9 -43t-9 -43t-25 -36t-36 -24t-43 -8t-43 8t-35 24t-23 36t-9 43zM111 -205q0 114 155 205h-219v113h225v727h-225v112h350v-839h226v-113h-242q-156 -102 -156 -182t131 -80q84 0 154 35l37 -90
q-74 -39 -203 -39q-233 0 -233 151z" />
    <glyph glyph-name="Idotaccent" unicode="&#x130;" horiz-adv-x="862"
d="M82 1374h698v-112h-286v-1149h286v-113h-698v113h287v1149h-287v112zM366 1680q27 28 66 28t67 -28t28 -58q1 -30 -7 -47t-21 -29t-31 -20q-18 -7 -37 -7q-21 0 -37 7q-16 8 -28 20q-26 26 -27 66q0 40 27 68z" />
    <glyph glyph-name="dotlessi" unicode="&#x131;" horiz-adv-x="655"
d="M47 952h350v-839h226v-113h-576v113h225v727h-225v112z" />
    <glyph glyph-name="IJ" unicode="&#x132;" horiz-adv-x="2322"
d="M82 1374h698v-112h-286v-1149h286v-113h-698v113h287v1149h-287v112zM1890 453v809h-307v112h719v-112h-287v-822q0 -222 -146 -339t-395 -117q-382 0 -492 251q-38 85 -38 199h125q10 -336 415 -336q406 0 406 355z" />
    <glyph glyph-name="ij" unicode="&#x133;" horiz-adv-x="1313"
d="M209 1219q1 23 9 43t23 36q15 15 35 24t43 9t43 -9t36 -24q16 -16 25 -36t9 -43t-9 -43t-25 -36t-36 -24t-43 -8t-43 8t-35 24t-23 36t-9 43zM47 952h350v-839h226v-113h-576v113h225v727h-225v112zM899 1219q1 23 9 43t23 36q15 15 35 24t43 9t43 -9t36 -24
q16 -16 25 -36t9 -43t-9 -43t-25 -36t-36 -24t-43 -8t-43 8t-35 24t-23 36t-9 43zM630 -244q66 -59 166 -59t144 48q43 48 43 161v934h-226v112h351v-1046q0 -320 -306 -320q-132 0 -223 68z" />
    <glyph glyph-name="Jcircumflex" unicode="&#x134;" horiz-adv-x="1460"
d="M1028 453v809h-307v112h719v-112h-287v-822q0 -222 -146 -339t-395 -117q-382 0 -492 251q-38 85 -38 199h125q10 -336 415 -336q406 0 406 355zM1440 1503l-348 160l-348 -160l-39 78l387 219l387 -219z" />
    <glyph glyph-name="jcircumflex" unicode="&#x135;" horiz-adv-x="657"
d="M-25 -244q66 -59 166 -59t144 48q43 48 43 161v934h-226v112h351v-1046q0 -320 -306 -320q-132 0 -223 68zM677 1100l-348 160l-348 -160l-39 78l387 219l387 -219z" />
    <glyph glyph-name="Kcommaaccent" unicode="&#x136;" horiz-adv-x="1907"
d="M82 1374h698v-112h-286v-535l817 535h-160v112h678v-112h-326l-729 -478l8 2l820 -673h284v-113h-698v113h235l-743 610l-186 -121v-489h286v-113h-698v113h287v1149h-287v112zM963 -416h-101l39 273h144z" />
    <glyph glyph-name="kcommaaccent" unicode="&#x137;" horiz-adv-x="1487"
d="M1475 113v-113h-576v113h154l-471 442l-185 -113v-329h226v-113h-576v113h225v1149h-225v112h350v-807l463 281q202 121 350 121q79 0 154 -23l-37 -110q-60 20 -103 20q-84 0 -147 -19t-162 -79l-237 -144l539 -501h258zM752 -416h-101l39 273h144z" />
    <glyph glyph-name="kgreenlandic" unicode="&#x138;" horiz-adv-x="1487"
d="M1475 113v-113h-576v113h154l-471 442l-185 -113v-329h226v-113h-576v113h225v727h-225v112h350v-385l463 281q202 121 350 121q79 0 154 -23l-37 -110q-60 20 -103 20q-84 0 -147 -19t-162 -79l-237 -144l539 -501h258z" />
    <glyph glyph-name="Lacute" unicode="&#x139;" horiz-adv-x="1683"
d="M82 1374h698v-112h-286v-1145h995v315h113v-432h-1520v113h287v1149h-287v112zM785 1687l-440 -186l-41 84l428 213z" />
    <glyph glyph-name="lacute" unicode="&#x13a;" horiz-adv-x="637"
d="M-20 1374h350v-1063q0 -116 39 -153t141 -37h98v-121h-96q-166 0 -236 68q-71 68 -71 247v947h-225v112zM560 1687l-440 -186l-41 84l428 213z" />
    <glyph glyph-name="Lcommaaccent" unicode="&#x13b;" horiz-adv-x="1683"
d="M82 1374h698v-112h-286v-1145h995v315h113v-432h-1520v113h287v1149h-287v112zM891 -416h-101l39 273h144z" />
    <glyph glyph-name="lcommaaccent" unicode="&#x13c;" horiz-adv-x="637"
d="M-20 1374h350v-1063q0 -116 39 -153t141 -37h98v-121h-96q-166 0 -236 68q-71 68 -71 247v947h-225v112zM349 -416h-101l39 273h144z" />
    <glyph glyph-name="Lcaron" unicode="&#x13d;" horiz-adv-x="1683"
d="M82 1374h698v-112h-286v-1145h995v315h113v-432h-1520v113h287v1149h-287v112zM1237 1101h-100l39 273h143z" />
    <glyph glyph-name="lcaron" unicode="&#x13e;" horiz-adv-x="745"
d="M-20 1374h350v-1063q0 -116 39 -153t141 -37h98v-121h-96q-166 0 -236 68q-71 68 -71 247v947h-225v112zM579 1101h-100l39 273h143z" />
    <glyph glyph-name="Ldot" unicode="&#x13f;" horiz-adv-x="1683"
d="M82 1374h698v-112h-286v-1145h995v315h113v-432h-1520v113h287v1149h-287v112zM1146 756q34 35 70 35q61 0 96 -35t35 -72q0 -62 -35 -95q-35 -34 -71 -34q-37 0 -59 9q-22 8 -36 24q-34 34 -34 84q0 49 34 84z" />
    <glyph glyph-name="ldotaccent" unicode="&#x140;" horiz-adv-x="934"
d="M-20 1374h350v-1063q0 -116 39 -153t141 -37h98v-121h-96q-166 0 -236 68q-71 68 -71 247v947h-225v112zM651 756q34 35 70 35q61 0 96 -35t35 -72q0 -62 -35 -95q-35 -34 -71 -34t-58 9q-22 8 -38 24q-34 34 -33 84q0 49 34 84z" />
    <glyph glyph-name="Lslash" unicode="&#x141;" horiz-adv-x="1683"
d="M494 117h995v315h113v-432h-1520v113h287v409l-248 -104l-43 102l291 123v619h-287v112h698v-112h-286v-566l340 146l43 -103l-383 -164v-458z" />
    <glyph glyph-name="lslash" unicode="&#x142;" horiz-adv-x="637"
d="M330 311q0 -116 39 -153t141 -37h98v-121h-96q-166 0 -236 68q-71 68 -71 247v303l-182 -77l-43 102l225 96v523h-225v112h350v-581l207 88l43 -103l-250 -106v-361z" />
    <glyph glyph-name="Nacute" unicode="&#x143;" horiz-adv-x="2171"
d="M82 1374h424l1192 -1214v1102h-287v112h698v-112h-286v-1262h-137l-1192 1210v-1097h286v-113h-698v113h287v1149h-287v112zM1393 1687l-440 -186l-41 84l428 213z" />
    <glyph glyph-name="nacute" unicode="&#x144;" horiz-adv-x="1548"
d="M47 952h350v-180q155 148 371 196q74 16 160 17q174 0 268 -88t94 -244v-540h226v-113h-576v113h225v503q-1 208 -163 244q-52 12 -120 12q-129 0 -262 -63t-223 -143v-553h226v-113h-576v113h225v727h-225v112zM1122 1284l-440 -186l-41 84l428 213z" />
    <glyph glyph-name="Ncommaaccent" unicode="&#x145;" horiz-adv-x="2171"
d="M82 1374h424l1192 -1214v1102h-287v112h698v-112h-286v-1262h-137l-1192 1210v-1097h286v-113h-698v113h287v1149h-287v112zM1135 -416h-101l39 273h144z" />
    <glyph glyph-name="ncommaaccent" unicode="&#x146;" horiz-adv-x="1548"
d="M47 952h350v-180q155 148 371 196q74 16 160 17q174 0 268 -88t94 -244v-540h226v-113h-576v113h225v503q-1 208 -163 244q-52 12 -120 12q-129 0 -262 -63t-223 -143v-553h226v-113h-576v113h225v727h-225v112zM783 -416h-101l39 273h144z" />
    <glyph glyph-name="Ncaron" unicode="&#x147;" horiz-adv-x="2171"
d="M82 1374h424l1192 -1214v1102h-287v112h698v-112h-286v-1262h-137l-1192 1210v-1097h286v-113h-698v113h287v1149h-287v112zM1426 1720l-387 -219l-387 219l39 78l348 -160l348 160z" />
    <glyph glyph-name="ncaron" unicode="&#x148;" horiz-adv-x="1548"
d="M47 952h350v-180q155 148 371 196q74 16 160 17q174 0 268 -88t94 -244v-540h226v-113h-576v113h225v503q-1 208 -163 244q-52 12 -120 12q-129 0 -262 -63t-223 -143v-553h226v-113h-576v113h225v727h-225v112zM1155 1317l-387 -219l-387 219l39 78l348 -160l348 160z
" />
    <glyph glyph-name="napostrophe" unicode="&#x149;" horiz-adv-x="1589"
d="M88 952h350v-180q155 148 371 196q73 16 159 17q174 0 269 -88q94 -88 94 -244v-540h226v-113h-576v113h225v503q0 208 -162 244q-52 12 -122 12q-129 0 -261 -63q-133 -63 -223 -143v-553h226v-113h-576v113h225v727h-225v112zM81 1102h-101l39 273h144z" />
    <glyph glyph-name="Eng" unicode="&#x14a;" horiz-adv-x="2171"
d="M1325 -291q165 0 257 69t112 216l-1200 1216v-1097h286v-113h-698v113h287v1149h-287v112h424l1192 -1214v1102h-287v112h698v-112h-286v-1190q0 -229 -130 -353q-130 -125 -370 -125q-187 0 -315 82l65 109q66 -48 179 -69q37 -7 73 -7z" />
    <glyph glyph-name="eng" unicode="&#x14b;" horiz-adv-x="1454"
d="M1290 -74q0 -319 -305 -319q-134 0 -223 67l51 103q60 -60 172 -60q138 0 169 111q11 40 11 98v690q-1 208 -163 244q-52 12 -120 12q-129 0 -262 -63t-223 -143v-553h226v-113h-576v113h225v727h-225v112h350v-180q155 148 371 196q74 16 160 17q174 0 268 -88t94 -244
v-727z" />
    <glyph glyph-name="Omacron" unicode="&#x14c;" horiz-adv-x="2015"
d="M1743 686q0 292 -184 445q-183 153 -549 153t-552 -154t-186 -446q0 -290 186 -443t552 -153t549 153q184 153 184 445zM1880 686q0 -354 -251 -542q-229 -172 -620 -171q-391 -1 -622 171q-252 187 -252 542q0 236 118 404q217 310 787 309q154 0 313 -42
q159 -41 276 -129q251 -188 251 -542zM735 1533v113h549v-113h-549z" />
    <glyph glyph-name="omacron" unicode="&#x14d;" horiz-adv-x="1419"
d="M1198 476q0 192 -122 294t-366 102q-242 0 -366 -102t-123 -295q-1 -193 123 -294t366 -101t366 102q122 102 122 294zM1321 475q0 -250 -168 -376t-443 -126q-274 0 -443 126t-169 376t171 377t442 127q426 1 563 -277q47 -96 47 -227zM436 1130v113h549v-113h-549z" />
    <glyph glyph-name="Obreve" unicode="&#x14e;" horiz-adv-x="2015"
d="M1743 686q0 292 -184 445q-183 153 -549 153t-552 -154t-186 -446q0 -290 186 -443t552 -153t549 153q184 153 184 445zM1880 686q0 -354 -251 -542q-229 -172 -620 -171q-391 -1 -622 171q-252 187 -252 542q0 236 118 404q217 310 787 309q154 0 313 -42
q159 -41 276 -129q251 -188 251 -542zM1010 1515q-160 0 -254 82q-69 60 -92 156h116q29 -85 130 -121q42 -14 100 -15q103 0 158 43q56 43 73 93h115q-38 -155 -196 -215q-60 -24 -150 -23z" />
    <glyph glyph-name="obreve" unicode="&#x14f;" horiz-adv-x="1419"
d="M1198 476q0 192 -122 294t-366 102q-242 0 -366 -102t-123 -295q-1 -193 123 -294t366 -101t366 102q122 102 122 294zM1321 475q0 -250 -168 -376t-443 -126q-274 0 -443 126t-169 376t171 377t442 127q426 1 563 -277q47 -96 47 -227zM710 1112q-160 0 -253 82
q-69 60 -92 156h116q29 -86 130 -122q41 -14 99 -14q103 0 159 43t73 93h115q-37 -154 -195 -214q-62 -24 -152 -24z" />
    <glyph glyph-name="Ohungarumlaut" unicode="&#x150;" horiz-adv-x="2015"
d="M1743 686q0 292 -184 445q-183 153 -549 153t-552 -154t-186 -446q0 -290 186 -443t552 -153t549 153q184 153 184 445zM1880 686q0 -354 -251 -542q-229 -172 -620 -171q-391 -1 -622 171q-252 187 -252 542q0 236 118 404q217 310 787 309q154 0 313 -42
q159 -41 276 -129q251 -188 251 -542zM1503 1687l-358 -186l-45 78l346 213zM1108 1687l-358 -186l-45 78l346 213z" />
    <glyph glyph-name="ohungarumlaut" unicode="&#x151;" horiz-adv-x="1419"
d="M1198 476q0 192 -122 294t-366 102q-242 0 -366 -102t-123 -295q-1 -193 123 -294t366 -101t366 102q122 102 122 294zM1321 475q0 -250 -168 -376t-443 -126q-274 0 -443 126t-169 376t171 377t442 127q426 1 563 -277q47 -96 47 -227zM1204 1284l-358 -186l-45 78
l346 213zM809 1284l-358 -186l-45 78l346 213z" />
    <glyph glyph-name="OE" unicode="&#x152;" horiz-adv-x="2730"
d="M272 686q0 -276 196 -424q196 -147 562 -147h354v1142h-354q-364 0 -561 -148t-197 -423zM2460 963v294h-951v-473h723v-116h-723v-551h965v315h113v-432h-1557q-390 0 -632 166q-262 180 -263 519q0 339 264 521q243 168 631 168h1542v-411h-112z" />
    <glyph glyph-name="oe" unicode="&#x153;" horiz-adv-x="2429"
d="M1780 862q-201 0 -318 -96q-116 -96 -135 -242h879q-17 232 -240 310q-78 28 -186 28zM710 80q483 0 488 391v23q-6 184 -128 281t-362 97t-364 -102t-123 -295q-1 -193 123 -294t366 -101zM1264 719q153 254 534 254q109 0 213 -37q104 -36 176 -106q148 -143 148 -392
v-22h-1008q14 -154 131 -242q116 -88 316 -88q334 0 424 190h124q-115 -301 -548 -301q-274 0 -430 143q-50 46 -84 105q-142 -250 -568 -250q-111 -1 -223 29q-113 30 -195 92q-176 132 -176 381q0 250 171 377t456 127t447 -144q56 -49 92 -116z" />
    <glyph glyph-name="Racute" unicode="&#x154;" horiz-adv-x="1972"
d="M1505 978q1 88 -29 144q-30 54 -98 84q-116 51 -458 51h-426v-552h421q345 1 459 49q70 30 100 82q30 54 31 142zM1053 588h-559v-475h286v-113h-698v113h287v1149h-287v112h971q457 0 556 -222q33 -74 33 -173q0 -155 -81 -247t-261 -126l381 -493h291v-113h-657v113
h213l-359 479q-54 -4 -116 -4zM1241 1687l-440 -186l-41 84l428 213z" />
    <glyph glyph-name="racute" unicode="&#x155;" horiz-adv-x="1047"
d="M818 864q-138 0 -260 -82q-76 -52 -161 -157v-512h246v-113h-596v113h225v727h-225v112h350v-200q194 227 441 227q89 0 162 -32q16 -7 22 -9l-45 -115q-78 41 -159 41zM915 1284l-440 -186l-41 84l428 213z" />
    <glyph glyph-name="Rcommaaccent" unicode="&#x156;" horiz-adv-x="1972"
d="M1505 978q1 88 -29 144q-30 54 -98 84q-116 51 -458 51h-426v-552h421q345 1 459 49q70 30 100 82q30 54 31 142zM1053 588h-559v-475h286v-113h-698v113h287v1149h-287v112h971q457 0 556 -222q33 -74 33 -173q0 -155 -81 -247t-261 -126l381 -493h291v-113h-657v113
h213l-359 479q-54 -4 -116 -4zM1016 -416h-101l39 273h144z" />
    <glyph glyph-name="rcommaaccent" unicode="&#x157;" horiz-adv-x="1047"
d="M818 864q-138 0 -260 -82q-76 -52 -161 -157v-512h246v-113h-596v113h225v727h-225v112h350v-200q194 227 441 227q89 0 162 -32q16 -7 22 -9l-45 -115q-78 41 -159 41zM333 -416h-101l39 273h144z" />
    <glyph glyph-name="Rcaron" unicode="&#x158;" horiz-adv-x="1972"
d="M1505 978q1 88 -29 144q-30 54 -98 84q-116 51 -458 51h-426v-552h421q345 1 459 49q70 30 100 82q30 54 31 142zM1053 588h-559v-475h286v-113h-698v113h287v1149h-287v112h971q457 0 556 -222q33 -74 33 -173q0 -155 -81 -247t-261 -126l381 -493h291v-113h-657v113
h213l-359 479q-54 -4 -116 -4zM1274 1720l-387 -219l-387 219l39 78l348 -160l348 160z" />
    <glyph glyph-name="rcaron" unicode="&#x159;" horiz-adv-x="1047"
d="M818 864q-138 0 -260 -82q-76 -52 -161 -157v-512h246v-113h-596v113h225v727h-225v112h350v-200q194 227 441 227q89 0 162 -32q16 -7 22 -9l-45 -115q-78 41 -159 41zM948 1317l-387 -219l-387 219l39 78l348 -160l348 160z" />
    <glyph glyph-name="Sacute" unicode="&#x15a;" horiz-adv-x="1665"
d="M885 -27q-469 0 -649 144v-117h-113v494h113v-142q0 -108 108 -174q154 -93 530 -92q377 0 496 134q43 48 43 116q1 66 -35 110t-98 78q-62 32 -142 54q-82 22 -174 42q-92 18 -189 36t-189 38q-208 49 -316 121q-132 88 -133 232q-1 247 349 323q136 30 269 29
q220 0 372 -43t216 -99v117h113v-432h-113v88q1 112 -143 184t-403 72q-525 0 -525 -235q0 -146 276 -220q119 -32 290 -65q170 -32 262 -56q216 -55 317 -126q133 -94 133 -236q0 -267 -380 -346q-140 -29 -285 -29zM1139 1687l-440 -186l-41 84l428 213z" />
    <glyph glyph-name="sacute" unicode="&#x15b;" horiz-adv-x="1190"
d="M120 735q0 250 451 250q207 0 354 -94v61h112v-321h-112v74q-1 113 -207 157q-79 16 -196 17q-118 0 -198 -31t-81 -113q-1 -99 187 -141q72 -16 193 -36q121 -18 183 -34q143 -35 224 -100q81 -64 81 -180q0 -192 -253 -250q-93 -22 -197 -21q-281 0 -443 115v-88h-112
v350h112v-61q0 -101 134 -159q115 -49 270 -50q366 0 366 170q0 117 -188 164q-83 21 -197 38q-115 16 -177 30q-146 30 -216 80q-90 64 -90 173zM922 1284l-440 -186l-41 84l428 213z" />
    <glyph glyph-name="Scircumflex" unicode="&#x15c;" horiz-adv-x="1665"
d="M885 -27q-469 0 -649 144v-117h-113v494h113v-142q0 -108 108 -174q154 -93 530 -92q377 0 496 134q43 48 43 116q1 66 -35 110t-98 78q-62 32 -142 54q-82 22 -174 42q-92 18 -189 36t-189 38q-208 49 -316 121q-132 88 -133 232q-1 247 349 323q136 30 269 29
q220 0 372 -43t216 -99v117h113v-432h-113v88q1 112 -143 184t-403 72q-525 0 -525 -235q0 -146 276 -220q119 -32 290 -65q170 -32 262 -56q216 -55 317 -126q133 -94 133 -236q0 -267 -380 -346q-140 -29 -285 -29zM1133 1503l-348 160l-348 -160l-39 78l387 219l387 -219
z" />
    <glyph glyph-name="scircumflex" unicode="&#x15d;" horiz-adv-x="1190"
d="M120 735q0 250 451 250q207 0 354 -94v61h112v-321h-112v74q-1 113 -207 157q-79 16 -196 17q-118 0 -198 -31t-81 -113q-1 -99 187 -141q72 -16 193 -36q121 -18 183 -34q143 -35 224 -100q81 -64 81 -180q0 -192 -253 -250q-93 -22 -197 -21q-281 0 -443 115v-88h-112
v350h112v-61q0 -101 134 -159q115 -49 270 -50q366 0 366 170q0 117 -188 164q-83 21 -197 38q-115 16 -177 30q-146 30 -216 80q-90 64 -90 173zM916 1100l-348 160l-348 -160l-39 78l387 219l387 -219z" />
    <glyph glyph-name="Scedilla" unicode="&#x15e;" horiz-adv-x="1665"
d="M963 -244q0 68 -121 68q-57 0 -103 -6l58 155q-200 5 -343 45t-218 99v-117h-113v494h113v-142q0 -108 108 -174q154 -93 530 -92q377 0 496 134q43 48 43 116q1 66 -35 110t-98 78q-62 32 -142 54q-82 22 -174 42q-92 18 -189 36t-189 38q-208 49 -316 121
q-132 88 -133 232q-1 247 349 323q136 30 269 29q220 0 372 -43t216 -99v117h113v-432h-113v88q1 112 -143 184t-403 72q-525 0 -525 -235q0 -146 276 -220q119 -32 290 -65q170 -32 262 -56q216 -55 317 -126q133 -94 133 -236q0 -258 -356 -340q-131 -30 -307 -35l-27 -71
q211 0 211 -144q0 -159 -250 -159q-122 0 -229 49l43 86q72 -45 178 -45q150 -1 150 67z" />
    <glyph glyph-name="scedilla" unicode="&#x15f;" horiz-adv-x="1190"
d="M119 735q0 250 451 250q207 0 354 -94v61h112v-321h-112v74q0 113 -207 157q-78 16 -196 17q-119 0 -199 -31t-80 -113q0 -99 188 -141q72 -16 192 -36q120 -18 182 -34q143 -35 225 -100q81 -64 81 -180q0 -192 -254 -250q-93 -22 -197 -21h-10l-26 -71q211 0 211 -144
q0 -159 -250 -159q-123 0 -230 49l43 86q72 -45 178 -45q150 -1 150 67t-121 68q-56 0 -102 -6l59 159q-219 22 -344 111v-88h-113v350h113v-61q0 -101 134 -159q115 -50 270 -50q366 0 366 170q1 117 -187 164q-83 21 -198 38q-116 16 -178 30q-144 30 -214 80
q-90 64 -91 173z" />
    <glyph glyph-name="Scaron" unicode="&#x160;" horiz-adv-x="1665"
d="M885 -27q-469 0 -649 144v-117h-113v494h113v-142q0 -108 108 -174q154 -93 530 -92q377 0 496 134q43 48 43 116q1 66 -35 110t-98 78q-62 32 -142 54q-82 22 -174 42q-92 18 -189 36t-189 38q-208 49 -316 121q-132 88 -133 232q-1 247 349 323q136 30 269 29
q220 0 372 -43t216 -99v117h113v-432h-113v88q1 112 -143 184t-403 72q-525 0 -525 -235q0 -146 276 -220q119 -32 290 -65q170 -32 262 -56q216 -55 317 -126q133 -94 133 -236q0 -267 -380 -346q-140 -29 -285 -29zM1172 1720l-387 -219l-387 219l39 78l348 -160l348 160z
" />
    <glyph glyph-name="scaron" unicode="&#x161;" horiz-adv-x="1190"
d="M120 735q0 250 451 250q207 0 354 -94v61h112v-321h-112v74q-1 113 -207 157q-79 16 -196 17q-118 0 -198 -31t-81 -113q-1 -99 187 -141q72 -16 193 -36q121 -18 183 -34q143 -35 224 -100q81 -64 81 -180q0 -192 -253 -250q-93 -22 -197 -21q-281 0 -443 115v-88h-112
v350h112v-61q0 -101 134 -159q115 -49 270 -50q366 0 366 170q0 117 -188 164q-83 21 -197 38q-115 16 -177 30q-146 30 -216 80q-90 64 -90 173zM955 1317l-387 -219l-387 219l39 78l348 -160l348 160z" />
    <glyph glyph-name="Tcommaaccent" unicode="&#x162;" horiz-adv-x="1657"
d="M80 881v493h1497v-493h-113v379h-573v-1147h307v-113h-739v113h307v1147h-573v-379h-113zM838 -416h-101l39 273h144z" />
    <glyph glyph-name="tcommaaccent" unicode="&#x163;" horiz-adv-x="1161"
d="M680 -25q-309 1 -392 163q-30 58 -30 143v559h-258v112h258v330h125v-330h670v-112h-670v-555q-1 -163 175 -192q54 -9 120 -9q211 0 364 92l62 -100q-178 -101 -424 -101zM649 -416h-101l39 273h144z" />
    <glyph glyph-name="Tcaron" unicode="&#x164;" horiz-adv-x="1657"
d="M80 881v493h1497v-493h-113v379h-573v-1147h307v-113h-739v113h307v1147h-573v-379h-113zM1215 1720l-387 -219l-387 219l39 78l348 -160l348 160z" />
    <glyph glyph-name="tcaron" unicode="&#x165;" horiz-adv-x="1161"
d="M680 -25q-309 1 -392 163q-30 58 -30 143v559h-258v112h258v330h125v-330h670v-112h-670v-555q-1 -163 175 -192q54 -9 120 -9q211 0 364 92l62 -100q-178 -101 -424 -101zM911 1081h-100l39 273h143z" />
    <glyph glyph-name="Tbar" unicode="&#x166;" horiz-adv-x="1657"
d="M766 791v469h-573v-379h-113v493h1497v-493h-113v379h-573v-469h463v-105h-463v-573h307v-113h-739v113h307v573h-465v105h465z" />
    <glyph glyph-name="tbar" unicode="&#x167;" horiz-adv-x="1161"
d="M680 -25q-309 1 -392 163q-30 58 -30 143v276h-225v105h225v178h-258v112h258v330h125v-330h670v-112h-670v-178h477v-105h-477v-272q-1 -163 175 -192q54 -9 120 -9q211 0 364 92l62 -100q-178 -101 -424 -101z" />
    <glyph glyph-name="Utilde" unicode="&#x168;"
d="M20 1374h699v-112h-287v-840q0 -145 151 -242q151 -96 417 -96q267 0 418 96t151 242v840h-287v112h698v-112h-286v-830q0 -211 -177 -335t-516 -124q-338 0 -516 124t-178 335v830h-287v112zM1170 1617q77 0 88 121h96q0 -118 -70 -184q-47 -44 -106 -43q-58 0 -104 19
q-46 20 -88 42t-82 41q-38 19 -69 19q-77 0 -89 -121h-97q0 134 95 201q37 26 86 26t92 -19q42 -19 86 -41t85 -42q41 -19 77 -19z" />
    <glyph glyph-name="utilde" unicode="&#x169;" horiz-adv-x="1542"
d="M1501 0h-350v180q-155 -148 -370 -196q-74 -16 -160 -17q-175 0 -269 88t-94 244v541h-225v112h350v-616q1 -208 163 -244q52 -12 120 -12q130 0 262 63t223 144v553h-225v112h350v-839h225v-113zM906 1214q77 0 88 121h96q0 -117 -70 -183q-47 -44 -106 -44
q-58 0 -104 19t-88 41t-82 42q-38 19 -69 19q-77 0 -89 -121h-97q0 134 95 201q37 26 86 26t92 -19q42 -20 86 -42t85 -41t77 -19z" />
    <glyph glyph-name="Umacron" unicode="&#x16a;"
d="M20 1374h699v-112h-287v-840q0 -145 151 -242q151 -96 417 -96q267 0 418 96t151 242v840h-287v112h698v-112h-286v-830q0 -211 -177 -335t-516 -124q-338 0 -516 124t-178 335v830h-287v112zM725 1533v113h549v-113h-549z" />
    <glyph glyph-name="umacron" unicode="&#x16b;" horiz-adv-x="1542"
d="M1501 0h-350v180q-155 -148 -370 -196q-74 -16 -160 -17q-175 0 -269 88t-94 244v541h-225v112h350v-616q1 -208 163 -244q52 -12 120 -12q130 0 262 63t223 144v553h-225v112h350v-839h225v-113zM461 1130v113h549v-113h-549z" />
    <glyph glyph-name="Ubreve" unicode="&#x16c;"
d="M20 1374h699v-112h-287v-840q0 -145 151 -242q151 -96 417 -96q267 0 418 96t151 242v840h-287v112h698v-112h-286v-830q0 -211 -177 -335t-516 -124q-338 0 -516 124t-178 335v830h-287v112zM1000 1515q-160 0 -254 82q-69 60 -92 156h116q29 -85 130 -121
q42 -14 100 -15q103 0 158 43q56 43 73 93h115q-38 -155 -196 -215q-60 -24 -150 -23z" />
    <glyph glyph-name="ubreve" unicode="&#x16d;" horiz-adv-x="1542"
d="M1501 0h-350v180q-155 -148 -370 -196q-74 -16 -160 -17q-175 0 -269 88t-94 244v541h-225v112h350v-616q1 -208 163 -244q52 -12 120 -12q130 0 262 63t223 144v553h-225v112h350v-839h225v-113zM736 1112q-160 0 -254 82q-69 60 -92 156h116q29 -86 130 -122
q42 -14 100 -14q103 0 158 43q56 43 73 93h115q-38 -154 -196 -214q-60 -24 -150 -24z" />
    <glyph glyph-name="Uring" unicode="&#x16e;"
d="M20 1374h699v-112h-287v-840q0 -145 151 -242q151 -96 417 -96q267 0 418 96t151 242v840h-287v112h698v-112h-286v-830q0 -211 -177 -335t-516 -124q-338 0 -516 124t-178 335v830h-287v112zM840 1664q0 -40 38 -68t122 -28t120 28t37 68q-1 41 -37 69t-120 28t-122 -28
t-38 -69zM738 1664q0 87 71 138t191 51q183 0 243 -110q19 -35 19 -79q0 -87 -72 -137q-72 -51 -190 -51q-186 0 -244 110q-18 34 -18 78z" />
    <glyph glyph-name="uring" unicode="&#x16f;" horiz-adv-x="1542"
d="M1501 0h-350v180q-155 -148 -370 -196q-74 -16 -160 -17q-175 0 -269 88t-94 244v541h-225v112h350v-616q1 -208 163 -244q52 -12 120 -12q130 0 262 63t223 144v553h-225v112h350v-839h225v-113zM576 1261q0 -41 38 -69t122 -27q84 -1 120 27t37 69q-1 41 -37 69
t-120 28t-122 -28t-38 -69zM474 1262q0 87 71 137q71 51 191 51q183 0 243 -110q19 -34 19 -78q0 -87 -72 -138t-190 -51q-186 0 -244 110q-18 35 -18 79z" />
    <glyph glyph-name="Uhungarumlaut" unicode="&#x170;"
d="M20 1374h699v-112h-287v-840q0 -145 151 -242q151 -96 417 -96q267 0 418 96t151 242v840h-287v112h698v-112h-286v-830q0 -211 -177 -335t-516 -124q-338 0 -516 124t-178 335v830h-287v112zM1493 1687l-358 -186l-45 78l346 213zM1098 1687l-358 -186l-45 78l346 213z
" />
    <glyph glyph-name="uhungarumlaut" unicode="&#x171;" horiz-adv-x="1542"
d="M1501 0h-350v180q-155 -148 -370 -196q-74 -16 -160 -17q-175 0 -269 88t-94 244v541h-225v112h350v-616q1 -208 163 -244q52 -12 120 -12q130 0 262 63t223 144v553h-225v112h350v-839h225v-113zM1229 1284l-358 -186l-45 78l346 213zM834 1284l-358 -186l-45 78
l346 213z" />
    <glyph glyph-name="Uogonek" unicode="&#x172;"
d="M805 -205q0 100 117 180q-301 16 -458 137t-157 320v830h-287v112h699v-112h-287v-840q0 -145 151 -242q151 -96 417 -96q267 0 418 96t151 242v840h-287v112h698v-112h-286v-830q0 -206 -168 -329q-168 -122 -490 -130q-116 -87 -116 -155q0 -80 131 -80q83 0 153 35
l37 -90q-74 -39 -203 -39q-233 0 -233 151z" />
    <glyph glyph-name="uogonek" unicode="&#x173;" horiz-adv-x="1542"
d="M1106 -205q0 133 188 205h-143v180q-155 -148 -370 -196q-74 -16 -160 -17q-175 0 -269 88t-94 244v541h-225v112h350v-616q1 -208 163 -244q52 -12 120 -12q130 0 262 63t223 144v553h-225v112h350v-839h225v-113q-139 -22 -209 -75q-71 -53 -71 -107q0 -80 131 -80
q83 0 153 35l37 -90q-74 -39 -203 -39q-233 0 -233 151z" />
    <glyph glyph-name="Wcircumflex" unicode="&#x174;" horiz-adv-x="2757"
d="M-41 1374h698v-112h-315l463 -1162l489 1274h168l490 -1274l463 1162h-316v112h699v-112h-244l-508 -1262h-186l-482 1241l-481 -1241h-186l-508 1262h-244v112zM1725 1503l-348 160l-348 -160l-39 78l387 219l387 -219z" />
    <glyph glyph-name="wcircumflex" unicode="&#x175;" horiz-adv-x="2056"
d="M41 952h494v-112h-189l281 -693l325 805h152l326 -805l278 693h-186v112h493v-112h-180l-340 -840h-129l-338 827l-336 -827h-131l-342 840h-178v112zM1376 1100l-348 160l-348 -160l-39 78l387 219l387 -219z" />
    <glyph glyph-name="Ycircumflex" unicode="&#x176;" horiz-adv-x="1808"
d="M0 1374h698v-112h-262l469 -576l465 576h-260v112h698v-112h-288l-553 -680v-469h307v-113h-739v113h307v469l-553 680h-289v112zM1254 1503l-348 160l-348 -160l-39 78l387 219l387 -219z" />
    <glyph glyph-name="ycircumflex" unicode="&#x177;" horiz-adv-x="1358"
d="M1358 840h-189l-393 -770q-38 -74 -70 -138t-66 -118q-73 -115 -163 -171q-89 -57 -230 -57t-243 68l55 106q68 -44 110 -53q42 -10 95 -10q113 0 190 69t156 226l-424 848h-186v112h494v-112h-164l348 -717l354 717h-168v112h494v-112zM1026 1100l-348 160l-348 -160
l-39 78l387 219l387 -219z" />
    <glyph glyph-name="Ydieresis" unicode="&#x178;" horiz-adv-x="1808"
d="M0 1374h698v-112h-262l469 -576l465 576h-260v112h698v-112h-288l-553 -680v-469h307v-113h-739v113h307v469l-553 680h-289v112zM1041 1671q25 26 63 26q36 -1 62 -27t26 -63t-26 -63t-62 -25q-38 -1 -63 25t-25 63q0 38 25 64zM619 1607q1 37 25 63t61 27q37 -1 63 -27
t27 -63q-1 -37 -27 -63t-63 -25q-37 -1 -61 25t-25 63z" />
    <glyph glyph-name="Zacute" unicode="&#x179;" horiz-adv-x="1507"
d="M154 963v411h1237v-67l-1115 -1190h1016v315h113v-432h-1303v102l1084 1155h-920v-294h-112zM1102 1687l-440 -186l-41 84l428 213z" />
    <glyph glyph-name="zacute" unicode="&#x17a;" horiz-adv-x="1262"
d="M139 952h979v-98l-817 -737h725v254h113v-371h-1026v102l813 734h-674v-226h-113v342zM987 1284l-440 -186l-41 84l428 213z" />
    <glyph glyph-name="Zdotaccent" unicode="&#x17b;" horiz-adv-x="1507"
d="M154 963v411h1237v-67l-1115 -1190h1016v315h113v-432h-1303v102l1084 1155h-920v-294h-112zM683 1680q27 28 66 28t67 -28t28 -58t-8 -47t-20 -29t-30 -20q-18 -7 -38 -7t-36 7q-16 8 -30 20q-26 26 -26 66t27 68z" />
    <glyph glyph-name="zdotaccent" unicode="&#x17c;" horiz-adv-x="1262"
d="M139 952h979v-98l-817 -737h725v254h113v-371h-1026v102l813 734h-674v-226h-113v342zM568 1277q27 28 66 28t67 -28t28 -58q1 -30 -7 -47q-8 -18 -21 -30t-31 -19t-37 -7q-21 0 -37 7t-28 19q-26 26 -27 67q0 40 27 68z" />
    <glyph glyph-name="Zcaron" unicode="&#x17d;" horiz-adv-x="1507"
d="M154 963v411h1237v-67l-1115 -1190h1016v315h113v-432h-1303v102l1084 1155h-920v-294h-112zM1135 1720l-387 -219l-387 219l39 78l348 -160l348 160z" />
    <glyph glyph-name="zcaron" unicode="&#x17e;" horiz-adv-x="1262"
d="M139 952h979v-98l-817 -737h725v254h113v-371h-1026v102l813 734h-674v-226h-113v342zM1020 1317l-387 -219l-387 219l39 78l348 -160l348 160z" />
    <glyph glyph-name="florin" unicode="&#x192;" horiz-adv-x="1712"
d="M372 39q138 0 217 77t134 255l139 460h-307v107h338l31 111q101 350 432 350q152 0 291 -86l-68 -99q-82 55 -132 65q-51 11 -103 11q-112 0 -190 -72t-107 -194l-23 -86h322v-107h-353l-139 -458q-67 -223 -158 -317q-120 -125 -346 -126q-152 0 -291 86l68 99
q82 -55 132 -65q51 -11 113 -11z" />
    <glyph glyph-name="AEacute" unicode="&#x1fc;" horiz-adv-x="2501"
d="M1155 580v673h-162l-383 -673h545zM506 1374h1837v-411h-113v294h-950v-473h723v-116h-723v-551h965v315h112v-432h-1489v113h287v354h-610l-201 -354h272v-113h-657v113h248l651 1149h-352v112zM1831 1687l-440 -186l-41 84l428 213z" />
    <glyph glyph-name="aeacute" unicode="&#x1fd;" horiz-adv-x="2232"
d="M1586 862q-200 0 -318 -97q-119 -97 -138 -241h879q-17 234 -237 310q-78 28 -186 28zM221 260q0 -180 301 -180q234 0 438 114q54 30 89 56q-48 102 -48 221q0 31 3 49q-618 -22 -742 -158q-40 -44 -41 -102zM98 254q0 198 260 284q200 67 648 87v47q0 101 -101 150
q-101 50 -221 50q-200 0 -284 -40t-109 -119l-127 30q32 112 152 174t329 62q380 0 459 -207q76 94 198 148t265 53q274 0 423 -143q148 -143 148 -392v-22h-1008q14 -153 130 -242q116 -88 317 -88q334 0 424 190h125q-117 -301 -549 -301q-320 0 -475 191
q-263 -193 -577 -193q-314 -1 -399 159q-28 52 -28 122zM1501 1284l-440 -186l-41 84l428 213z" />
    <glyph glyph-name="Oslashacute" unicode="&#x1fe;" horiz-adv-x="2015"
d="M1743 686q0 374 -299 516l-768 -1071q139 -43 334 -43q365 0 549 153t184 445zM1010 1284q-366 0 -552 -154t-186 -444q0 -376 303 -518l768 1073q-139 43 -333 43zM506 72q-371 174 -371 618q0 232 118 400q108 153 306 231t436 78t418 -62l156 217h127l-185 -256
q267 -130 343 -404q26 -94 26 -208q0 -354 -251 -542q-229 -172 -636 -171q-201 0 -387 60l-153 -215h-129zM1364 1687l-440 -186l-41 84l428 213z" />
    <glyph glyph-name="oslashacute" unicode="&#x1ff;" horiz-adv-x="1419"
d="M221 475q0 -237 187 -334l507 707q-89 24 -204 24q-243 0 -367 -102t-123 -295zM1198 475q0 242 -188 338l-508 -709q91 -24 209 -24q243 0 365 102t122 293zM98 475q0 251 171 377q171 127 442 127q147 0 270 -39l141 195h119l-168 -234q248 -128 248 -426
q0 -250 -168 -376t-442 -126q-152 0 -275 39l-139 -194h-121l166 233q-244 126 -244 424zM1065 1284l-440 -186l-41 84l428 213z" />
    <glyph glyph-name="dotlessj" unicode="&#x237;" horiz-adv-x="657"
d="M-25 -244q66 -59 166 -59t144 48q43 48 43 161v934h-226v112h351v-1046q0 -320 -306 -320q-132 0 -223 68z" />
    <glyph glyph-name="circumflex" unicode="&#x2c6;" horiz-adv-x="1081"
d="M889 1100l-348 160l-348 -160l-39 78l387 219l387 -219z" />
    <glyph glyph-name="caron" unicode="&#x2c7;" horiz-adv-x="1081"
d="M928 1317l-387 -219l-387 219l39 78l348 -160l348 160z" />
    <glyph glyph-name="breve" unicode="&#x2d8;" horiz-adv-x="1081"
d="M540 1112q-160 0 -253 82q-69 60 -92 156h116q29 -86 130 -122q41 -14 99 -14q103 0 159 43t73 93h115q-37 -154 -195 -214q-62 -24 -152 -24z" />
    <glyph glyph-name="dotaccent" unicode="&#x2d9;" horiz-adv-x="1081"
d="M476 1277q27 28 66 28t67 -28t28 -58q1 -30 -7 -47q-8 -18 -21 -30t-31 -19t-37 -7q-21 0 -37 7t-28 19q-26 26 -27 67q0 40 27 68z" />
    <glyph glyph-name="ring" unicode="&#x2da;" horiz-adv-x="1081"
d="M381 1261q-1 -41 37 -69t122 -27q84 -1 122 27q36 28 36 69t-36 69t-122 28q-84 0 -122 -28t-37 -69zM279 1262q0 87 71 137q71 51 191 51q183 0 243 -110q19 -34 19 -78q0 -87 -72 -138t-190 -51q-185 0 -243 110q-18 35 -19 79z" />
    <glyph glyph-name="ogonek" unicode="&#x2db;" horiz-adv-x="1081"
d="M428 -182q0 -80 131 -80q84 0 154 35l37 -90q-74 -39 -203 -39q-234 0 -234 151q0 125 195 225h108q-188 -118 -188 -202z" />
    <glyph glyph-name="tilde" unicode="&#x2dc;" horiz-adv-x="1081"
d="M709 1214q77 0 88 121h96q0 -117 -70 -183q-47 -44 -106 -44t-105 19t-88 41t-80 42q-38 19 -70 19q-77 0 -89 -121h-97q0 134 95 201q37 26 86 26t92 -19q43 -20 87 -42t84 -41q41 -19 77 -19z" />
    <glyph glyph-name="hungarumlaut" unicode="&#x2dd;" horiz-adv-x="1081"
d="M1034 1284l-358 -186l-45 78l346 213zM639 1284l-358 -186l-45 78l346 213z" />
    <glyph glyph-name="uni0315" unicode="&#x315;" horiz-adv-x="182"
d="M100 1081h-100l39 273h143z" />
    <glyph glyph-name="commaaccent" unicode="&#x326;" horiz-adv-x="1081"
d="M547 -416h-101l39 273h144z" />
    <glyph glyph-name="mu" unicode="&#x3bc;" horiz-adv-x="1444"
d="M1124 237q0 -47 4 -75t9 -54q6 -26 14 -52t16 -56h-125q-38 122 -38 227q-107 -121 -168 -163q-127 -87 -265 -87q-92 0 -162 54t-104 145l-112 -586h-125l264 1368h125l-123 -636q58 -238 254 -238q194 0 348 178q42 50 78 100l114 596h125l-114 -596q-15 -79 -15 -125z
" />
    <glyph glyph-name="Wgrave" unicode="&#x1e80;" horiz-adv-x="2757"
d="M-41 1374h698v-112h-315l463 -1162l489 1274h168l490 -1274l463 1162h-316v112h699v-112h-244l-508 -1262h-186l-482 1241l-481 -1241h-186l-508 1262h-244v112zM1076 1798l430 -213l-43 -84l-441 186z" />
    <glyph glyph-name="wgrave" unicode="&#x1e81;" horiz-adv-x="2056"
d="M41 952h494v-112h-189l281 -693l325 805h152l326 -805l278 693h-186v112h493v-112h-180l-340 -840h-129l-338 827l-336 -827h-131l-342 840h-178v112zM727 1395l430 -213l-43 -84l-441 186z" />
    <glyph glyph-name="Wacute" unicode="&#x1e82;" horiz-adv-x="2757"
d="M-41 1374h698v-112h-315l463 -1162l489 1274h168l490 -1274l463 1162h-316v112h699v-112h-244l-508 -1262h-186l-482 1241l-481 -1241h-186l-508 1262h-244v112zM1731 1687l-440 -186l-41 84l428 213z" />
    <glyph glyph-name="wacute" unicode="&#x1e83;" horiz-adv-x="2056"
d="M41 952h494v-112h-189l281 -693l325 805h152l326 -805l278 693h-186v112h493v-112h-180l-340 -840h-129l-338 827l-336 -827h-131l-342 840h-178v112zM1382 1284l-440 -186l-41 84l428 213z" />
    <glyph glyph-name="Wdieresis" unicode="&#x1e84;" horiz-adv-x="2757"
d="M-41 1374h698v-112h-315l463 -1162l489 1274h168l490 -1274l463 1162h-316v112h699v-112h-244l-508 -1262h-186l-482 1241l-481 -1241h-186l-508 1262h-244v112zM1512 1671q25 26 63 26q37 -1 63 -27t25 -63q1 -37 -25 -63t-64 -25q-38 -1 -62 25q-25 26 -25 63
q0 38 25 64zM1090 1607q0 37 24 63t62 27q38 -1 64 -27t26 -63t-26 -63t-64 -25q-38 -1 -62 25t-24 63z" />
    <glyph glyph-name="wdieresis" unicode="&#x1e85;" horiz-adv-x="2056"
d="M41 952h494v-112h-189l281 -693l325 805h152l326 -805l278 693h-186v112h493v-112h-180l-340 -840h-129l-338 827l-336 -827h-131l-342 840h-178v112zM1163 1268q25 26 63 26q36 0 62 -26t26 -64q0 -36 -26 -62t-62 -26q-38 0 -63 26t-25 62q0 38 25 64zM741 1204
q1 38 25 64t61 26t63 -26t27 -64q-1 -36 -27 -62t-63 -26t-61 26t-25 62z" />
    <glyph glyph-name="Ygrave" unicode="&#x1ef2;" horiz-adv-x="1808"
d="M0 1374h698v-112h-262l469 -576l465 576h-260v112h698v-112h-288l-553 -680v-469h307v-113h-739v113h307v469l-553 680h-289v112zM605 1798l430 -213l-43 -84l-441 186z" />
    <glyph glyph-name="ygrave" unicode="&#x1ef3;" horiz-adv-x="1358"
d="M1358 840h-189l-393 -770q-38 -74 -70 -138t-66 -118q-73 -115 -163 -171q-89 -57 -230 -57t-243 68l55 106q68 -44 110 -53q42 -10 95 -10q113 0 190 69t156 226l-424 848h-186v112h494v-112h-164l348 -717l354 717h-168v112h494v-112zM377 1395l430 -213l-43 -84
l-441 186z" />
    <glyph glyph-name="endash" unicode="&#x2013;" horiz-adv-x="860"
d="M41 430v111h778v-111h-778z" />
    <glyph glyph-name="emdash" unicode="&#x2014;" horiz-adv-x="2048"
d="M0 430v111h2048v-111h-2048z" />
    <glyph glyph-name="quoteleft" unicode="&#x2018;" horiz-adv-x="418"
d="M285 1035q-30 -31 -76 -31q-47 0 -77 32t-30 78q0 153 140 279l47 -47q-69 -69 -86 -140q83 0 105 -62q6 -18 7 -48q0 -30 -30 -61z" />
    <glyph glyph-name="quoteright" unicode="&#x2019;" horiz-adv-x="418"
d="M132 1343q30 31 76 31q47 0 77 -32t30 -79q0 -158 -139 -278l-47 47q70 70 86 139q-55 1 -77 23q-36 36 -36 77t30 72z" />
    <glyph glyph-name="quotesinglbase" unicode="&#x201a;" horiz-adv-x="418"
d="M132 172q30 30 77 31q46 0 76 -32t30 -79q0 -158 -139 -278l-47 47q70 70 86 139q-54 0 -77 22q-36 35 -36 77q0 43 30 73z" />
    <glyph glyph-name="quotedblleft" unicode="&#x201c;" horiz-adv-x="725"
d="M593 1035q-30 -31 -76 -31q-47 0 -77 32t-30 78q0 154 139 279l47 -47q-69 -69 -86 -140q54 0 77 -22q36 -35 36 -76q0 -42 -30 -73zM285 1035q-30 -31 -76 -31q-47 0 -77 32t-30 78q0 153 140 279l47 -47q-69 -69 -86 -140q83 0 105 -62q6 -18 7 -48q0 -30 -30 -61z" />
    <glyph glyph-name="quotedblright" unicode="&#x201d;" horiz-adv-x="725"
d="M440 1343q30 31 76 31t76 -32t31 -79q0 -157 -140 -278l-47 47q70 70 86 139q-84 0 -106 63q-6 18 -6 48t30 61zM132 1343q30 31 76 31q47 0 77 -32t30 -79q0 -158 -139 -278l-47 47q70 70 86 139q-55 1 -77 23q-36 36 -36 77t30 72z" />
    <glyph glyph-name="quotedblbase" unicode="&#x201e;" horiz-adv-x="725"
d="M410 111q0 31 30 61t76 31q46 0 76 -32t31 -79q0 -157 -140 -278l-47 47q70 70 86 139q-84 0 -106 62q-6 18 -6 49zM132 172q30 30 77 31q46 0 76 -32t30 -79q0 -158 -139 -278l-47 47q70 70 86 139q-54 0 -77 22q-36 35 -36 77q0 43 30 73z" />
    <glyph glyph-name="dagger" unicode="&#x2020;" horiz-adv-x="1024"
d="M184 1006h267v368h122v-368h267v-115h-267v-914h-122v914h-267v115z" />
    <glyph glyph-name="daggerdbl" unicode="&#x2021;" horiz-adv-x="1024"
d="M184 1006h267v368h122v-368h267v-115h-267v-316h267v-114h-267v-484h-122v484h-267v114h267v316h-267v115z" />
    <glyph glyph-name="bullet" unicode="&#x2022;" horiz-adv-x="721"
d="M164 706q0 82 58 140t138 57q82 1 140 -57t57 -140q1 -82 -57 -138q-58 -58 -140 -58t-138 58q-58 56 -58 138z" />
    <glyph glyph-name="ellipsis" unicode="&#x2026;" horiz-adv-x="1444"
d="M1085 106q1 50 35 84t70 35q60 0 96 -35q35 -36 35 -72q0 -60 -35 -94q-57 -55 -129 -25q-72 29 -72 107zM638 190q34 35 70 35q62 0 97 -35q35 -36 35 -72q0 -61 -35 -94q-35 -34 -72 -34t-59 9t-36 25q-34 34 -34 82q0 49 34 84zM123 106q0 49 34 84t70 35q61 0 96 -35
q35 -36 35 -72q0 -60 -35 -94q-57 -55 -128 -25q-72 29 -72 107z" />
    <glyph glyph-name="perthousand" unicode="&#x2030;" horiz-adv-x="2871"
d="M2650 324q0 54 -18 100t-52 81t-86 55q-51 20 -116 20q-66 0 -116 -20t-84 -55t-53 -81q-18 -46 -18 -100t18 -100q19 -46 53 -80t84 -56q50 -20 116 -20q65 0 116 20q52 20 86 56q34 34 52 80t18 100zM2102 71q-113 98 -113 255t114 253q114 95 275 95q162 0 277 -95
q114 -95 114 -253t-114 -256q-114 -97 -277 -97t-276 98zM692 1232q-72 73 -200 73t-199 -73q-72 -73 -72 -183q1 -173 155 -235q50 -20 116 -21q66 1 116 21q52 20 86 54q70 70 70 181q0 110 -72 183zM216 796q-114 98 -114 255t114 252q114 96 276 96t277 -96
q114 -96 114 -252q0 -157 -114 -255q-115 -98 -277 -98t-276 98zM1729 324q0 54 -18 100t-53 81t-86 55t-116 20q-66 0 -116 -20t-84 -55t-52 -81t-18 -100t18 -100t52 -80t84 -56q50 -20 116 -20q65 0 116 20t86 56q35 34 53 80t18 100zM1180 71q-113 98 -113 255t114 253
q114 95 275 95q162 0 277 -95q114 -95 114 -253t-114 -256q-114 -97 -277 -97t-276 98zM494 0h-132l1094 1374h129z" />
    <glyph glyph-name="guilsinglleft" unicode="&#x2039;" horiz-adv-x="528"
d="M82 444v91l285 335l86 -73l-256 -308l256 -307l-86 -73z" />
    <glyph glyph-name="guilsinglright" unicode="&#x203a;" horiz-adv-x="528"
d="M168 109l-86 73l256 307l-256 308l86 73l285 -335v-91z" />
    <glyph glyph-name="fraction" unicode="&#x2044;" horiz-adv-x="406"
d="M-276 0h-130l1090 1374h127z" />
    <glyph glyph-name="Euro" unicode="&#x20ac;" horiz-adv-x="1683"
d="M365 725v-73q0 -16 2 -34h737l-31 -100h-692q65 -314 357 -406q98 -30 198 -30q190 0 320 77q129 77 178 216h125q-98 -286 -386 -372q-101 -30 -231 -30q-271 0 -456 141q-186 141 -232 404h-217l31 100h174q-2 16 -2 34v73q0 19 2 39h-205l31 100h186q49 259 234 397
t443 138q259 -1 415 -107q44 -30 81 -57v139h109v-489h-109v55q0 164 -136 257t-328 93q-371 0 -515 -250q-46 -79 -67 -176h821l-31 -100h-804q-2 -20 -2 -39z" />
    <glyph glyph-name="trademark" unicode="&#x2122;" horiz-adv-x="1800"
d="M684 1374h219l309 -536l308 536h219v-69h-115v-461h115v-68h-314v68h115v428l-283 -496h-92l-282 498v-430h114v-68h-313v68h115v463h-115v67zM61 1161v213h592v-213h-73v146h-181v-463h121v-68h-325v68h120v463h-180v-146h-74z" />
    <glyph glyph-name="partialdiff" unicode="&#x2202;" horiz-adv-x="1618"
d="M1337 537q-253 231 -526 231t-418 -103t-145 -257t124 -240t362 -86t407 144q141 120 196 311zM1368 816q0 211 -114 333q-131 141 -406 141q-169 0 -391 -98l18 137q165 52 246 61t135 9q317 0 478 -160t161 -436q0 -398 -221 -614t-580 -216q-266 0 -419 118
q-152 118 -152 302q0 224 193 354t468 130q321 0 574 -211q10 59 10 150z" />
    <glyph glyph-name="minus" unicode="&#x2212;" horiz-adv-x="1300"
d="M172 631v108h956v-108h-956z" />
    <glyph glyph-name="uni2215" unicode="&#x2215;" horiz-adv-x="406"
d="M-276 0h-130l1090 1374h127z" />
    <glyph glyph-name="approxequal" unicode="&#x2248;" horiz-adv-x="1300"
d="M898 887q143 0 247 114v-120q-101 -101 -242 -101q-81 0 -201 38q-228 72 -300 71q-138 0 -246 -113v119q102 102 239 102q84 0 204 -38q225 -72 299 -72zM898 539q143 0 247 114v-121q-98 -100 -242 -100q-81 0 -201 38q-228 72 -300 71q-138 0 -246 -113v119
q102 102 239 102q84 0 204 -38q225 -72 299 -72z" />
    <glyph glyph-name="notequal" unicode="&#x2260;" horiz-adv-x="1300"
d="M1128 930v-109h-380l-91 -272h471v-111h-507l-101 -307h-121l101 307h-328v111h365l90 272h-455v109h492l102 307h121l-103 -307h344z" />
    <glyph glyph-name="lessequal" unicode="&#x2264;" horiz-adv-x="1300"
d="M156 678v94l974 399v-114l-829 -332l829 -330v-114zM172 98v109h956v-109h-956z" />
    <glyph glyph-name="greaterequal" unicode="&#x2265;" horiz-adv-x="1300"
d="M170 281v114l829 330l-829 332v114l975 -399v-94zM172 98v109h956v-109h-956z" />
    </font>
</defs>
</svg>
